<svg xmlns="http://www.w3.org/2000/svg" xmlns:xlink="http://www.w3.org/1999/xlink" width="110" height="110" viewBox="0 0 110 110">
  <defs>
    <filter id="Path_982547" x="0" y="0" width="110" height="110" filterUnits="userSpaceOnUse">
      <feOffset dy="3" input="SourceAlpha"/>
      <feGaussianBlur stdDeviation="3" result="blur"/>
      <feFlood flood-opacity="0.161"/>
      <feComposite operator="in" in2="blur"/>
      <feComposite in="SourceGraphic"/>
    </filter>
  </defs>
  <g id="Group_1173565" data-name="Group 1173565" transform="translate(-1128 -5940)">
    <g id="Group_1173087" data-name="Group 1173087" transform="translate(0 30)">
      <g id="Group_1172182" data-name="Group 1172182" transform="translate(13 5087)">
        <g id="Group_1171416" data-name="Group 1171416" transform="translate(-0.701 -6107)">
          <g id="Group_1163803" data-name="Group 1163803" transform="translate(-0.494 2285.316)">
            <g id="Group_1163015" data-name="Group 1163015" transform="translate(1.195 305.685)">
              <g id="Group_1157017" data-name="Group 1157017" transform="translate(0 3549)">
                <g id="Group_1155793" data-name="Group 1155793" transform="translate(-0.999 -3894)">
                  <g id="Group_1154704" data-name="Group 1154704" transform="translate(0 1466)">
                    <g id="Group_1150790" data-name="Group 1150790" transform="translate(3 2320)">
                      <g id="Group_1154214" data-name="Group 1154214" transform="translate(79 -5809)">
                        <g id="Group_1152583" data-name="Group 1152583" transform="translate(1043 6713)">
                          <g id="Group_1146973" data-name="Group 1146973" transform="translate(0 0)">
                            <g id="Group_1146954" data-name="Group 1146954">
                              <g transform="matrix(1, 0, 0, 1, -9, -6)" filter="url(#Path_982547)">
                                <g id="Path_982547-2" data-name="Path 982547" transform="translate(9 6)" fill="#e4f2f4">
                                  <path d="M 46 90.49987030029297 C 39.99187850952148 90.49987030029297 34.16426849365234 89.32350921630859 28.67905426025391 87.00345611572266 C 23.38019943237305 84.76224517822266 18.62104034423828 81.55341339111328 14.53374671936035 77.46613311767578 C 10.44646644592285 73.37885284423828 7.237639904022217 68.61969757080078 4.996413230895996 63.32085418701172 C 2.676359891891479 57.83565521240234 1.5 52.008056640625 1.5 45.99993515014648 C 1.5 39.99181365966797 2.676359891891479 34.16421508789062 4.996413230895996 28.67901420593262 C 7.237639904022217 23.38017463684082 10.44646644592285 18.62101554870605 14.53374671936035 14.53373527526855 C 18.62104034423828 10.44645500183105 23.38019943237305 7.23762845993042 28.67905426025391 4.996415138244629 C 34.16426849365234 2.676361799240112 39.99187850952148 1.500001788139343 46 1.500001788139343 C 52.00812149047852 1.500001788139343 57.83573150634766 2.676361799240112 63.32094573974609 4.996415138244629 C 68.61979675292969 7.23762845993042 73.37895965576172 10.44645500183105 77.46625518798828 14.53373527526855 C 81.55353546142578 18.62101554870605 84.76235961914062 23.38017463684082 87.00358581542969 28.67901420593262 C 89.32363891601562 34.16421508789062 90.5 39.99181365966797 90.5 45.99993515014648 C 90.5 52.008056640625 89.32363891601562 57.83565521240234 87.00358581542969 63.32085418701172 C 84.76235961914062 68.61969757080078 81.55353546142578 73.37885284423828 77.46625518798828 77.46613311767578 C 73.37895965576172 81.55341339111328 68.61979675292969 84.76224517822266 63.32094573974609 87.00345611572266 C 57.83573150634766 89.32350921630859 52.00812149047852 90.49987030029297 46 90.49987030029297 Z" stroke="none"/>
                                  <path d="M 46 2.999992370605469 C 40.1937141418457 2.999992370605469 34.56269836425781 4.136489868164062 29.26337051391602 6.377906799316406 C 24.14332580566406 8.543502807617188 19.54441070556641 11.64437866210938 15.59439849853516 15.59437561035156 C 11.64440155029297 19.54439544677734 8.54351806640625 24.14329528808594 6.377914428710938 29.26333618164062 C 4.136497497558594 34.56264877319336 3 40.19366455078125 3 45.99993515014648 C 3 51.80620574951172 4.136497497558594 57.43720626831055 6.377914428710938 62.73651885986328 C 8.54351806640625 67.8565673828125 11.64440155029297 72.45545959472656 15.59439849853516 76.40547943115234 C 19.54441070556641 80.35547637939453 24.14332580566406 83.45635223388672 29.26337051391602 85.6219482421875 C 34.56269836425781 87.86336517333984 40.1937141418457 88.99986267089844 46 88.99986267089844 C 51.8062858581543 88.99986267089844 57.43730163574219 87.86336517333984 62.73661422729492 85.6219482421875 C 67.85667419433594 83.45635223388672 72.45557403564453 80.35547637939453 76.40558624267578 76.40547943115234 C 80.35559844970703 72.45545959472656 83.45647430419922 67.8565673828125 85.6220703125 62.73651885986328 C 87.86350250244141 57.43720626831055 89 51.80620574951172 89 45.99993515014648 C 89 40.19366455078125 87.86350250244141 34.56264877319336 85.6220703125 29.26333618164062 C 83.45647430419922 24.14329528808594 80.35559844970703 19.54439544677734 76.40558624267578 15.59437561035156 C 72.45557403564453 11.64437866210938 67.85667419433594 8.543502807617188 62.73661422729492 6.377906799316406 C 57.43730163574219 4.136489868164062 51.8062858581543 2.999992370605469 46 2.999992370605469 M 46 -7.62939453125e-06 C 71.40509033203125 -7.62939453125e-06 92 20.59486389160156 92 45.99993515014648 C 92 71.40499114990234 71.40509033203125 91.99986267089844 46 91.99986267089844 C 20.59490203857422 91.99986267089844 0 71.40499114990234 0 45.99993515014648 C 0 20.59486389160156 20.59490203857422 -7.62939453125e-06 46 -7.62939453125e-06 Z" stroke="none" fill="#01899b"/>
                                </g>
                              </g>
                            </g>
                          </g>
                        </g>
                      </g>
                    </g>
                  </g>
                </g>
              </g>
            </g>
          </g>
        </g>
      </g>
      <g id="team-spirit_11466291" transform="translate(1116.967 5927.372)">
        <g id="Group_1173085" data-name="Group 1173085" transform="translate(42.033 6.628)">
          <g id="Group_1173084" data-name="Group 1173084" transform="translate(0 0)">
            <g id="Group_1173081" data-name="Group 1173081" transform="translate(26.412 35.32)">
              <path id="Path_1038820" data-name="Path 1038820" d="M297.015,322.8l.149,1.826a28.05,28.05,0,0,1,1.788,9.814l.077,7.748a.559.559,0,0,1-.559.559l-1.644.351H279.016a.559.559,0,0,1-.559-.559v-8.19a28.326,28.326,0,0,1,1.729-9.744l.742-1.806h16.087Z" transform="translate(-278.457 -322.797)" fill="#ffd15b"/>
            </g>
            <path id="Path_1038821" data-name="Path 1038821" d="M424.752,324.548l-.607-1.75h-2.57l.607,1.75a28.327,28.327,0,0,1,1.774,9.867V343.1h2.011a.559.559,0,0,0,.559-.559v-8.122A28.327,28.327,0,0,0,424.752,324.548Z" transform="translate(-379.176 -287.478)" fill="#ffc344"/>
            <path id="Path_1038822" data-name="Path 1038822" d="M81.818,437.243v-7.7H64.746v7.927a.447.447,0,0,0,.447.447H79.248l2.123-.223A.447.447,0,0,0,81.818,437.243Z" transform="translate(-62.209 -382.294)" fill="#6c7fd8"/>
            <path id="Path_1038823" data-name="Path 1038823" d="M194.01,429.539v7.927a.447.447,0,0,1-.447.447h2.458a.447.447,0,0,0,.447-.447v-7.927Z" transform="translate(-176.635 -382.294)" fill="#4f66d0"/>
            <g id="Group_1173083" data-name="Group 1173083" transform="translate(25.768)">
              <g id="Group_1173082" data-name="Group 1173082">
                <path id="Path_1038824" data-name="Path 1038824" d="M302.412,92.506,291.293,94.34l-.06,2.394h-.654a17.462,17.462,0,0,1-3.644,1.767l.05,8.638a7.439,7.439,0,0,1,2.055,5.068v2.758a.684.684,0,0,0,.684.684h11.4l.393-.092v.092h1.8a.684.684,0,0,0,.684-.689l0-1.572a12.141,12.141,0,0,1,1.66-6.173,12.485,12.485,0,0,0,1.743-6.3V94.146Z" transform="translate(-285.344 -82.912)" fill="#c59191"/>
                <path id="Path_1038825" data-name="Path 1038825" d="M298.512,98.141l.094,1.175a4.436,4.436,0,0,1-4.553,4.789h0l-.043,1.877-6.983-.606Z" transform="translate(-285.426 -87.918)" fill="#b98080"/>
                <path id="Path_1038826" data-name="Path 1038826" d="M288.531,27.807l.033-5.5a3.158,3.158,0,0,0-2.3-2.638h0a2.638,2.638,0,0,0-2.638,2.638v3.2l.624,2.6Z" transform="translate(-282.408 -18.213)" fill="#c59191"/>
                <path id="Path_1038827" data-name="Path 1038827" d="M325.347,18.275l.616-7.552V9.266A2.638,2.638,0,0,1,328.6,6.628h0a2.987,2.987,0,0,1,2.3,2.638l.342,8.951Z" transform="translate(-319.465 -6.628)" fill="#c59191"/>
                <path id="Path_1038828" data-name="Path 1038828" d="M294.182,10.637V9.266a2.638,2.638,0,0,0-2.638-2.638v4.657a2.638,2.638,0,0,1-2.638,2.638h0v-3.2a2.638,2.638,0,0,0-2.638-2.638v3.2a2.638,2.638,0,0,1-2.638,2.638h0v2.739h2.638V16.7l2.638-.037h2.638v2.089l2.638-.534.5-4.2Z" transform="translate(-282.408 -6.628)" fill="#b98080"/>
                <path id="Path_1038829" data-name="Path 1038829" d="M424.065,35.29a2.5,2.5,0,0,0-2.5,2.483l-.456,2.461.488,1.882v1.506a2.437,2.437,0,0,0,.073.6,2.461,2.461,0,0,0,.78,1.038c.24.237.4.223.722.349a2.447,2.447,0,0,0,.909.172l-.011.285.011-.285a2.206,2.206,0,0,0,.863-.161,2.1,2.1,0,0,0,.753-.527,2.445,2.445,0,0,0,.607-1.777l-.044-5.492a2.3,2.3,0,0,0-2.014-2.526C424.183,35.292,424.124,35.29,424.065,35.29Z" transform="translate(-404.525 -32.088)" fill="#c59191"/>
                <path id="Path_1038830" data-name="Path 1038830" d="M431.037,37.824l.017,5.549a3.183,3.183,0,0,1-.766,2.017,2.528,2.528,0,0,1-.845.553,2.439,2.439,0,0,1-.909.173h0a2.44,2.44,0,0,1-.91-.173,2.527,2.527,0,0,1-.845-.553,2.419,2.419,0,0,1-.644-1.119c.051,0,.1.005.153.005h0a2.454,2.454,0,0,0,.909-.173,2.533,2.533,0,0,0,.846-.554,3.046,3.046,0,0,0,.734-1.975l.015-5.59a2.432,2.432,0,0,0-.084-.636A2.5,2.5,0,0,1,431.037,37.824Z" transform="translate(-408.992 -32.14)" fill="#b98080"/>
                <path id="Path_1038831" data-name="Path 1038831" d="M383.146,21.591a2.616,2.616,0,0,0-1.912-2.728,2.465,2.465,0,0,0-.5-.046h0a2.647,2.647,0,0,0-2.647,2.647V25.28a18.707,18.707,0,0,0,.243,2c.211,1.24,1.111,2.521,2.4,2.516,1.483.01,2.143-.929,2.159-2.318Z" transform="translate(-366.312 -17.455)" fill="#c59191"/>
                <path id="Path_1038832" data-name="Path 1038832" d="M383.325,21.827v6.019a2.685,2.685,0,0,1-2.647,2.646,2.65,2.65,0,0,1-2.554-1.953,19.536,19.536,0,0,1-.092-2.9,2.676,2.676,0,0,0,3.125-2.3c.044.109.014-4.059.022-4.122A2.659,2.659,0,0,1,383.325,21.827Z" transform="translate(-366.257 -17.819)" fill="#b98080"/>
                <path id="Path_1038833" data-name="Path 1038833" d="M275.326,86.721h9.194A1.263,1.263,0,0,1,285.779,88a3.71,3.71,0,0,1-3.324,3.668l-2.649.355a.672.672,0,0,0-.582.651l-.083,3.617-.378,2.084A4.421,4.421,0,0,1,274.335,102h0a6.242,6.242,0,0,1-1.641-4.22V89.412A2.676,2.676,0,0,1,275.326,86.721Z" transform="translate(-272.693 -77.774)" fill="#c59191"/>
                <path id="Path_1038834" data-name="Path 1038834" d="M395.524,297.452l-.391.091h.391Z" transform="translate(-381.455 -264.963)" fill="#efbbb4"/>
                <path id="Path_1038835" data-name="Path 1038835" d="M302.178,280.172,302,282.921a1.408,1.408,0,0,1-1.408,1.408l-1.762.433H283.725a1.408,1.408,0,0,1-1.408-1.408v-3.585a1.408,1.408,0,0,1,1.408-1.408h15.017l2.028.4A1.408,1.408,0,0,1,302.178,280.172Z" transform="translate(-281.242 -248.005)" fill="#ffe177"/>
                <path id="Path_1038836" data-name="Path 1038836" d="M430.417,278.361h-2.644a1.408,1.408,0,0,1,1.408,1.408v3.585a1.408,1.408,0,0,1-1.408,1.408h2.644a1.408,1.408,0,0,0,1.408-1.408v-3.585A1.408,1.408,0,0,0,430.417,278.361Z" transform="translate(-410.449 -248.005)" fill="#ffd15b"/>
              </g>
            </g>
            <path id="Path_1038837" data-name="Path 1038837" d="M71.751,208.355l-11.119,1.834-.06,2.394h-.654a17.461,17.461,0,0,1-3.644,1.767l.05,8.638a7.439,7.439,0,0,1,2.055,5.068v2.758a.684.684,0,0,0,.684.684h11.4l.393-.092v.092h1.8a.684.684,0,0,0,.684-.689l0-1.572A12.14,12.14,0,0,1,75,223.065a12.485,12.485,0,0,0,1.743-6.3v-6.771Z" transform="translate(-54.683 -185.819)" fill="#f3cfca"/>
            <path id="Path_1038838" data-name="Path 1038838" d="M67.852,213.99l.094,1.175a4.436,4.436,0,0,1-4.553,4.789h0l-.043,1.877-6.983-.606Z" transform="translate(-54.766 -190.825)" fill="#efbbb4"/>
            <path id="Path_1038839" data-name="Path 1038839" d="M57.871,143.656l.033-5.5a3.158,3.158,0,0,0-2.3-2.638h0a2.638,2.638,0,0,0-2.638,2.638v3.2l.624,2.6Z" transform="translate(-51.748 -121.12)" fill="#f3cfca"/>
            <path id="Path_1038840" data-name="Path 1038840" d="M94.687,134.124l.616-7.552v-1.457a2.638,2.638,0,0,1,2.638-2.638h0a2.987,2.987,0,0,1,2.3,2.638l.342,8.951Z" transform="translate(-88.805 -109.535)" fill="#f3cfca"/>
            <path id="Path_1038841" data-name="Path 1038841" d="M63.522,126.487v-1.371a2.638,2.638,0,0,0-2.638-2.638v4.657a2.638,2.638,0,0,1-2.638,2.638h0v-3.2a2.638,2.638,0,0,0-2.638-2.638v3.2a2.638,2.638,0,0,1-2.638,2.638h0v2.739h2.638v.037l2.638-.037h2.638V134.6l2.638-.534.5-4.2Z" transform="translate(-51.748 -109.536)" fill="#efbbb4"/>
            <path id="Path_1038842" data-name="Path 1038842" d="M193.405,151.139a2.5,2.5,0,0,0-2.5,2.483l-.456,2.461.488,1.882v1.506a2.437,2.437,0,0,0,.073.6,2.461,2.461,0,0,0,.78,1.038c.24.237.4.223.722.349a2.447,2.447,0,0,0,.909.172l-.011.285.011-.285a2.206,2.206,0,0,0,.863-.161,2.1,2.1,0,0,0,.753-.527,2.445,2.445,0,0,0,.607-1.777l-.044-5.492a2.3,2.3,0,0,0-2.014-2.526C193.523,151.141,193.464,151.139,193.405,151.139Z" transform="translate(-173.865 -134.995)" fill="#f3cfca"/>
            <path id="Path_1038843" data-name="Path 1038843" d="M200.377,153.673l.017,5.549a3.183,3.183,0,0,1-.766,2.017,2.528,2.528,0,0,1-.845.553,2.439,2.439,0,0,1-.909.173h0a2.44,2.44,0,0,1-.91-.173,2.527,2.527,0,0,1-.845-.553,2.419,2.419,0,0,1-.644-1.119c.05,0,.1.005.153.005h0a2.453,2.453,0,0,0,.909-.173,2.533,2.533,0,0,0,.846-.554,3.046,3.046,0,0,0,.734-1.975l.015-5.59a2.431,2.431,0,0,0-.084-.636A2.5,2.5,0,0,1,200.377,153.673Z" transform="translate(-178.332 -135.047)" fill="#efbbb4"/>
            <path id="Path_1038844" data-name="Path 1038844" d="M152.486,137.44a2.616,2.616,0,0,0-1.912-2.728,2.466,2.466,0,0,0-.5-.046h0a2.647,2.647,0,0,0-2.647,2.647v3.816a18.707,18.707,0,0,0,.243,2c.211,1.24,1.111,2.521,2.4,2.516,1.483.01,2.143-.929,2.159-2.318Z" transform="translate(-135.652 -120.362)" fill="#f3cfca"/>
            <path id="Path_1038845" data-name="Path 1038845" d="M152.664,137.676V143.7a2.685,2.685,0,0,1-2.647,2.646,2.65,2.65,0,0,1-2.554-1.953,19.536,19.536,0,0,1-.092-2.9,2.676,2.676,0,0,0,3.125-2.3c.044.109.014-4.059.022-4.122A2.659,2.659,0,0,1,152.664,137.676Z" transform="translate(-135.596 -120.726)" fill="#efbbb4"/>
            <path id="Path_1038846" data-name="Path 1038846" d="M44.666,202.57h9.194a1.263,1.263,0,0,1,1.259,1.276,3.71,3.71,0,0,1-3.324,3.668l-2.649.355a.672.672,0,0,0-.582.651l-.083,3.617-.378,2.084a4.421,4.421,0,0,1-4.428,3.628h0a6.241,6.241,0,0,1-1.641-4.22v-8.369A2.676,2.676,0,0,1,44.666,202.57Z" transform="translate(-42.033 -180.681)" fill="#f3cfca"/>
          </g>
          <path id="Path_1038847" data-name="Path 1038847" d="M72.491,398.962a1.476,1.476,0,0,1,.243.835,1.5,1.5,0,0,1-1.478,1.7l-2.028.124H54.836a1.747,1.747,0,0,1-1.491-2.655c.307-.5,1.937-.838,2.568-.838a5.479,5.479,0,0,1-2.311-.512,1.768,1.768,0,0,1-.257-.326,1.747,1.747,0,0,1,1.491-2.655H69.183l1.968.209a1.44,1.44,0,0,1,1.144.381,1.5,1.5,0,0,1,.44,1.157,1.733,1.733,0,0,1-.255.908c-.307.5-1.891.838-2.522.838a5.278,5.278,0,0,1,2.263.541A1.658,1.658,0,0,1,72.491,398.962Z" transform="translate(-51.855 -351.286)" fill="#8795de"/>
          <path id="Path_1038848" data-name="Path 1038848" d="M197.28,398.635a6.489,6.489,0,0,0-2.52-.512c.631,0,2.47-.335,2.777-.838a1.747,1.747,0,0,0-1.491-2.655h-2.458a1.747,1.747,0,0,1,1.491,2.655,2.939,2.939,0,0,1-.35.486.572.572,0,0,0,.023.794l.069.069a1.767,1.767,0,0,1,.257.326,1.747,1.747,0,0,1-1.491,2.655h2.406a1.78,1.78,0,0,0,1.8-1.741,1.733,1.733,0,0,0-.255-.914A1.767,1.767,0,0,0,197.28,398.635Z" transform="translate(-176.657 -351.285)" fill="#6c7fd8"/>
        </g>
        <g id="Group_1173086" data-name="Group 1173086" transform="translate(42.139 6.725)">
          <path id="Path_1038849" data-name="Path 1038849" d="M331.136,161.633c3.28.824,5.168,2,5.168,6.488" transform="translate(-298.945 -144.414)" fill="none" stroke="#000" stroke-linecap="round" stroke-linejoin="round" stroke-miterlimit="10" stroke-width="1.5"/>
          <path id="Path_1038850" data-name="Path 1038850" d="M442.475,107.291v6.944a11.866,11.866,0,0,1-1.67,6.07h0a11.866,11.866,0,0,0-1.669,5.9" transform="translate(-394.881 -96.143)" fill="none" stroke="#000" stroke-linecap="round" stroke-linejoin="round" stroke-miterlimit="10" stroke-width="1.5"/>
          <path id="Path_1038851" data-name="Path 1038851" d="M376.535,22.684a2.583,2.583,0,0,1,2.583-2.583h0a2.583,2.583,0,0,1,2.583,2.583V28.6a2.583,2.583,0,0,1-2.583,2.583h0a2.572,2.572,0,0,1-1.426-.429" transform="translate(-339.273 -18.693)" fill="none" stroke="#000" stroke-linecap="round" stroke-linejoin="round" stroke-miterlimit="10" stroke-width="1.5"/>
          <path id="Path_1038852" data-name="Path 1038852" d="M330.292,11.384v-1.3A2.583,2.583,0,0,1,332.875,7.5h0a2.583,2.583,0,0,1,2.583,2.583V16" transform="translate(-298.196 -7.5)" fill="none" stroke="#000" stroke-linecap="round" stroke-linejoin="round" stroke-miterlimit="10" stroke-width="1.5"/>
          <path id="Path_1038853" data-name="Path 1038853" d="M284.049,27.89V22.684a2.583,2.583,0,0,1,2.583-2.583h0a2.583,2.583,0,0,1,2.583,2.583v4.761" transform="translate(-257.118 -18.693)" fill="none" stroke="#000" stroke-linecap="round" stroke-linejoin="round" stroke-miterlimit="10" stroke-width="1.5"/>
          <path id="Path_1038854" data-name="Path 1038854" d="M422.777,40.115a2.583,2.583,0,0,1,2.583-2.583h0a2.583,2.583,0,0,1,2.583,2.583v5.21a2.583,2.583,0,0,1-2.583,2.583h0a2.583,2.583,0,0,1-2.583-2.583V44.08" transform="translate(-380.349 -34.177)" fill="none" stroke="#000" stroke-linecap="round" stroke-linejoin="round" stroke-miterlimit="10" stroke-width="1.5"/>
          <path id="Path_1038855" data-name="Path 1038855" d="M273,92.308V89.662a2.656,2.656,0,0,1,2.613-2.671h9.13a1.246,1.246,0,0,1,1.246,1.247,3.681,3.681,0,0,1-3.3,3.661l-3.194.428v3" transform="translate(-247.304 -78.11)" fill="none" stroke="#000" stroke-linecap="round" stroke-linejoin="round" stroke-miterlimit="10" stroke-width="1.5"/>
          <path id="Path_1038856" data-name="Path 1038856" d="M273,169.59v1.751a6.2,6.2,0,0,0,1.629,4.188A7.509,7.509,0,0,1,276.6,180.6v.944" transform="translate(-247.304 -151.482)" fill="none" stroke="#000" stroke-linecap="round" stroke-linejoin="round" stroke-miterlimit="10" stroke-width="1.5"/>
          <path id="Path_1038857" data-name="Path 1038857" d="M280.25,337.424l-.063.172a28.326,28.326,0,0,0-1.729,9.744v8.748" transform="translate(-252.152 -300.567)" fill="none" stroke="#000" stroke-linecap="round" stroke-linejoin="round" stroke-miterlimit="10" stroke-width="1.5"/>
          <path id="Path_1038858" data-name="Path 1038858" d="M450.01,338.466h0a28.327,28.327,0,0,1,1.774,9.867v8.681" transform="translate(-404.539 -301.493)" fill="none" stroke="#000" stroke-linecap="round" stroke-linejoin="round" stroke-miterlimit="10" stroke-width="1.5"/>
          <path id="Path_1038859" data-name="Path 1038859" d="M294.985,284.894h5.338a1.477,1.477,0,0,0,1.476-1.477v-3.432a1.477,1.477,0,0,0-1.476-1.476h-17.3a1.477,1.477,0,0,0-1.477,1.476v3.432a1.477,1.477,0,0,0,1.477,1.477h8.048" transform="translate(-254.899 -248.235)" fill="none" stroke="#000" stroke-linecap="round" stroke-linejoin="round" stroke-miterlimit="10" stroke-width="1.5"/>
          <path id="Path_1038860" data-name="Path 1038860" d="M101.113,276.2c3.28.824,5.168,2,5.168,6.488" transform="translate(-94.619 -246.179)" fill="none" stroke="#000" stroke-linecap="round" stroke-linejoin="round" stroke-miterlimit="10" stroke-width="1.5"/>
          <path id="Path_1038861" data-name="Path 1038861" d="M212.452,221.855V228.8a11.866,11.866,0,0,1-1.67,6.07h0a11.866,11.866,0,0,0-1.669,5.9" transform="translate(-190.555 -197.909)" fill="none" stroke="#000" stroke-linecap="round" stroke-linejoin="round" stroke-miterlimit="10" stroke-width="1.5"/>
          <path id="Path_1038862" data-name="Path 1038862" d="M146.512,137.247a2.583,2.583,0,0,1,2.583-2.583h0a2.583,2.583,0,0,1,2.583,2.583v5.912a2.583,2.583,0,0,1-2.583,2.583h0a2.571,2.571,0,0,1-1.426-.429" transform="translate(-134.946 -120.458)" fill="none" stroke="#000" stroke-linecap="round" stroke-linejoin="round" stroke-miterlimit="10" stroke-width="1.5"/>
          <path id="Path_1038863" data-name="Path 1038863" d="M100.269,125.947v-1.3a2.583,2.583,0,0,1,2.583-2.583h0a2.583,2.583,0,0,1,2.583,2.583v5.912" transform="translate(-93.869 -109.265)" fill="none" stroke="#000" stroke-linecap="round" stroke-linejoin="round" stroke-miterlimit="10" stroke-width="1.5"/>
          <path id="Path_1038864" data-name="Path 1038864" d="M54.026,142.453v-5.206a2.583,2.583,0,0,1,2.583-2.583h0a2.583,2.583,0,0,1,2.583,2.583v4.761" transform="translate(-52.792 -120.458)" fill="none" stroke="#000" stroke-linecap="round" stroke-linejoin="round" stroke-miterlimit="10" stroke-width="1.5"/>
          <path id="Path_1038865" data-name="Path 1038865" d="M192.754,154.678a2.583,2.583,0,0,1,2.583-2.583h0a2.583,2.583,0,0,1,2.583,2.583v5.21a2.583,2.583,0,0,1-2.583,2.583h0a2.583,2.583,0,0,1-2.583-2.583v-1.245" transform="translate(-176.022 -135.942)" fill="none" stroke="#000" stroke-linecap="round" stroke-linejoin="round" stroke-miterlimit="10" stroke-width="1.5"/>
          <path id="Path_1038866" data-name="Path 1038866" d="M42.98,206.812v-2.581a2.656,2.656,0,0,1,2.613-2.671h9.129a1.246,1.246,0,0,1,1.247,1.246,3.681,3.681,0,0,1-3.3,3.662l-3.195.428v3" transform="translate(-42.98 -179.881)" fill="none" stroke="#000" stroke-linecap="round" stroke-linejoin="round" stroke-miterlimit="10" stroke-width="1.5"/>
          <path id="Path_1038867" data-name="Path 1038867" d="M42.98,283.57v1.815a6.2,6.2,0,0,0,1.629,4.189,7.51,7.51,0,0,1,1.971,5.071v.944" transform="translate(-42.98 -252.729)" fill="none" stroke="#000" stroke-linecap="round" stroke-linejoin="round" stroke-miterlimit="10" stroke-width="1.5"/>
          <line id="Line_1074" data-name="Line 1074" y2="5.064" transform="translate(2.432 50.457)" fill="none" stroke="#000" stroke-linecap="round" stroke-linejoin="round" stroke-miterlimit="10" stroke-width="1.5"/>
          <line id="Line_1075" data-name="Line 1075" y2="5.064" transform="translate(19.727 50.457)" fill="none" stroke="#000" stroke-linecap="round" stroke-linejoin="round" stroke-miterlimit="10" stroke-width="1.5"/>
          <path id="Path_1038868" data-name="Path 1038868" d="M54.837,398.126a1.746,1.746,0,0,1-1.746-1.746h0a1.746,1.746,0,0,1,1.746-1.746H71.244a1.746,1.746,0,0,1,1.746,1.746h0a1.746,1.746,0,0,1-1.746,1.746" transform="translate(-51.961 -351.385)" fill="none" stroke="#000" stroke-linecap="round" stroke-linejoin="round" stroke-miterlimit="10" stroke-width="1.5"/>
          <path id="Path_1038869" data-name="Path 1038869" d="M57.071,425.9H54.836a1.747,1.747,0,0,0,0,3.493h4.633" transform="translate(-51.961 -379.159)" fill="none" stroke="#000" stroke-linecap="round" stroke-linejoin="round" stroke-miterlimit="10" stroke-width="1.5"/>
          <path id="Path_1038870" data-name="Path 1038870" d="M145.19,429.393h7.865a1.747,1.747,0,0,0,0-3.493H150.82" transform="translate(-133.772 -379.159)" fill="none" stroke="#000" stroke-linecap="round" stroke-linejoin="round" stroke-miterlimit="10" stroke-width="1.5"/>
        </g>
      </g>
    </g>
  </g>
</svg>
