<svg xmlns="http://www.w3.org/2000/svg" xmlns:xlink="http://www.w3.org/1999/xlink" width="110" height="110" viewBox="0 0 110 110">
  <defs>
    <filter id="Path_982547" x="0" y="0" width="110" height="110" filterUnits="userSpaceOnUse">
      <feOffset dy="3" input="SourceAlpha"/>
      <feGaussianBlur stdDeviation="3" result="blur"/>
      <feFlood flood-opacity="0.161"/>
      <feComposite operator="in" in2="blur"/>
      <feComposite in="SourceGraphic"/>
    </filter>
  </defs>
  <g id="Group_1173567" data-name="Group 1173567" transform="translate(-4863 -5912)">
    <g id="Group_1173093" data-name="Group 1173093">
      <g id="Group_1172184" data-name="Group 1172184" transform="translate(3748 5089)">
        <g id="Group_1171416" data-name="Group 1171416" transform="translate(-0.701 -6107)">
          <g id="Group_1163803" data-name="Group 1163803" transform="translate(-0.494 2285.316)">
            <g id="Group_1163015" data-name="Group 1163015" transform="translate(1.195 305.685)">
              <g id="Group_1157017" data-name="Group 1157017" transform="translate(0 3549)">
                <g id="Group_1155793" data-name="Group 1155793" transform="translate(-0.999 -3894)">
                  <g id="Group_1154704" data-name="Group 1154704" transform="translate(0 1466)">
                    <g id="Group_1150790" data-name="Group 1150790" transform="translate(3 2320)">
                      <g id="Group_1154214" data-name="Group 1154214" transform="translate(79 -5809)">
                        <g id="Group_1152583" data-name="Group 1152583" transform="translate(1043 6713)">
                          <g id="Group_1146973" data-name="Group 1146973" transform="translate(0 0)">
                            <g id="Group_1146954" data-name="Group 1146954">
                              <g transform="matrix(1, 0, 0, 1, -9, -6)" filter="url(#Path_982547)">
                                <g id="Path_982547-2" data-name="Path 982547" transform="translate(9 6)" fill="#e4f2f4">
                                  <path d="M 46 90.49987030029297 C 39.99187850952148 90.49987030029297 34.16426849365234 89.32350921630859 28.67905426025391 87.00345611572266 C 23.38019943237305 84.76224517822266 18.62104034423828 81.55341339111328 14.53374671936035 77.46613311767578 C 10.44646644592285 73.37885284423828 7.237639904022217 68.61969757080078 4.996413230895996 63.32085418701172 C 2.676359891891479 57.83565521240234 1.5 52.008056640625 1.5 45.99993515014648 C 1.5 39.99181365966797 2.676359891891479 34.16421508789062 4.996413230895996 28.67901420593262 C 7.237639904022217 23.38017463684082 10.44646644592285 18.62101554870605 14.53374671936035 14.53373527526855 C 18.62104034423828 10.44645500183105 23.38019943237305 7.23762845993042 28.67905426025391 4.996415138244629 C 34.16426849365234 2.676361799240112 39.99187850952148 1.500001788139343 46 1.500001788139343 C 52.00812149047852 1.500001788139343 57.83573150634766 2.676361799240112 63.32094573974609 4.996415138244629 C 68.61979675292969 7.23762845993042 73.37895965576172 10.44645500183105 77.46625518798828 14.53373527526855 C 81.55353546142578 18.62101554870605 84.76235961914062 23.38017463684082 87.00358581542969 28.67901420593262 C 89.32363891601562 34.16421508789062 90.5 39.99181365966797 90.5 45.99993515014648 C 90.5 52.008056640625 89.32363891601562 57.83565521240234 87.00358581542969 63.32085418701172 C 84.76235961914062 68.61969757080078 81.55353546142578 73.37885284423828 77.46625518798828 77.46613311767578 C 73.37895965576172 81.55341339111328 68.61979675292969 84.76224517822266 63.32094573974609 87.00345611572266 C 57.83573150634766 89.32350921630859 52.00812149047852 90.49987030029297 46 90.49987030029297 Z" stroke="none"/>
                                  <path d="M 46 2.999992370605469 C 40.1937141418457 2.999992370605469 34.56269836425781 4.136489868164062 29.26337051391602 6.377906799316406 C 24.14332580566406 8.543502807617188 19.54441070556641 11.64437866210938 15.59439849853516 15.59437561035156 C 11.64440155029297 19.54439544677734 8.54351806640625 24.14329528808594 6.377914428710938 29.26333618164062 C 4.136497497558594 34.56264877319336 3 40.19366455078125 3 45.99993515014648 C 3 51.80620574951172 4.136497497558594 57.43720626831055 6.377914428710938 62.73651885986328 C 8.54351806640625 67.8565673828125 11.64440155029297 72.45545959472656 15.59439849853516 76.40547943115234 C 19.54441070556641 80.35547637939453 24.14332580566406 83.45635223388672 29.26337051391602 85.6219482421875 C 34.56269836425781 87.86336517333984 40.1937141418457 88.99986267089844 46 88.99986267089844 C 51.8062858581543 88.99986267089844 57.43730163574219 87.86336517333984 62.73661422729492 85.6219482421875 C 67.85667419433594 83.45635223388672 72.45557403564453 80.35547637939453 76.40558624267578 76.40547943115234 C 80.35559844970703 72.45545959472656 83.45647430419922 67.8565673828125 85.6220703125 62.73651885986328 C 87.86350250244141 57.43720626831055 89 51.80620574951172 89 45.99993515014648 C 89 40.19366455078125 87.86350250244141 34.56264877319336 85.6220703125 29.26333618164062 C 83.45647430419922 24.14329528808594 80.35559844970703 19.54439544677734 76.40558624267578 15.59437561035156 C 72.45557403564453 11.64437866210938 67.85667419433594 8.543502807617188 62.73661422729492 6.377906799316406 C 57.43730163574219 4.136489868164062 51.8062858581543 2.999992370605469 46 2.999992370605469 M 46 -7.62939453125e-06 C 71.40509033203125 -7.62939453125e-06 92 20.59486389160156 92 45.99993515014648 C 92 71.40499114990234 71.40509033203125 91.99986267089844 46 91.99986267089844 C 20.59490203857422 91.99986267089844 0 71.40499114990234 0 45.99993515014648 C 0 20.59486389160156 20.59490203857422 -7.62939453125e-06 46 -7.62939453125e-06 Z" stroke="none" fill="#01899b"/>
                                </g>
                              </g>
                            </g>
                          </g>
                        </g>
                      </g>
                    </g>
                  </g>
                </g>
              </g>
            </g>
          </g>
        </g>
      </g>
      <g id="multinational_7408262" transform="translate(4880.5 5916)">
        <g id="Group_1173091" data-name="Group 1173091" transform="translate(7.5 20)">
          <path id="Path_1038900" data-name="Path 1038900" d="M60.546,101.093h0A26.546,26.546,0,0,1,34,74.546h0A26.546,26.546,0,0,1,60.546,48h0A26.546,26.546,0,0,1,87.093,74.546h0A26.546,26.546,0,0,1,60.546,101.093Z" transform="translate(-30.831 -44.652)" fill="#64caff"/>
          <path id="Path_1038901" data-name="Path 1038901" d="M269.34,74.546a26.545,26.545,0,0,1-26.546,26.546q-.9,0-1.794-.06a26.547,26.547,0,0,0,16.978-45.258A26.774,26.774,0,0,0,242.734,48h.06A26.545,26.545,0,0,1,269.34,74.546Z" transform="translate(-213.079 -44.652)" fill="#00b8ff"/>
          <path id="Path_1038902" data-name="Path 1038902" d="M374.991,97.745a26.526,26.526,0,0,1-1.083,7.53h-4.524a1.793,1.793,0,0,1-1.794-1.794v-5.2A1.794,1.794,0,0,0,365.8,96.49h-3A1.794,1.794,0,0,1,361,94.7V74.35a26.576,26.576,0,0,1,13.991,23.4Z" transform="translate(-318.729 -67.851)" fill="#fee45a"/>
          <path id="Path_1038903" data-name="Path 1038903" d="M374.991,97.745a26.526,26.526,0,0,1-1.083,7.53H370.32A26.568,26.568,0,0,0,361,76.67V74.35a26.576,26.576,0,0,1,13.991,23.4Z" transform="translate(-318.729 -67.851)" fill="#fed402"/>
          <path id="Path_1038904" data-name="Path 1038904" d="M131.165,366.11v4.6a26.561,26.561,0,0,1-30.6-4.722h5.852a1.794,1.794,0,0,0,1.794-1.794v-4.9A1.794,1.794,0,0,1,110,357.5h7.175a2.392,2.392,0,0,1,2.392,2.392v2.033a2.392,2.392,0,0,0,2.392,2.392h7.414A1.794,1.794,0,0,1,131.165,366.11Z" transform="translate(-89.432 -317.142)" fill="#e6f6ff"/>
          <path id="Path_1038905" data-name="Path 1038905" d="M254.811,449.61v2.2a26.414,26.414,0,0,1-12.018,2.871q-.9,0-1.794-.06A26.4,26.4,0,0,0,254.811,449.61Z" transform="translate(-213.079 -398.238)" fill="#d1edff"/>
          <path id="Path_1038906" data-name="Path 1038906" d="M60.486,48V62.782a1.794,1.794,0,0,1-1.8,1.794H49.124l-2.163,1.447v6.311a1.794,1.794,0,0,1-1.794,1.794h-2.82a1.794,1.794,0,0,0-1.794,1.794v2.392a1.794,1.794,0,0,1-1.794,1.794H34.584A26.552,26.552,0,0,1,60.486,48Z" transform="translate(-30.831 -44.652)" fill="#9ff497"/>
          <path id="Path_1038907" data-name="Path 1038907" d="M174.121,100h1.9a3.093,3.093,0,0,1,3.169,3.011h0a3.093,3.093,0,0,1-3.169,3.011h-2.035Z" transform="translate(-154.076 -90.434)" fill="#ffb09e"/>
          <path id="Path_1038908" data-name="Path 1038908" d="M12.559,100h-1.89A3.093,3.093,0,0,0,7.5,103.011h0a3.093,3.093,0,0,0,3.169,3.011H12.7Z" transform="translate(-7.5 -90.434)" fill="#ffb09e"/>
          <path id="Path_1038909" data-name="Path 1038909" d="M59.241,28.37v6.577a8.37,8.37,0,0,1-8.37,8.37h0a8.37,8.37,0,0,1-8.37-8.37V28.37A8.37,8.37,0,0,1,50.87,20h0A8.37,8.37,0,0,1,59.241,28.37Z" transform="translate(-38.315 -20)" fill="#ffcebf"/>
          <path id="Path_1038910" data-name="Path 1038910" d="M108.765,28.37v6.577A8.378,8.378,0,0,1,98.75,43.156a8.373,8.373,0,0,0,6.726-8.209V28.37a8.373,8.373,0,0,0-6.726-8.209,8.372,8.372,0,0,1,10.015,8.209Z" transform="translate(-87.839 -20)" fill="#ffb09e"/>
          <path id="Path_1038911" data-name="Path 1038911" d="M317.621,321.5h1.9a3.093,3.093,0,0,1,3.169,3.011h0a3.093,3.093,0,0,1-3.169,3.011h-2.035Z" transform="translate(-280.417 -285.447)" fill="#fab75f"/>
          <path id="Path_1038912" data-name="Path 1038912" d="M156.059,321.5h-1.89A3.093,3.093,0,0,0,151,324.511h0a3.093,3.093,0,0,0,3.169,3.011H156.2Z" transform="translate(-133.841 -285.447)" fill="#fab75f"/>
          <path id="Path_1038913" data-name="Path 1038913" d="M202.741,249.87v6.577a8.37,8.37,0,0,1-8.37,8.37h0a8.37,8.37,0,0,1-8.37-8.37V249.87a8.37,8.37,0,0,1,8.37-8.37h0A8.37,8.37,0,0,1,202.741,249.87Z" transform="translate(-164.655 -215.014)" fill="#ffc667"/>
          <path id="Path_1038914" data-name="Path 1038914" d="M252.265,249.87v6.577a8.378,8.378,0,0,1-10.015,8.209,8.373,8.373,0,0,0,6.726-8.209V249.87a8.373,8.373,0,0,0-6.726-8.209,8.372,8.372,0,0,1,10.015,8.209Z" transform="translate(-214.179 -215.014)" fill="#fab75f"/>
          <path id="Path_1038915" data-name="Path 1038915" d="M461.121,100h1.9a3.093,3.093,0,0,1,3.169,3.011h0a3.093,3.093,0,0,1-3.169,3.011h-2.035Z" transform="translate(-406.757 -90.434)" fill="#a4766e"/>
          <path id="Path_1038916" data-name="Path 1038916" d="M299.559,100h-1.89a3.093,3.093,0,0,0-3.169,3.011h0a3.093,3.093,0,0,0,3.169,3.011H299.7Z" transform="translate(-260.181 -90.434)" fill="#a4766e"/>
          <path id="Path_1038917" data-name="Path 1038917" d="M346.241,28.37v6.577a8.37,8.37,0,0,1-8.37,8.37h0a8.37,8.37,0,0,1-8.37-8.37V28.37A8.37,8.37,0,0,1,337.87,20h0A8.37,8.37,0,0,1,346.241,28.37Z" transform="translate(-290.996 -20)" fill="#bd8580"/>
          <path id="Path_1038918" data-name="Path 1038918" d="M395.765,28.37v6.577a8.378,8.378,0,0,1-10.015,8.209,8.373,8.373,0,0,0,6.726-8.209V28.37a8.373,8.373,0,0,0-6.726-8.209,8.372,8.372,0,0,1,10.015,8.209Z" transform="translate(-340.52 -20)" fill="#a4766e"/>
        </g>
        <g id="Group_1173092" data-name="Group 1173092" transform="translate(7.5 20)">
          <path id="Path_1038919" data-name="Path 1038919" d="M178.591,49.658A26.49,26.49,0,0,1,187.847,48h0a26.49,26.49,0,0,1,9.323,1.683" transform="translate(-158.132 -44.652)" fill="none" stroke="#000" stroke-linecap="round" stroke-linejoin="round" stroke-miterlimit="10" stroke-width="1.5"/>
          <path id="Path_1038920" data-name="Path 1038920" d="M78.846,212.788a26.456,26.456,0,0,1-18.3,7.315h0A26.546,26.546,0,0,1,34,193.556h0a26.463,26.463,0,0,1,2.107-10.382" transform="translate(-30.831 -163.662)" fill="none" stroke="#000" stroke-linecap="round" stroke-linejoin="round" stroke-miterlimit="10" stroke-width="1.5"/>
          <path id="Path_1038921" data-name="Path 1038921" d="M435.8,183.021a26.463,26.463,0,0,1,2.115,10.4h0a26.43,26.43,0,0,1-5.445,16.109" transform="translate(-381.65 -163.527)" fill="none" stroke="#000" stroke-linecap="round" stroke-linejoin="round" stroke-miterlimit="10" stroke-width="1.5"/>
          <path id="Path_1038922" data-name="Path 1038922" d="M184.121,100h.7a3.093,3.093,0,0,1,3.169,3.011h0a3.093,3.093,0,0,1-3.169,3.011h-.839" transform="translate(-162.88 -90.434)" fill="none" stroke="#000" stroke-linecap="round" stroke-linejoin="round" stroke-miterlimit="10" stroke-width="1.5"/>
          <path id="Path_1038923" data-name="Path 1038923" d="M11.363,100h-.694A3.093,3.093,0,0,0,7.5,103.011h0a3.093,3.093,0,0,0,3.169,3.011H11.5" transform="translate(-7.5 -90.434)" fill="none" stroke="#000" stroke-linecap="round" stroke-linejoin="round" stroke-miterlimit="10" stroke-width="1.5"/>
          <path id="Path_1038924" data-name="Path 1038924" d="M59.241,28.37v6.577a8.37,8.37,0,0,1-8.37,8.37h0a8.37,8.37,0,0,1-8.37-8.37V28.37A8.37,8.37,0,0,1,50.87,20h0A8.37,8.37,0,0,1,59.241,28.37Z" transform="translate(-38.315 -20)" fill="none" stroke="#000" stroke-linecap="round" stroke-linejoin="round" stroke-miterlimit="10" stroke-width="1.5"/>
          <line id="Line_1076" data-name="Line 1076" y1="1.905" transform="translate(17.145 12.382)" fill="none" stroke="#000" stroke-linecap="round" stroke-linejoin="round" stroke-miterlimit="10" stroke-width="1.5"/>
          <line id="Line_1077" data-name="Line 1077" y1="1.905" transform="translate(8.572 12.382)" fill="none" stroke="#000" stroke-linecap="round" stroke-linejoin="round" stroke-miterlimit="10" stroke-width="1.5"/>
          <path id="Path_1038925" data-name="Path 1038925" d="M94.483,165.635a3.993,3.993,0,0,1-2.839,1.18h0a3.993,3.993,0,0,1-2.833-1.173" transform="translate(-79.089 -148.22)" fill="none" stroke="#000" stroke-linecap="round" stroke-linejoin="round" stroke-miterlimit="10" stroke-width="1.5"/>
          <path id="Path_1038926" data-name="Path 1038926" d="M327.621,321.5h.7a3.093,3.093,0,0,1,3.169,3.011h0a3.093,3.093,0,0,1-3.169,3.011h-.839" transform="translate(-289.221 -285.447)" fill="none" stroke="#000" stroke-linecap="round" stroke-linejoin="round" stroke-miterlimit="10" stroke-width="1.5"/>
          <path id="Path_1038927" data-name="Path 1038927" d="M154.863,321.5h-.694A3.093,3.093,0,0,0,151,324.511h0a3.093,3.093,0,0,0,3.169,3.011H155" transform="translate(-133.841 -285.447)" fill="none" stroke="#000" stroke-linecap="round" stroke-linejoin="round" stroke-miterlimit="10" stroke-width="1.5"/>
          <path id="Path_1038928" data-name="Path 1038928" d="M202.741,249.87v6.577a8.37,8.37,0,0,1-8.37,8.37h0a8.37,8.37,0,0,1-8.37-8.37V249.87a8.37,8.37,0,0,1,8.37-8.37h0A8.37,8.37,0,0,1,202.741,249.87Z" transform="translate(-164.655 -215.014)" fill="none" stroke="#000" stroke-linecap="round" stroke-linejoin="round" stroke-miterlimit="10" stroke-width="1.5"/>
          <line id="Line_1078" data-name="Line 1078" y1="1.435" transform="translate(33.9 38.923)" fill="none" stroke="#000" stroke-linecap="round" stroke-linejoin="round" stroke-miterlimit="10" stroke-width="1.5"/>
          <line id="Line_1079" data-name="Line 1079" y1="1.435" transform="translate(25.53 38.923)" fill="none" stroke="#000" stroke-linecap="round" stroke-linejoin="round" stroke-miterlimit="10" stroke-width="1.5"/>
          <path id="Path_1038929" data-name="Path 1038929" d="M237.983,387.135a3.994,3.994,0,0,1-2.839,1.18h0a3.993,3.993,0,0,1-2.833-1.173" transform="translate(-205.429 -343.234)" fill="none" stroke="#000" stroke-linecap="round" stroke-linejoin="round" stroke-miterlimit="10" stroke-width="1.5"/>
          <path id="Path_1038930" data-name="Path 1038930" d="M471.121,100h.7a3.093,3.093,0,0,1,3.169,3.011h0a3.093,3.093,0,0,1-3.169,3.011h-.839" transform="translate(-415.562 -90.434)" fill="none" stroke="#000" stroke-linecap="round" stroke-linejoin="round" stroke-miterlimit="10" stroke-width="1.5"/>
          <path id="Path_1038931" data-name="Path 1038931" d="M298.363,100h-.694a3.093,3.093,0,0,0-3.169,3.011h0a3.093,3.093,0,0,0,3.169,3.011h.831" transform="translate(-260.181 -90.434)" fill="none" stroke="#000" stroke-linecap="round" stroke-linejoin="round" stroke-miterlimit="10" stroke-width="1.5"/>
          <path id="Path_1038932" data-name="Path 1038932" d="M346.241,28.37v6.577a8.37,8.37,0,0,1-8.37,8.37h0a8.37,8.37,0,0,1-8.37-8.37V28.37A8.37,8.37,0,0,1,337.87,20h0A8.37,8.37,0,0,1,346.241,28.37Z" transform="translate(-290.996 -20)" fill="none" stroke="#000" stroke-linecap="round" stroke-linejoin="round" stroke-miterlimit="10" stroke-width="1.5"/>
          <line id="Line_1080" data-name="Line 1080" y1="1.905" transform="translate(51.434 12.382)" fill="none" stroke="#000" stroke-linecap="round" stroke-linejoin="round" stroke-miterlimit="10" stroke-width="1.5"/>
          <line id="Line_1081" data-name="Line 1081" y1="1.905" transform="translate(42.862 12.382)" fill="none" stroke="#000" stroke-linecap="round" stroke-linejoin="round" stroke-miterlimit="10" stroke-width="1.5"/>
          <path id="Path_1038933" data-name="Path 1038933" d="M381.483,165.635a3.993,3.993,0,0,1-2.839,1.18h0a3.993,3.993,0,0,1-2.833-1.173" transform="translate(-331.77 -148.22)" fill="none" stroke="#000" stroke-linecap="round" stroke-linejoin="round" stroke-miterlimit="10" stroke-width="1.5"/>
          <line id="Line_1082" data-name="Line 1082" y1="7.904" transform="translate(29.655 3.468)" fill="none" stroke="#000" stroke-linecap="round" stroke-linejoin="round" stroke-miterlimit="10" stroke-width="1.5"/>
          <path id="Path_1038934" data-name="Path 1038934" d="M170.482,154.469h8.37a1.794,1.794,0,0,0,1.8-1.794V150.1" transform="translate(-150.993 -134.545)" fill="none" stroke="#000" stroke-linecap="round" stroke-linejoin="round" stroke-miterlimit="10" stroke-width="1.5"/>
          <path id="Path_1038935" data-name="Path 1038935" d="M42.5,222.886h3.744a1.794,1.794,0,0,0,1.794-1.794V218.7a1.794,1.794,0,0,1,1.794-1.794h2.82a1.794,1.794,0,0,0,1.794-1.794v-4.942" transform="translate(-38.315 -187.432)" fill="none" stroke="#000" stroke-linecap="round" stroke-linejoin="round" stroke-miterlimit="10" stroke-width="1.5"/>
          <path id="Path_1038936" data-name="Path 1038936" d="M361,204.965v4.728a1.794,1.794,0,0,0,1.794,1.794h3a1.794,1.794,0,0,1,1.794,1.794v5.2a1.794,1.794,0,0,0,1.794,1.794h4.524" transform="translate(-318.729 -182.847)" fill="none" stroke="#000" stroke-linecap="round" stroke-linejoin="round" stroke-miterlimit="10" stroke-width="1.5"/>
          <path id="Path_1038937" data-name="Path 1038937" d="M101.08,376.867h5.79a1.794,1.794,0,0,0,1.794-1.794v-4.9a1.8,1.8,0,0,1,.028-.316" transform="translate(-89.89 -328.019)" fill="none" stroke="#000" stroke-linecap="round" stroke-linejoin="round" stroke-miterlimit="10" stroke-width="1.5"/>
          <path id="Path_1038938" data-name="Path 1038938" d="M308.032,414.5h4a1.794,1.794,0,0,1,1.794,1.794v4.478" transform="translate(-272.095 -367.327)" fill="none" stroke="#000" stroke-linecap="round" stroke-linejoin="round" stroke-miterlimit="10" stroke-width="1.5"/>
        </g>
      </g>
    </g>
  </g>
</svg>
