<svg xmlns="http://www.w3.org/2000/svg" xmlns:xlink="http://www.w3.org/1999/xlink" width="110" height="110" viewBox="0 0 110 110">
  <defs>
    <filter id="Path_982547" x="0" y="0" width="110" height="110" filterUnits="userSpaceOnUse">
      <feOffset dy="3" input="SourceAlpha"/>
      <feGaussianBlur stdDeviation="3" result="blur"/>
      <feFlood flood-opacity="0.161"/>
      <feComposite operator="in" in2="blur"/>
      <feComposite in="SourceGraphic"/>
    </filter>
  </defs>
  <g id="Group_1173545" data-name="Group 1173545" transform="translate(-1106 -6047)">
    <g id="Group_1173052" data-name="Group 1173052">
      <g id="Group_1172121" data-name="Group 1172121" transform="translate(306 5225)">
        <g id="Group_1171414" data-name="Group 1171414" transform="translate(-0.701 -6107)">
          <g id="Group_1163801" data-name="Group 1163801" transform="translate(-0.299 2285)">
            <g id="Group_1163014" data-name="Group 1163014" transform="translate(1 306)">
              <g id="Group_1157015" data-name="Group 1157015" transform="translate(0 3549)">
                <g id="Group_1155792" data-name="Group 1155792" transform="translate(-1 -3894.666)">
                  <g id="Group_1154703" data-name="Group 1154703" transform="translate(0 1465.666)">
                    <g id="Group_1150789" data-name="Group 1150789" transform="translate(3 2320)">
                      <g id="Group_1154212" data-name="Group 1154212" transform="translate(-236 -5809)">
                        <g id="Group_1152583" data-name="Group 1152583" transform="translate(1043 6713)">
                          <g id="Group_1146973" data-name="Group 1146973" transform="translate(0 0)">
                            <g id="Group_1146954" data-name="Group 1146954">
                              <g transform="matrix(1, 0, 0, 1, -9, -6)" filter="url(#Path_982547)">
                                <g id="Path_982547-2" data-name="Path 982547" transform="translate(9 6)" fill="#e4f2f4">
                                  <path d="M 46 90.49987030029297 C 39.99187850952148 90.49987030029297 34.16426849365234 89.32350921630859 28.67905426025391 87.00345611572266 C 23.38019943237305 84.76224517822266 18.62104034423828 81.55341339111328 14.53374671936035 77.46613311767578 C 10.44646644592285 73.37885284423828 7.237639904022217 68.61969757080078 4.996413230895996 63.32085418701172 C 2.676359891891479 57.83565521240234 1.5 52.008056640625 1.5 45.99993515014648 C 1.5 39.99181365966797 2.676359891891479 34.16421508789062 4.996413230895996 28.67901420593262 C 7.237639904022217 23.38017463684082 10.44646644592285 18.62101554870605 14.53374671936035 14.53373527526855 C 18.62104034423828 10.44645500183105 23.38019943237305 7.23762845993042 28.67905426025391 4.996415138244629 C 34.16426849365234 2.676361799240112 39.99187850952148 1.500001788139343 46 1.500001788139343 C 52.00812149047852 1.500001788139343 57.83573150634766 2.676361799240112 63.32094573974609 4.996415138244629 C 68.61979675292969 7.23762845993042 73.37895965576172 10.44645500183105 77.46625518798828 14.53373527526855 C 81.55353546142578 18.62101554870605 84.76235961914062 23.38017463684082 87.00358581542969 28.67901420593262 C 89.32363891601562 34.16421508789062 90.5 39.99181365966797 90.5 45.99993515014648 C 90.5 52.008056640625 89.32363891601562 57.83565521240234 87.00358581542969 63.32085418701172 C 84.76235961914062 68.61969757080078 81.55353546142578 73.37885284423828 77.46625518798828 77.46613311767578 C 73.37895965576172 81.55341339111328 68.61979675292969 84.76224517822266 63.32094573974609 87.00345611572266 C 57.83573150634766 89.32350921630859 52.00812149047852 90.49987030029297 46 90.49987030029297 Z" stroke="none"/>
                                  <path d="M 46 2.999992370605469 C 40.1937141418457 2.999992370605469 34.56269836425781 4.136489868164062 29.26337051391602 6.377906799316406 C 24.14332580566406 8.543502807617188 19.54441070556641 11.64437866210938 15.59439849853516 15.59437561035156 C 11.64440155029297 19.54439544677734 8.54351806640625 24.14329528808594 6.377914428710938 29.26333618164062 C 4.136497497558594 34.56264877319336 3 40.19366455078125 3 45.99993515014648 C 3 51.80620574951172 4.136497497558594 57.43720626831055 6.377914428710938 62.73651885986328 C 8.54351806640625 67.8565673828125 11.64440155029297 72.45545959472656 15.59439849853516 76.40547943115234 C 19.54441070556641 80.35547637939453 24.14332580566406 83.45635223388672 29.26337051391602 85.6219482421875 C 34.56269836425781 87.86336517333984 40.1937141418457 88.99986267089844 46 88.99986267089844 C 51.8062858581543 88.99986267089844 57.43730163574219 87.86336517333984 62.73661422729492 85.6219482421875 C 67.85667419433594 83.45635223388672 72.45557403564453 80.35547637939453 76.40558624267578 76.40547943115234 C 80.35559844970703 72.45545959472656 83.45647430419922 67.8565673828125 85.6220703125 62.73651885986328 C 87.86350250244141 57.43720626831055 89 51.80620574951172 89 45.99993515014648 C 89 40.19366455078125 87.86350250244141 34.56264877319336 85.6220703125 29.26333618164062 C 83.45647430419922 24.14329528808594 80.35559844970703 19.54439544677734 76.40558624267578 15.59437561035156 C 72.45557403564453 11.64437866210938 67.85667419433594 8.543502807617188 62.73661422729492 6.377906799316406 C 57.43730163574219 4.136489868164062 51.8062858581543 2.999992370605469 46 2.999992370605469 M 46 -7.62939453125e-06 C 71.40509033203125 -7.62939453125e-06 92 20.59486389160156 92 45.99993515014648 C 92 71.40499114990234 71.40509033203125 91.99986267089844 46 91.99986267089844 C 20.59490203857422 91.99986267089844 0 71.40499114990234 0 45.99993515014648 C 0 20.59486389160156 20.59490203857422 -7.62939453125e-06 46 -7.62939453125e-06 Z" stroke="none" fill="#01899b"/>
                                </g>
                              </g>
                            </g>
                          </g>
                        </g>
                      </g>
                    </g>
                  </g>
                </g>
              </g>
            </g>
          </g>
        </g>
      </g>
      <g id="protest_12022841" transform="translate(1132.75 6070.75)">
        <path id="Path_1038717" data-name="Path 1038717" d="M36.119,55.119H24.749V52.5l-.724-.724A3.5,3.5,0,0,1,23,49.3V42H33.5v2.624h5.248v4.25a3.5,3.5,0,0,1-1.558,2.911l-1.066.711Z" transform="translate(-2.852 -5.234)" fill="#fdc7aa"/>
        <path id="Path_1038718" data-name="Path 1038718" d="M33.654,49.684A.656.656,0,0,1,33,49.028a5.567,5.567,0,0,1,.454-2.187h-.017A3.94,3.94,0,0,1,29.5,42.906a.656.656,0,1,1,1.312,0,2.624,2.624,0,0,0,2.624,2.624h2.407l-.74,1.037a4.276,4.276,0,0,0-.792,2.461.656.656,0,0,1-.656.656Z" transform="translate(-3.667 -5.266)" fill="#f7bd9d"/>
        <rect id="Rectangle_414517" data-name="Rectangle 414517" width="3.498" height="6.997" rx="1.749" transform="translate(27.145 39.389) rotate(180)" fill="#f7bd9d"/>
        <path id="Path_1038719" data-name="Path 1038719" d="M28.906,37a1.741,1.741,0,0,0-.656.129,1.749,1.749,0,0,1,1.093,1.62v3.5a1.749,1.749,0,0,1-1.093,1.62,1.749,1.749,0,0,0,2.405-1.62v-3.5A1.749,1.749,0,0,0,28.906,37Z" transform="translate(-3.511 -4.608)" fill="#f2ad8c"/>
        <rect id="Rectangle_414518" data-name="Rectangle 414518" width="3.498" height="6.122" rx="1.749" transform="translate(23.646 39.389) rotate(180)" fill="#f7bd9d"/>
        <path id="Path_1038720" data-name="Path 1038720" d="M24.906,38a1.741,1.741,0,0,0-.656.129,1.749,1.749,0,0,1,1.093,1.62v2.624a1.749,1.749,0,0,1-1.093,1.62,1.749,1.749,0,0,0,2.405-1.62V39.749A1.749,1.749,0,0,0,24.906,38Z" transform="translate(-3.009 -4.733)" fill="#f2ad8c"/>
        <rect id="Rectangle_414519" data-name="Rectangle 414519" width="3.498" height="6.997" rx="1.749" transform="translate(34.142 39.389) rotate(180)" fill="#f7bd9d"/>
        <path id="Path_1038721" data-name="Path 1038721" d="M36.906,37a1.741,1.741,0,0,0-.656.129,1.749,1.749,0,0,1,1.093,1.62v3.5a1.749,1.749,0,0,1-1.093,1.62,1.749,1.749,0,0,0,2.405-1.62v-3.5A1.749,1.749,0,0,0,36.906,37Z" transform="translate(-4.514 -4.608)" fill="#f2ad8c"/>
        <rect id="Rectangle_414520" data-name="Rectangle 414520" width="3.498" height="7.872" rx="1.749" transform="translate(30.643 39.389) rotate(180)" fill="#f7bd9d"/>
        <path id="Path_1038722" data-name="Path 1038722" d="M32.906,36a1.741,1.741,0,0,0-.656.129,1.749,1.749,0,0,1,1.093,1.62v4.373a1.749,1.749,0,0,1-1.093,1.62,1.749,1.749,0,0,0,2.405-1.62V37.749A1.749,1.749,0,0,0,32.906,36Z" transform="translate(-4.012 -4.482)" fill="#f2ad8c"/>
        <path id="Path_1038723" data-name="Path 1038723" d="M34.5,49a4.223,4.223,0,0,1,1.237-2.986l.512-.512H33.624A2.624,2.624,0,0,1,31,42.875V42h7a1.749,1.749,0,0,1,1.749,1.749v4.81" transform="translate(-3.855 -5.234)" fill="#fdc7aa"/>
        <path id="Path_1038724" data-name="Path 1038724" d="M24,57H37.119v5.248H24Z" transform="translate(-2.978 -7.115)" fill="#a3cbf7"/>
        <path id="Path_1038725" data-name="Path 1038725" d="M26,59H37.37v3.5H26Z" transform="translate(-3.228 -7.366)" fill="#8cbef5"/>
        <path id="Path_1038726" data-name="Path 1038726" d="M43.239,4.5V18.492a3.5,3.5,0,0,1-3.5,3.5H25.746v4.373l-3.5-4.373H20.5a3.5,3.5,0,0,1-3.5-3.5V4.5A3.5,3.5,0,0,1,20.5,1H39.74A3.5,3.5,0,0,1,43.239,4.5Z" transform="translate(-2.1 -0.094)" fill="#a3cbf7"/>
        <path id="Path_1038727" data-name="Path 1038727" d="M43.489,6.5V18.743a3.5,3.5,0,0,1-3.5,3.5H26v4.373l-3.5-4.373h-.875A2.624,2.624,0,0,1,19,19.618V5.624A2.624,2.624,0,0,1,21.624,3H39.991A3.5,3.5,0,0,1,43.489,6.5Z" transform="translate(-2.351 -0.345)" fill="#8cbef5"/>
        <path id="Path_1038728" data-name="Path 1038728" d="M58.119,45.119H46.749V42.5l-.724-.724A3.5,3.5,0,0,1,45,39.3V32H55.5v2.624h5.248v4.25a3.5,3.5,0,0,1-1.558,2.911l-1.066.711Z" transform="translate(-5.611 -3.981)" fill="#fdc7aa"/>
        <path id="Path_1038729" data-name="Path 1038729" d="M55.654,39.684A.656.656,0,0,1,55,39.028a5.567,5.567,0,0,1,.454-2.187h-.017A3.94,3.94,0,0,1,51.5,32.906a.656.656,0,1,1,1.312,0,2.624,2.624,0,0,0,2.624,2.624h2.407l-.74,1.037a4.276,4.276,0,0,0-.792,2.461.656.656,0,0,1-.656.656Z" transform="translate(-6.426 -4.012)" fill="#f7bd9d"/>
        <rect id="Rectangle_414521" data-name="Rectangle 414521" width="3.498" height="6.997" rx="1.749" transform="translate(46.386 30.643) rotate(180)" fill="#f7bd9d"/>
        <path id="Path_1038730" data-name="Path 1038730" d="M50.906,27a1.741,1.741,0,0,0-.656.129,1.749,1.749,0,0,1,1.093,1.62v3.5a1.749,1.749,0,0,1-1.093,1.62,1.749,1.749,0,0,0,2.405-1.62v-3.5A1.749,1.749,0,0,0,50.906,27Z" transform="translate(-6.269 -3.354)" fill="#f2ad8c"/>
        <rect id="Rectangle_414522" data-name="Rectangle 414522" width="3.498" height="6.122" rx="1.749" transform="translate(42.888 30.643) rotate(180)" fill="#f7bd9d"/>
        <path id="Path_1038731" data-name="Path 1038731" d="M46.906,28a1.741,1.741,0,0,0-.656.129,1.749,1.749,0,0,1,1.093,1.62v2.624a1.749,1.749,0,0,1-1.093,1.62,1.749,1.749,0,0,0,2.405-1.62V29.749A1.749,1.749,0,0,0,46.906,28Z" transform="translate(-5.767 -3.479)" fill="#f2ad8c"/>
        <rect id="Rectangle_414523" data-name="Rectangle 414523" width="3.498" height="6.997" rx="1.749" transform="translate(53.383 30.643) rotate(180)" fill="#f7bd9d"/>
        <path id="Path_1038732" data-name="Path 1038732" d="M58.906,27a1.741,1.741,0,0,0-.656.129,1.749,1.749,0,0,1,1.093,1.62v3.5a1.749,1.749,0,0,1-1.093,1.62,1.749,1.749,0,0,0,2.405-1.62v-3.5A1.749,1.749,0,0,0,58.906,27Z" transform="translate(-7.272 -3.354)" fill="#f2ad8c"/>
        <rect id="Rectangle_414524" data-name="Rectangle 414524" width="3.498" height="7.872" rx="1.749" transform="translate(49.885 30.643) rotate(180)" fill="#f7bd9d"/>
        <path id="Path_1038733" data-name="Path 1038733" d="M54.906,26a1.74,1.74,0,0,0-.656.129,1.749,1.749,0,0,1,1.093,1.62v4.373a1.749,1.749,0,0,1-1.093,1.62,1.749,1.749,0,0,0,2.405-1.62V27.749A1.749,1.749,0,0,0,54.906,26Z" transform="translate(-6.77 -3.228)" fill="#f2ad8c"/>
        <path id="Path_1038734" data-name="Path 1038734" d="M56.5,39a4.223,4.223,0,0,1,1.237-2.986l.512-.512H55.624A2.624,2.624,0,0,1,53,32.875V32h7a1.749,1.749,0,0,1,1.749,1.749v4.81" transform="translate(-6.614 -3.981)" fill="#fdc7aa"/>
        <path id="Path_1038735" data-name="Path 1038735" d="M46,47H59.119V60.994H46Z" transform="translate(-5.736 -5.861)" fill="#f36b87"/>
        <path id="Path_1038736" data-name="Path 1038736" d="M48,49H59.37V61.245H48Z" transform="translate(-5.987 -6.112)" fill="#f04669"/>
        <path id="Path_1038737" data-name="Path 1038737" d="M14.119,45.119H2.749V42.5l-.724-.724A3.5,3.5,0,0,1,1,39.3V32H11.5v2.624h5.248v4.25a3.5,3.5,0,0,1-1.558,2.911l-1.066.711Z" transform="translate(-0.094 -3.981)" fill="#fdc7aa"/>
        <path id="Path_1038738" data-name="Path 1038738" d="M11.654,39.684A.656.656,0,0,1,11,39.028a5.567,5.567,0,0,1,.454-2.187h-.017A3.94,3.94,0,0,1,7.5,32.906a.656.656,0,1,1,1.312,0,2.624,2.624,0,0,0,2.624,2.624h2.407l-.74,1.037a4.276,4.276,0,0,0-.792,2.461.656.656,0,0,1-.656.656Z" transform="translate(-0.909 -4.012)" fill="#f7bd9d"/>
        <rect id="Rectangle_414525" data-name="Rectangle 414525" width="3.498" height="6.997" rx="1.749" transform="translate(7.903 30.643) rotate(180)" fill="#f7bd9d"/>
        <path id="Path_1038739" data-name="Path 1038739" d="M6.906,27a1.741,1.741,0,0,0-.656.129,1.749,1.749,0,0,1,1.093,1.62v3.5a1.749,1.749,0,0,1-1.093,1.62,1.749,1.749,0,0,0,2.405-1.62v-3.5A1.749,1.749,0,0,0,6.906,27Z" transform="translate(-0.752 -3.354)" fill="#f2ad8c"/>
        <rect id="Rectangle_414526" data-name="Rectangle 414526" width="3.498" height="6.122" rx="1.749" transform="translate(4.404 30.643) rotate(180)" fill="#f7bd9d"/>
        <path id="Path_1038740" data-name="Path 1038740" d="M2.906,28a1.741,1.741,0,0,0-.656.129,1.749,1.749,0,0,1,1.093,1.62v2.624a1.749,1.749,0,0,1-1.093,1.62,1.749,1.749,0,0,0,2.405-1.62V29.749A1.749,1.749,0,0,0,2.906,28Z" transform="translate(-0.251 -3.479)" fill="#f2ad8c"/>
        <rect id="Rectangle_414527" data-name="Rectangle 414527" width="3.498" height="6.997" rx="1.749" transform="translate(14.9 30.643) rotate(180)" fill="#f7bd9d"/>
        <path id="Path_1038741" data-name="Path 1038741" d="M14.906,27a1.741,1.741,0,0,0-.656.129,1.749,1.749,0,0,1,1.093,1.62v3.5a1.749,1.749,0,0,1-1.093,1.62,1.749,1.749,0,0,0,2.405-1.62v-3.5A1.749,1.749,0,0,0,14.906,27Z" transform="translate(-1.755 -3.354)" fill="#f2ad8c"/>
        <rect id="Rectangle_414528" data-name="Rectangle 414528" width="3.498" height="7.872" rx="1.749" transform="translate(11.401 30.643) rotate(180)" fill="#f7bd9d"/>
        <path id="Path_1038742" data-name="Path 1038742" d="M10.906,26a1.74,1.74,0,0,0-.656.129,1.749,1.749,0,0,1,1.093,1.62v4.373a1.749,1.749,0,0,1-1.093,1.62,1.749,1.749,0,0,0,2.405-1.62V27.749A1.749,1.749,0,0,0,10.906,26Z" transform="translate(-1.254 -3.228)" fill="#f2ad8c"/>
        <path id="Path_1038743" data-name="Path 1038743" d="M12.5,39a4.223,4.223,0,0,1,1.237-2.986l.512-.512H11.624A2.624,2.624,0,0,1,9,32.875V32h7a1.749,1.749,0,0,1,1.749,1.749v4.81" transform="translate(-1.097 -3.981)" fill="#fdc7aa"/>
        <path id="Path_1038744" data-name="Path 1038744" d="M2,47H15.119V60.994H2Z" transform="translate(-0.219 -5.861)" fill="#ffe350"/>
        <path id="Path_1038745" data-name="Path 1038745" d="M4,49H15.37V61.245H4Z" transform="translate(-0.47 -6.112)" fill="#ffcd2a"/>
        <path id="Path_1038746" data-name="Path 1038746" d="M43.8,18.4V4.4A4.154,4.154,0,0,0,39.646.25H20.4A4.154,4.154,0,0,0,16.25,4.4V18.4A4.154,4.154,0,0,0,20.4,22.553h1.434l3.3,4.126a.656.656,0,0,0,1.168-.409V22.553H39.646A4.154,4.154,0,0,0,43.8,18.4Zm-1.312,0a2.843,2.843,0,0,1-2.843,2.843H25.652A.656.656,0,0,0,25,21.9v2.5l-2.33-2.913a.659.659,0,0,0-.513-.246H20.4A2.843,2.843,0,0,1,17.562,18.4V4.4A2.843,2.843,0,0,1,20.4,1.562H39.646A2.843,2.843,0,0,1,42.489,4.4Z" transform="translate(-2.006)"/>
        <path id="Path_1038747" data-name="Path 1038747" d="M33.368,15.278a1.267,1.267,0,0,0-2.489,0l-1.354,4.694a.656.656,0,1,0,1.261.364l.241-.838H33.22l.241.838a.656.656,0,0,0,1.261-.364Zm-1.963,2.908.718-2.493.718,2.489Z" transform="translate(-3.667 -1.755)"/>
        <path id="Path_1038748" data-name="Path 1038748" d="M25.756,14.611l-1.05,2.106-1.05-2.106a.656.656,0,0,0-1.238.213l-.656,5.248a.656.656,0,0,0,1.3.163l.387-3.1.671,1.342a.656.656,0,0,0,1.174,0l.671-1.342.387,3.1a.656.656,0,1,0,1.3-.163L27,14.824a.656.656,0,0,0-1.245-.213Z" transform="translate(-2.697 -1.754)"/>
        <path id="Path_1038749" data-name="Path 1038749" d="M40.785,14.35a.656.656,0,0,0-.9.209L38.8,16.292l-1.085-1.736a.657.657,0,0,0-1.113.7l1.423,2.274L36.6,19.8a.656.656,0,0,0,1.113.7l3.28-5.248a.656.656,0,0,0-.206-.9Z" transform="translate(-4.545 -1.755)"/>
        <path id="Path_1038750" data-name="Path 1038750" d="M30.406,9.5a.656.656,0,1,0,0,1.312H33.03a.656.656,0,1,0,0-1.312h-.656V4.906a.656.656,0,0,0-.656-.656H30.406a.656.656,0,1,0,0,1.312h.656V9.5Z" transform="translate(-3.699 -0.502)"/>
        <path id="Path_1038751" data-name="Path 1038751" d="M37.556,40.6V38.53a2.4,2.4,0,0,0-3.776-1.972,2.385,2.385,0,0,0-4.256,0,2.385,2.385,0,0,0-3.5.875A2.4,2.4,0,0,0,22.25,39.4v9.046a4.127,4.127,0,0,0,1.217,2.936l.533.533v1.7h-.219a.656.656,0,0,0-.656.656v5.248a.656.656,0,0,0,.656.656H36.9a.656.656,0,0,0,.656-.656V54.273a.656.656,0,0,0-.656-.656h-.219V52l.774-.515a4.149,4.149,0,0,0,1.85-3.457V42.9A2.4,2.4,0,0,0,37.556,40.6Zm-3.5-2.07a1.093,1.093,0,0,1,2.187,0V40.5H34.057Zm-3.5-.875a1.093,1.093,0,1,1,2.187,0V40.5H30.559Zm-3.5.875a1.093,1.093,0,0,1,2.187,0v3.5a1.093,1.093,0,1,1-2.187,0Zm-3.5.875a1.093,1.093,0,0,1,2.187,0v2.624a1.093,1.093,0,1,1-2.187,0Zm12.682,19.46H24.437V54.929H36.244Zm1.749-10.837a2.836,2.836,0,0,1-1.265,2.361l-1.066.711a.655.655,0,0,0-.292.549v1.968H25.311V51.649a.653.653,0,0,0-.192-.464l-.724-.724a2.826,2.826,0,0,1-.833-2.012V44.158a2.355,2.355,0,0,0,2.843-.489,2.378,2.378,0,0,0,3.368.126,3.272,3.272,0,0,0,2.754,1.513h1.137a4.916,4.916,0,0,0-.918,2.843.656.656,0,1,0,1.312,0A3.6,3.6,0,0,1,35.1,45.628l.513-.513A.656.656,0,0,0,35.151,44H32.527a1.971,1.971,0,0,1-1.968-1.968V41.81H36.9A1.1,1.1,0,0,1,37.993,42.9Z" transform="translate(-2.758 -4.388)"/>
        <path id="Path_1038752" data-name="Path 1038752" d="M59.556,30.6V28.53a2.4,2.4,0,0,0-3.776-1.972,2.385,2.385,0,0,0-4.256,0,2.385,2.385,0,0,0-3.5.875A2.4,2.4,0,0,0,44.25,29.4v9.046a4.127,4.127,0,0,0,1.217,2.936l.533.533v1.7h-.219a.656.656,0,0,0-.656.656V58.267a.656.656,0,0,0,.656.656H58.9a.656.656,0,0,0,.656-.656V44.273a.656.656,0,0,0-.656-.656h-.219V42l.774-.515a4.149,4.149,0,0,0,1.85-3.457V32.9a2.4,2.4,0,0,0-1.749-2.3Zm-3.5-2.07a1.093,1.093,0,1,1,2.187,0V30.5H56.057Zm-3.5-.875a1.093,1.093,0,0,1,2.187,0V30.5H52.559Zm-3.5.875a1.093,1.093,0,1,1,2.187,0v3.5a1.093,1.093,0,1,1-2.187,0Zm-3.5.875a1.093,1.093,0,0,1,2.187,0v2.624a1.093,1.093,0,1,1-2.187,0ZM58.244,57.611H46.437V44.929H58.244Zm1.749-19.584a2.836,2.836,0,0,1-1.265,2.361l-1.066.711a.655.655,0,0,0-.292.549v1.968H47.311V41.649a.653.653,0,0,0-.192-.464l-.724-.724a2.826,2.826,0,0,1-.833-2.012V34.158a2.355,2.355,0,0,0,2.843-.489,2.378,2.378,0,0,0,3.368.126,3.272,3.272,0,0,0,2.754,1.513h1.137a4.916,4.916,0,0,0-.918,2.843.656.656,0,1,0,1.312,0A3.6,3.6,0,0,1,57.1,35.628l.513-.513A.656.656,0,0,0,57.151,34H54.527a1.971,1.971,0,0,1-1.968-1.968V31.81H58.9A1.1,1.1,0,0,1,59.993,32.9Z" transform="translate(-5.517 -3.134)"/>
        <path id="Path_1038753" data-name="Path 1038753" d="M15.556,30.6V28.53a2.4,2.4,0,0,0-3.776-1.972,2.385,2.385,0,0,0-4.256,0,2.385,2.385,0,0,0-3.5.875A2.4,2.4,0,0,0,.25,29.4v9.046a4.127,4.127,0,0,0,1.217,2.936L2,41.919v1.7H1.781a.656.656,0,0,0-.656.656V58.267a.656.656,0,0,0,.656.656H14.9a.656.656,0,0,0,.656-.656V44.273a.656.656,0,0,0-.656-.656h-.219V42l.774-.515a4.149,4.149,0,0,0,1.85-3.457V32.9a2.4,2.4,0,0,0-1.749-2.3Zm-3.5-2.07a1.093,1.093,0,1,1,2.187,0V30.5H12.057Zm-3.5-.875a1.093,1.093,0,0,1,2.187,0V30.5H8.559Zm-3.5.875a1.093,1.093,0,1,1,2.187,0v3.5a1.093,1.093,0,1,1-2.187,0Zm-3.5.875a1.093,1.093,0,0,1,2.187,0v2.624a1.093,1.093,0,1,1-2.187,0ZM14.244,57.611H2.437V44.929H14.244Zm1.749-19.584a2.836,2.836,0,0,1-1.265,2.361l-1.066.711a.655.655,0,0,0-.292.549v1.968H3.311V41.649a.653.653,0,0,0-.192-.464l-.726-.724A2.826,2.826,0,0,1,1.56,38.45V34.158A2.355,2.355,0,0,0,4.4,33.669a2.378,2.378,0,0,0,3.368.126,3.272,3.272,0,0,0,2.754,1.513h1.137a4.916,4.916,0,0,0-.918,2.843.656.656,0,0,0,1.312,0A3.6,3.6,0,0,1,13.1,35.628l.513-.513A.656.656,0,0,0,13.151,34H10.527a1.971,1.971,0,0,1-1.968-1.968V31.81H14.9A1.1,1.1,0,0,1,15.993,32.9Z" transform="translate(0 -3.134)"/>
      </g>
    </g>
  </g>
</svg>
