<svg xmlns="http://www.w3.org/2000/svg" xmlns:xlink="http://www.w3.org/1999/xlink" width="113" height="113" viewBox="0 0 113 113">
  <defs>
    <filter id="Path_982547" x="0" y="0" width="113" height="113" filterUnits="userSpaceOnUse">
      <feOffset dy="3" input="SourceAlpha"/>
      <feGaussianBlur stdDeviation="3" result="blur"/>
      <feFlood flood-opacity="0.161"/>
      <feComposite operator="in" in2="blur"/>
      <feComposite in="SourceGraphic"/>
    </filter>
  </defs>
  <g id="Group_1173531" data-name="Group 1173531" transform="translate(-196 -2094)">
    <g id="Group_1172087" data-name="Group 1172087" transform="translate(205 2100)">
      <g id="Group_1171485" data-name="Group 1171485">
        <g id="Group_1167519" data-name="Group 1167519" transform="translate(0)">
          <g id="Group_1166845" data-name="Group 1166845">
            <g id="Group_1166720" data-name="Group 1166720">
              <g id="Group_1164305" data-name="Group 1164305">
                <g id="Group_1163948" data-name="Group 1163948">
                  <g id="Group_1158168" data-name="Group 1158168">
                    <g id="Group_1152576" data-name="Group 1152576">
                      <g id="Group_1148633" data-name="Group 1148633">
                        <g id="Group_1148525" data-name="Group 1148525">
                          <g transform="matrix(1, 0, 0, 1, -9, -6)" filter="url(#Path_982547)">
                            <g id="Path_982547-2" data-name="Path 982547" transform="translate(9 6)" fill="#fdf6ea">
                              <path d="M 47.5 93.5 C 41.28937149047852 93.5 35.26533508300781 92.28397369384766 29.59518623352051 89.88570404052734 C 24.11771965026855 87.56893157958984 19.19813346862793 84.25196075439453 14.97309303283691 80.02691650390625 C 10.74804019927979 75.80186462402344 7.431066513061523 70.88229370117188 5.114293098449707 65.40481567382812 C 2.716026782989502 59.73468017578125 1.5 53.71062850952148 1.5 47.5 C 1.5 41.28937149047852 2.716026782989502 35.26533508300781 5.114293098449707 29.59518623352051 C 7.431066513061523 24.11771965026855 10.74804019927979 19.19813346862793 14.97309303283691 14.97309303283691 C 19.19813346862793 10.74804019927979 24.11771965026855 7.431066513061523 29.59518623352051 5.114293098449707 C 35.26533508300781 2.716026782989502 41.28937149047852 1.5 47.5 1.5 C 53.71062850952148 1.5 59.73468017578125 2.716026782989502 65.40481567382812 5.114293098449707 C 70.88229370117188 7.431066513061523 75.80186462402344 10.74804019927979 80.02691650390625 14.97309303283691 C 84.25196075439453 19.19813346862793 87.56893157958984 24.11771965026855 89.88570404052734 29.59518623352051 C 92.28397369384766 35.26533508300781 93.5 41.28937149047852 93.5 47.5 C 93.5 53.71062850952148 92.28397369384766 59.73468017578125 89.88570404052734 65.40481567382812 C 87.56893157958984 70.88229370117188 84.25196075439453 75.80186462402344 80.02691650390625 80.02691650390625 C 75.80186462402344 84.25196075439453 70.88229370117188 87.56893157958984 65.40481567382812 89.88570404052734 C 59.73468017578125 92.28397369384766 53.71062850952148 93.5 47.5 93.5 Z" stroke="none"/>
                              <path d="M 47.5 3 C 41.49121475219727 3 35.66376876831055 4.176155090332031 30.17950439453125 6.495796203613281 C 24.88084411621094 8.736953735351562 20.12152099609375 11.94598388671875 16.03375244140625 16.03375244140625 C 11.94598388671875 20.12152099609375 8.736953735351562 24.88084411621094 6.495796203613281 30.17950439453125 C 4.176155090332031 35.66376876831055 3 41.49121475219727 3 47.5 C 3 53.50878524780273 4.176155090332031 59.33623123168945 6.495796203613281 64.82049560546875 C 8.736953735351562 70.11915588378906 11.94598388671875 74.87847900390625 16.03375244140625 78.96624755859375 C 20.12152099609375 83.05401611328125 24.88084411621094 86.26304626464844 30.17950439453125 88.50419616699219 C 35.66376876831055 90.82384490966797 41.49121475219727 92 47.5 92 C 53.50878524780273 92 59.33623123168945 90.82384490966797 64.82049560546875 88.50419616699219 C 70.11915588378906 86.26304626464844 74.87847900390625 83.05401611328125 78.96624755859375 78.96624755859375 C 83.05401611328125 74.87847900390625 86.26304626464844 70.11915588378906 88.50419616699219 64.82049560546875 C 90.82384490966797 59.33623123168945 92 53.50878524780273 92 47.5 C 92 41.49121475219727 90.82384490966797 35.66376876831055 88.50419616699219 30.17950439453125 C 86.26304626464844 24.88084411621094 83.05401611328125 20.12152099609375 78.96624755859375 16.03375244140625 C 74.87847900390625 11.94598388671875 70.11915588378906 8.736953735351562 64.82049560546875 6.495796203613281 C 59.33623123168945 4.176155090332031 53.50878524780273 3 47.5 3 M 47.5 0 C 73.7335205078125 0 95 21.2664794921875 95 47.5 C 95 73.7335205078125 73.7335205078125 95 47.5 95 C 21.2664794921875 95 0 73.7335205078125 0 47.5 C 0 21.2664794921875 21.2664794921875 0 47.5 0 Z" stroke="none" fill="#edae3b"/>
                            </g>
                          </g>
                        </g>
                      </g>
                    </g>
                  </g>
                </g>
              </g>
            </g>
          </g>
        </g>
      </g>
    </g>
    <g id="working" transform="translate(222.579 2117.001)">
      <g id="Group_1172657" data-name="Group 1172657" transform="translate(1.285 0.863)">
        <path id="Path_1027102" data-name="Path 1027102" d="M170.754,118.762H149.215a1.737,1.737,0,0,0-1.737,1.737v1.925a1.737,1.737,0,0,0,1.737,1.737h21.539a1.737,1.737,0,0,0,1.737-1.737V120.5A1.737,1.737,0,0,0,170.754,118.762Z" transform="translate(-131.395 -105.94)" fill="#f6e2bf"/>
        <g id="Group_1172648" data-name="Group 1172648" transform="translate(3.31)">
          <path id="Path_1027103" data-name="Path 1027103" d="M80.113,295.341l-2.975-9.814a7.424,7.424,0,0,0-5.889-5.17l-2.7-.448H48.382l-2.7.448a7.424,7.424,0,0,0-5.889,5.17l-2.975,9.814a4.067,4.067,0,0,0,1.072,4.11l3.738,3.6H75.3l3.738-3.6A4.067,4.067,0,0,0,80.113,295.341Z" transform="translate(-36.641 -248.516)" fill="#c9e0fd"/>
          <path id="Path_1027104" data-name="Path 1027104" d="M329.106,295.341l-2.975-9.814a7.424,7.424,0,0,0-5.889-5.17l-2.7-.448h-7.286l2.7.448a7.424,7.424,0,0,1,5.889,5.17l2.975,9.814a4.067,4.067,0,0,1-1.072,4.11l-3.738,3.6H324.3l3.738-3.6A4.067,4.067,0,0,0,329.106,295.341Z" transform="translate(-278.722 -248.516)" fill="#bcd6f9"/>
          <g id="Group_1172631" data-name="Group 1172631" transform="translate(11.741 23.476)">
            <path id="Path_1027105" data-name="Path 1027105" d="M165.6,219.124l-5.867-.973a2.6,2.6,0,0,1-2.159-2.322l-.426-4.622H146.975l-.426,4.622a2.6,2.6,0,0,1-2.159,2.322l-5.867.973H165.6Z" transform="translate(-138.523 -211.206)" fill="#faefdb"/>
          </g>
          <path id="Path_1027106" data-name="Path 1027106" d="M147.663,291.026V274.009a2.745,2.745,0,0,0-2.745-2.745H126.894a2.745,2.745,0,0,0-2.745,2.745v17.017Z" transform="translate(-114.064 -240.867)" fill="#f7f4f7"/>
          <g id="Group_1172639" data-name="Group 1172639" transform="translate(14.228)">
            <g id="Group_1172638" data-name="Group 1172638">
              <g id="Group_1172637" data-name="Group 1172637">
                <g id="Group_1172636" data-name="Group 1172636">
                  <g id="Group_1172635" data-name="Group 1172635">
                    <g id="Group_1172634" data-name="Group 1172634">
                      <g id="Group_1172633" data-name="Group 1172633">
                        <path id="Path_1027107" data-name="Path 1027107" d="M183.224,39.581a9.058,9.058,0,0,0,3.071-6.69V16.183a10.19,10.19,0,0,0-1.291-.463h0a10.088,10.088,0,0,0-2.684-.387,9.445,9.445,0,0,0-9.6,9.315l0,8a8.929,8.929,0,0,0,3.027,6.595,12.515,12.515,0,0,0,3.588,2.276l.006,0a1.439,1.439,0,0,0,1.184-.067,14.179,14.179,0,0,0,2.691-1.876Z" transform="translate(-171.27 -14.43)" fill="#faefdb"/>
                        <g id="Group_1172632" data-name="Group 1172632" transform="translate(8.073 1.613)">
                          <path id="Path_1027108" data-name="Path 1027108" d="M236.771,21.5l0,16.608a8.93,8.93,0,0,1-3.027,6.595,12.652,12.652,0,0,1-3.59,2.276,8.3,8.3,0,0,0,2.979.59A10.253,10.253,0,0,0,239.7,44.7a8.93,8.93,0,0,0,3.027-6.595l0-8a9.173,9.173,0,0,0-5.957-8.6Z" transform="translate(-230.152 -21.497)" fill="#f6e2bf"/>
                        </g>
                        <path id="Path_1027109" data-name="Path 1027109" d="M173.833,15.654v0c.538-.126.928-.262,1.291-.377V7.892l-.335-.392h-7.532A2.207,2.207,0,0,0,165.3,8.679V8.7a1.183,1.183,0,0,1-1.431,1.2,3.254,3.254,0,0,0-3.776,3.211v7.236a1.745,1.745,0,0,1,.283-.025h1.224a1.76,1.76,0,0,0,1.773-1.625c.006-.107,0-.053,0-1.847a1.862,1.862,0,0,1,1.862-1.862h.4c1.779,0,2.646.964,5.6.964a11.381,11.381,0,0,0,2.591-.3Z" transform="translate(-160.098 -7.5)" fill="#89808c"/>
                      </g>
                    </g>
                  </g>
                </g>
              </g>
            </g>
          </g>
          <g id="Group_1172647" data-name="Group 1172647" transform="translate(28.919 0)">
            <g id="Group_1172646" data-name="Group 1172646">
              <g id="Group_1172645" data-name="Group 1172645">
                <g id="Group_1172644" data-name="Group 1172644">
                  <g id="Group_1172643" data-name="Group 1172643">
                    <g id="Group_1172642" data-name="Group 1172642">
                      <g id="Group_1172641" data-name="Group 1172641">
                        <g id="Group_1172640" data-name="Group 1172640">
                          <path id="Path_1027110" data-name="Path 1027110" d="M294.99,12.726A5.228,5.228,0,0,0,289.763,7.5h-2.182v7.883a5.742,5.742,0,0,1,2.05-.394h.217a1.862,1.862,0,0,1,1.862,1.862c0,1.85,0,1.746,0,1.846a1.76,1.76,0,0,0,1.773,1.625h1.224a1.744,1.744,0,0,1,.283.023Z" transform="translate(-287.58 -7.5)" fill="#756e78"/>
                        </g>
                      </g>
                    </g>
                  </g>
                </g>
              </g>
            </g>
          </g>
        </g>
        <g id="Group_1172656" data-name="Group 1172656" transform="translate(0 30.397)">
          <g id="Group_1172655" data-name="Group 1172655">
            <g id="Group_1172654" data-name="Group 1172654" transform="translate(9.8)">
              <g id="Group_1172653" data-name="Group 1172653">
                <g id="Group_1172652" data-name="Group 1172652">
                  <g id="Group_1172651" data-name="Group 1172651">
                    <g id="Group_1172650" data-name="Group 1172650">
                      <g id="Group_1172649" data-name="Group 1172649">
                        <path id="Path_1027111" data-name="Path 1027111" d="M308.221,271.264h-7.286a2.745,2.745,0,0,1,2.745,2.745v17.017h7.286V274.009A2.745,2.745,0,0,0,308.221,271.264Z" transform="translate(-276.967 -271.264)" fill="#edeaed"/>
                        <path id="Path_1027112" data-name="Path 1027112" d="M129.639,441.093H93.886a.927.927,0,0,0-.927.927,3.413,3.413,0,0,0,3.414,3.414h30.781a3.413,3.413,0,0,0,3.414-3.414A.927.927,0,0,0,129.639,441.093Z" transform="translate(-92.959 -421.521)" fill="#c1bcc4"/>
                        <path id="Path_1027113" data-name="Path 1027113" d="M362.426,441.093h-6.359v4.341h3.873a3.413,3.413,0,0,0,3.414-3.413A.927.927,0,0,0,362.426,441.093Z" transform="translate(-325.745 -421.521)" fill="#b2aab5"/>
                      </g>
                    </g>
                  </g>
                </g>
              </g>
            </g>
            <circle id="Ellipse_12050" data-name="Ellipse 12050" cx="3.092" cy="3.092" r="3.092" transform="translate(25.512 6.79)" fill="#bcd6f9"/>
            <path id="Path_1027114" data-name="Path 1027114" d="M7.921,471.588A2.012,2.012,0,0,0,9.933,473.6H56.79a1.2,1.2,0,0,0,1.2-1.2v-2.358l-.173-.469H9.933a2.012,2.012,0,0,0-2.012,2.012Z" transform="translate(-7.921 -446.722)" fill="#b58c8c"/>
            <path id="Path_1027115" data-name="Path 1027115" d="M436.929,469.577h-5.274V472.4a1.2,1.2,0,0,1-1.2,1.2h6.472a2.012,2.012,0,0,0,0-4.025Z" transform="translate(-381.762 -446.723)" fill="#a87f7f"/>
          </g>
        </g>
      </g>
      <g id="Group_1172659" data-name="Group 1172659" transform="translate(0.421 -0.001)">
        <g id="Group_1172658" data-name="Group 1172658" transform="translate(0 0)">
          <path id="Path_1027116" data-name="Path 1027116" d="M225.756,330.592a3.956,3.956,0,1,0-3.956-3.956A3.96,3.96,0,0,0,225.756,330.592Zm0-6.183a2.227,2.227,0,1,1-2.227,2.227A2.23,2.23,0,0,1,225.756,324.409Z" transform="translate(-196.288 -285.493)"/>
          <path id="Path_1027117" data-name="Path 1027117" d="M56.452,53.251H53.66l.861-.829a4.91,4.91,0,0,0,1.3-4.983l-2.976-9.814a8.237,8.237,0,0,0-6.575-5.771l-1.2-.2A3.6,3.6,0,0,0,42.339,30.4h-4.8a1.722,1.722,0,0,1-1.279-1.514L36.1,27.127A10.241,10.241,0,0,0,40.3,19.949h.363a2.6,2.6,0,0,0,2.6-2.6V15.423A2.6,2.6,0,0,0,41.8,13.088c0-.415,0-1.111,0-2.279a.864.864,0,1,0-1.729,0c0,.946,0,1.583,0,2.013h-.641a.886.886,0,0,1-.912-.875V10.215A2.73,2.73,0,0,0,35.8,7.488a6.36,6.36,0,0,0-2.205.328,10.652,10.652,0,0,1-3.609.636,10.7,10.7,0,0,1-3.609-.636,6.728,6.728,0,0,0-2.389-.328,2.73,2.73,0,0,0-2.727,2.727v1.732a.9.9,0,0,1-.912.875H19.7V6.475A2.389,2.389,0,0,1,22.48,4.117,2.042,2.042,0,0,0,24.9,2.3,1.339,1.339,0,0,1,26,1.728h9.715a4.36,4.36,0,0,1,4.363,4.362c0,.3,0,.451,0,.526a.866.866,0,1,0,1.729.072c0-.006,0-.011,0-.017,0-.023,0-.127,0-.581A6.088,6.088,0,0,0,35.711,0H26A3.064,3.064,0,0,0,23.279,1.64a.868.868,0,0,0-.1.426.36.36,0,0,1-.1.277.405.405,0,0,1-.33.066,4.119,4.119,0,0,0-4.773,4.065v6.613a2.6,2.6,0,0,0-1.454,2.334v1.925a2.6,2.6,0,0,0,2.6,2.6h.364a9.968,9.968,0,0,0,2.037,5.075,11.174,11.174,0,0,0,2.156,2.112l-.161,1.746A1.722,1.722,0,0,1,22.237,30.4h-4.8A3.6,3.6,0,0,0,14.7,31.654l-1.2.2a8.237,8.237,0,0,0-6.575,5.771L3.957,47.438a4.91,4.91,0,0,0,1.3,4.983l.861.829H3.3A2.877,2.877,0,1,0,3.3,59H56.452a2.877,2.877,0,0,0,0-5.753Zm-16.1-38.7h.309a.874.874,0,0,1,.873.873v1.925a.873.873,0,0,1-.872.873h-.311ZM19.12,18.22a.873.873,0,0,1-.873-.873V15.423a.874.874,0,0,1,.873-.873h.309v3.67H19.12ZM45.988,33.558a6.519,6.519,0,0,1,5.2,4.568l2.976,9.814a3.188,3.188,0,0,1-.844,3.236l-2.155,2.075H49.29a4.278,4.278,0,0,0,.267-1.491,1.794,1.794,0,0,0-1.792-1.792H45.948V34.005a3.633,3.633,0,0,0-.029-.459ZM47.766,51.7a.063.063,0,0,1,.063.063,2.537,2.537,0,0,1-.481,1.491H12.431a2.537,2.537,0,0,1-.481-1.491.063.063,0,0,1,.063-.063ZM21.159,19.074v-4.65a2.6,2.6,0,0,0,1.827-2.478V10.214a1,1,0,0,1,1-1,5.132,5.132,0,0,1,1.834.237,12.331,12.331,0,0,0,4.165.728,12.669,12.669,0,0,0,4.165-.728,4.69,4.69,0,0,1,1.65-.237,1,1,0,0,1,1,1v1.732a2.6,2.6,0,0,0,1.827,2.477v4.651a8.41,8.41,0,0,1-3.072,6.282,9.419,9.419,0,0,1-5.658,2.324c-3.631-.045-8.61-3.289-8.73-8.606ZM34.955,30.4H24.824a3.469,3.469,0,0,0,.413-1.355l.08-.869a9.815,9.815,0,0,0,4.562,1.237H29.9a10.373,10.373,0,0,0,4.561-1.248l.081.879a3.468,3.468,0,0,0,.413,1.355ZM5.612,47.939l2.975-9.814a6.519,6.519,0,0,1,5.2-4.568l.068-.011a3.633,3.633,0,0,0-.029.459v5.3a.864.864,0,0,0,1.729,0v-5.3a1.882,1.882,0,0,1,1.88-1.88h24.9a1.882,1.882,0,0,1,1.88,1.88V49.968H15.559V43.4a.864.864,0,1,0-1.729,0v6.57H12.013a1.794,1.794,0,0,0-1.792,1.792,4.277,4.277,0,0,0,.267,1.491H8.611L6.455,51.176a3.188,3.188,0,0,1-.844-3.237Zm50.841,9.336H3.3a1.148,1.148,0,1,1,0-2.3H56.452a1.148,1.148,0,0,1,0,2.3Z" transform="translate(-0.421 0.001)"/>
        </g>
      </g>
    </g>
  </g>
</svg>
