<svg xmlns="http://www.w3.org/2000/svg" xmlns:xlink="http://www.w3.org/1999/xlink" width="113" height="113" viewBox="0 0 113 113">
  <defs>
    <filter id="Path_982547" x="0" y="0" width="113" height="113" filterUnits="userSpaceOnUse">
      <feOffset dy="3" input="SourceAlpha"/>
      <feGaussianBlur stdDeviation="3" result="blur"/>
      <feFlood flood-opacity="0.161"/>
      <feComposite operator="in" in2="blur"/>
      <feComposite in="SourceGraphic"/>
    </filter>
  </defs>
  <g id="Group_1173556" data-name="Group 1173556" transform="translate(-612.629 -2493)">
    <g id="Group_1173076" data-name="Group 1173076" transform="translate(0 30)">
      <g id="Group_1172126" data-name="Group 1172126" transform="translate(420.493 1494)">
        <g id="Group_1171504" data-name="Group 1171504" transform="translate(160.136 -2223)">
          <g id="Group_1167519" data-name="Group 1167519" transform="translate(41 3198)">
            <g id="Group_1166845" data-name="Group 1166845" transform="translate(0)">
              <g id="Group_1166720" data-name="Group 1166720">
                <g id="Group_1164305" data-name="Group 1164305">
                  <g id="Group_1163948" data-name="Group 1163948">
                    <g id="Group_1158168" data-name="Group 1158168">
                      <g id="Group_1152576" data-name="Group 1152576">
                        <g id="Group_1148633" data-name="Group 1148633">
                          <g id="Group_1148525" data-name="Group 1148525">
                            <g transform="matrix(1, 0, 0, 1, -9, -6)" filter="url(#Path_982547)">
                              <g id="Path_982547-2" data-name="Path 982547" transform="translate(9 6)" fill="#f2f7f5">
                                <path d="M 47.5 93.5 C 41.28937149047852 93.5 35.26533508300781 92.28397369384766 29.59518623352051 89.88570404052734 C 24.11771965026855 87.56893157958984 19.19813346862793 84.25196075439453 14.97309303283691 80.02691650390625 C 10.74804019927979 75.80186462402344 7.431066513061523 70.88229370117188 5.114293098449707 65.40481567382812 C 2.716026782989502 59.73468017578125 1.5 53.71062850952148 1.5 47.5 C 1.5 41.28937149047852 2.716026782989502 35.26533508300781 5.114293098449707 29.59518623352051 C 7.431066513061523 24.11771965026855 10.74804019927979 19.19813346862793 14.97309303283691 14.97309303283691 C 19.19813346862793 10.74804019927979 24.11771965026855 7.431066513061523 29.59518623352051 5.114293098449707 C 35.26533508300781 2.716026782989502 41.28937149047852 1.5 47.5 1.5 C 53.71062850952148 1.5 59.73468017578125 2.716026782989502 65.40481567382812 5.114293098449707 C 70.88229370117188 7.431066513061523 75.80186462402344 10.74804019927979 80.02691650390625 14.97309303283691 C 84.25196075439453 19.19813346862793 87.56893157958984 24.11771965026855 89.88570404052734 29.59518623352051 C 92.28397369384766 35.26533508300781 93.5 41.28937149047852 93.5 47.5 C 93.5 53.71062850952148 92.28397369384766 59.73468017578125 89.88570404052734 65.40481567382812 C 87.56893157958984 70.88229370117188 84.25196075439453 75.80186462402344 80.02691650390625 80.02691650390625 C 75.80186462402344 84.25196075439453 70.88229370117188 87.56893157958984 65.40481567382812 89.88570404052734 C 59.73468017578125 92.28397369384766 53.71062850952148 93.5 47.5 93.5 Z" stroke="none"/>
                                <path d="M 47.5 3 C 41.49121475219727 3 35.66376876831055 4.176155090332031 30.17950439453125 6.495796203613281 C 24.88084411621094 8.736953735351562 20.12152099609375 11.94598388671875 16.03375244140625 16.03375244140625 C 11.94598388671875 20.12152099609375 8.736953735351562 24.88084411621094 6.495796203613281 30.17950439453125 C 4.176155090332031 35.66376876831055 3 41.49121475219727 3 47.5 C 3 53.50878524780273 4.176155090332031 59.33623123168945 6.495796203613281 64.82049560546875 C 8.736953735351562 70.11915588378906 11.94598388671875 74.87847900390625 16.03375244140625 78.96624755859375 C 20.12152099609375 83.05401611328125 24.88084411621094 86.26304626464844 30.17950439453125 88.50419616699219 C 35.66376876831055 90.82384490966797 41.49121475219727 92 47.5 92 C 53.50878524780273 92 59.33623123168945 90.82384490966797 64.82049560546875 88.50419616699219 C 70.11915588378906 86.26304626464844 74.87847900390625 83.05401611328125 78.96624755859375 78.96624755859375 C 83.05401611328125 74.87847900390625 86.26304626464844 70.11915588378906 88.50419616699219 64.82049560546875 C 90.82384490966797 59.33623123168945 92 53.50878524780273 92 47.5 C 92 41.49121475219727 90.82384490966797 35.66376876831055 88.50419616699219 30.17950439453125 C 86.26304626464844 24.88084411621094 83.05401611328125 20.12152099609375 78.96624755859375 16.03375244140625 C 74.87847900390625 11.94598388671875 70.11915588378906 8.736953735351562 64.82049560546875 6.495796203613281 C 59.33623123168945 4.176155090332031 53.50878524780273 3 47.5 3 M 47.5 0 C 73.7335205078125 0 95 21.2664794921875 95 47.5 C 95 73.7335205078125 73.7335205078125 95 47.5 95 C 21.2664794921875 95 0 73.7335205078125 0 47.5 C 0 21.2664794921875 21.2664794921875 0 47.5 0 Z" stroke="none" fill="#4a665c"/>
                              </g>
                            </g>
                          </g>
                        </g>
                      </g>
                    </g>
                  </g>
                </g>
              </g>
            </g>
          </g>
        </g>
      </g>
      <g id="constitution" transform="translate(638.325 2488)">
        <g id="Group_1173074" data-name="Group 1173074" transform="translate(3.263 0.839)">
          <path id="Path_1038804" data-name="Path 1038804" d="M20.626,7.5V19.716H12.181A2.262,2.262,0,0,1,9.92,17.455v-4.6A5.351,5.351,0,0,1,15.273,7.5Z" transform="translate(-9.92 -7.5)" fill="#f6a96c"/>
          <path id="Path_1038805" data-name="Path 1038805" d="M49.789,7.5V19.716H46.431V12.853a5.36,5.36,0,0,0-3.673-5.084A5.327,5.327,0,0,1,44.436,7.5Z" transform="translate(-39.083 -7.5)" fill="#ea9b58"/>
          <path id="Path_1038806" data-name="Path 1038806" d="M99.623,12.853v48.01a2.26,2.26,0,0,1-2.261,2.261h-32A2.26,2.26,0,0,1,63.1,60.863V12.853A5.353,5.353,0,0,0,57.748,7.5H94.271a5.352,5.352,0,0,1,5.352,5.353Z" transform="translate(-52.395 -7.5)" fill="#ffe5c2"/>
          <path id="Path_1038807" data-name="Path 1038807" d="M362.788,12.853v48.01a2.26,2.26,0,0,1-2.261,2.261h-3.358a2.26,2.26,0,0,0,2.261-2.261V12.853A5.352,5.352,0,0,0,354.078,7.5h3.358a5.352,5.352,0,0,1,5.352,5.353Z" transform="translate(-315.56 -7.5)" fill="#fed2a4"/>
          <path id="Path_1038808" data-name="Path 1038808" d="M360.759,148.1v14.6l-.15.265a10.623,10.623,0,0,1-7.91,5.309,10.62,10.62,0,0,1,.47-9.515l2.2-3.9A27.343,27.343,0,0,1,360.759,148.1Z" transform="translate(-313.532 -132.364)" fill="#fed2a4"/>
          <path id="Path_1038809" data-name="Path 1038809" d="M202.59,62.642H185.556a.889.889,0,0,1-.889-.889V59.177a.889.889,0,0,1,.889-.889H202.59a.889.889,0,0,1,.889.889v2.576A.889.889,0,0,1,202.59,62.642Z" transform="translate(-165.109 -52.604)" fill="#d9b1ee"/>
          <path id="Path_1038810" data-name="Path 1038810" d="M234.7,259.185h-8.3a.657.657,0,0,1-.628-.852l.3-.96A1.952,1.952,0,0,1,227.927,256h5.234a1.952,1.952,0,0,1,1.864,1.373l.3.96A.657.657,0,0,1,234.7,259.185Z" transform="translate(-201.58 -228.188)" fill="#9c9c9c"/>
          <g id="Group_1173073" data-name="Group 1173073" transform="translate(40.52 12.536)">
            <path id="Path_1038811" data-name="Path 1038811" d="M382.982,133.671l-2.2,3.9a10.621,10.621,0,0,1-7.91,5.31,10.622,10.622,0,0,1,.47-9.515l2.2-3.9a27.406,27.406,0,0,1,9.411-9.8,1.028,1.028,0,0,1,1.574.88,27.413,27.413,0,0,1-3.545,13.127Z" transform="translate(-371.965 -119.506)" fill="#e1f0ff"/>
            <path id="Path_1038812" data-name="Path 1038812" d="M389.468,119.664a27.4,27.4,0,0,0-2.645,1.869,1.014,1.014,0,0,1,.674.972,12.347,12.347,0,0,1-.56,3.969,27.382,27.382,0,0,1-2.816,7.2l-2.2,3.9a10.619,10.619,0,0,1-4.869,4.45q.148.435.336.86a10.621,10.621,0,0,0,7.91-5.31l2.2-3.9a27.414,27.414,0,0,0,3.545-13.127A1.028,1.028,0,0,0,389.468,119.664Z" transform="translate(-376.48 -119.506)" fill="#cae4f9"/>
            <path id="Path_1038813" data-name="Path 1038813" d="M382.982,212.694l-2.2,3.9a10.621,10.621,0,0,1-7.91,5.31,10.622,10.622,0,0,1,.47-9.515l2.2-3.9,1.413,6.184Z" transform="translate(-371.965 -198.53)" fill="#4f66d0"/>
            <path id="Path_1038814" data-name="Path 1038814" d="M383.35,247.428l-1.433,2.535a10.619,10.619,0,0,1-4.869,4.45q.148.435.336.86a10.621,10.621,0,0,0,7.91-5.31l2.2-3.9Z" transform="translate(-376.479 -231.902)" fill="#314dc9"/>
          </g>
        </g>
        <g id="Group_1173075" data-name="Group 1173075" transform="translate(2.424)">
          <path id="Path_1038815" data-name="Path 1038815" d="M197.658,55.093V52.517a1.731,1.731,0,0,0-1.729-1.729H178.9a1.731,1.731,0,0,0-1.729,1.729v2.576a1.731,1.731,0,0,0,1.729,1.729h17.033A1.731,1.731,0,0,0,197.658,55.093Zm-1.679,0a.05.05,0,0,1-.05.05H178.9a.05.05,0,0,1-.05-.05V52.517a.05.05,0,0,1,.05-.05h17.033a.05.05,0,0,1,.05.05Z" transform="translate(-157.61 -45.104)"/>
          <path id="Path_1038816" data-name="Path 1038816" d="M155.988,413.952a.839.839,0,0,0-.839-.839h-16.5a.839.839,0,1,0,0,1.679h16.5A.839.839,0,0,0,155.988,413.952Z" transform="translate(-122.653 -366.878)"/>
          <path id="Path_1038817" data-name="Path 1038817" d="M138.644,445.084a.839.839,0,1,0,0,1.679h9.721a.839.839,0,0,0,0-1.679Z" transform="translate(-122.653 -395.27)"/>
          <path id="Path_1038818" data-name="Path 1038818" d="M58.238,12.779a1.874,1.874,0,0,0-1.91.04,28.244,28.244,0,0,0-5,3.952V6.193A6.2,6.2,0,0,0,45.139,0H8.616A6.2,6.2,0,0,0,2.424,6.192v4.6a3.1,3.1,0,0,0,3.1,3.1H10.04a.839.839,0,1,0,0-1.679H5.524A1.423,1.423,0,0,1,4.1,10.794v-4.6a4.513,4.513,0,0,1,9.027,0V54.2a3.1,3.1,0,0,0,3.1,3.1h32a3.1,3.1,0,0,0,3.1-3.1V38.336a.839.839,0,0,0-1.679,0V54.2a1.423,1.423,0,0,1-1.421,1.421h-32A1.423,1.423,0,0,1,14.809,54.2V6.192a6.176,6.176,0,0,0-1.957-4.514H45.139a4.518,4.518,0,0,1,4.513,4.514V18.585a28.187,28.187,0,0,0-3.022,4.336l-2.2,3.9a11.547,11.547,0,0,0-1.07,8.683H18.415a.839.839,0,0,0,0,1.679H43.478l-1.074,1.9H18.415a.839.839,0,1,0,0,1.679h23.04l-1.074,1.9H18.415a.839.839,0,0,0,0,1.679H39.433l-1.315,2.326a.845.845,0,0,0,.733,1.252h7.187a.839.839,0,0,0,0-1.679h-5.75l1.074-1.9h4.677a.839.839,0,0,0,0-1.679H42.31l1.074-1.9h2.654a.839.839,0,0,0,0-1.679h-1.7l.884-1.563a11.515,11.515,0,0,0,8.112-5.667l2.2-3.9a28.254,28.254,0,0,0,3.654-13.529,1.86,1.86,0,0,0-.945-1.644ZM44.884,34.692a9.832,9.832,0,0,1,1-7.049l1.136-2.01.858,3.755Zm1.462.826,3-5.3L53,29.013l-1.136,2.01a9.832,9.832,0,0,1-5.521,4.5ZM56.8,20.15a26.534,26.534,0,0,1-2.574,6.694l-3.655,1.2,2.125-3.76a.839.839,0,1,0-1.462-.826l-2.125,3.76-.856-3.747a26.641,26.641,0,0,1,8.961-9.226.194.194,0,0,1,.1-.031.2.2,0,0,1,.1.027.171.171,0,0,1,.093.161A26.533,26.533,0,0,1,56.8,20.15Z" transform="translate(-2.424)"/>
          <path id="Path_1038819" data-name="Path 1038819" d="M203.534,138.524a.839.839,0,0,0,.839-.839v-3.048a6.842,6.842,0,0,0,1.463-.88.839.839,0,0,0-1.035-1.322,5.426,5.426,0,0,1-4.7.918,9.151,9.151,0,0,1-2.119-.755v-2.232a.839.839,0,1,0-1.679,0V132.6a9.152,9.152,0,0,1-2.119.755,5.989,5.989,0,0,1-3.133-.08l-.042-.015a5.026,5.026,0,0,1-1.529-.824.839.839,0,1,0-1.035,1.322,6.833,6.833,0,0,0,1.48.887v3.04a.839.839,0,0,0,1.679,0v-2.557a7.32,7.32,0,0,0,1.09.081,9.641,9.641,0,0,0,3.609-.763v8.4h-1.778a2.779,2.779,0,0,0-2.666,1.963l-.3.96a1.5,1.5,0,0,0,1.429,1.94h8.3a1.5,1.5,0,0,0,1.429-1.94l-.3-.96a2.779,2.779,0,0,0-2.666-1.963h-1.778v-8.4a9.64,9.64,0,0,0,3.609.763,7.306,7.306,0,0,0,1.107-.084v2.56a.839.839,0,0,0,.839.839Zm-2.715,6.78.225.723h-7.809l.225-.723a1.108,1.108,0,0,1,1.063-.783h5.234A1.108,1.108,0,0,1,200.819,145.3Z" transform="translate(-167.336 -115.03)"/>
        </g>
      </g>
    </g>
  </g>
</svg>
