<svg xmlns="http://www.w3.org/2000/svg" xmlns:xlink="http://www.w3.org/1999/xlink" width="110" height="110" viewBox="0 0 110 110">
  <defs>
    <filter id="Path_982547" x="0" y="0" width="110" height="110" filterUnits="userSpaceOnUse">
      <feOffset dy="3" input="SourceAlpha"/>
      <feGaussianBlur stdDeviation="3" result="blur"/>
      <feFlood flood-opacity="0.161"/>
      <feComposite operator="in" in2="blur"/>
      <feComposite in="SourceGraphic"/>
    </filter>
  </defs>
  <g id="Group_1173546" data-name="Group 1173546" transform="translate(-1421 -6048)">
    <g id="Group_1173058" data-name="Group 1173058">
      <g id="Group_1172122" data-name="Group 1172122" transform="translate(306 5225)">
        <g id="Group_1171416" data-name="Group 1171416" transform="translate(-0.701 -6107)">
          <g id="Group_1163803" data-name="Group 1163803" transform="translate(-0.494 2285.316)">
            <g id="Group_1163015" data-name="Group 1163015" transform="translate(1.195 305.685)">
              <g id="Group_1157017" data-name="Group 1157017" transform="translate(0 3549)">
                <g id="Group_1155793" data-name="Group 1155793" transform="translate(-0.999 -3894)">
                  <g id="Group_1154704" data-name="Group 1154704" transform="translate(0 1466)">
                    <g id="Group_1150790" data-name="Group 1150790" transform="translate(3 2320)">
                      <g id="Group_1154214" data-name="Group 1154214" transform="translate(79 -5809)">
                        <g id="Group_1152583" data-name="Group 1152583" transform="translate(1043 6713)">
                          <g id="Group_1146973" data-name="Group 1146973" transform="translate(0 0)">
                            <g id="Group_1146954" data-name="Group 1146954">
                              <g transform="matrix(1, 0, 0, 1, -9, -6)" filter="url(#Path_982547)">
                                <g id="Path_982547-2" data-name="Path 982547" transform="translate(9 6)" fill="#e4f2f4">
                                  <path d="M 46 90.49987030029297 C 39.99187850952148 90.49987030029297 34.16426849365234 89.32350921630859 28.67905426025391 87.00345611572266 C 23.38019943237305 84.76224517822266 18.62104034423828 81.55341339111328 14.53374671936035 77.46613311767578 C 10.44646644592285 73.37885284423828 7.237639904022217 68.61969757080078 4.996413230895996 63.32085418701172 C 2.676359891891479 57.83565521240234 1.5 52.008056640625 1.5 45.99993515014648 C 1.5 39.99181365966797 2.676359891891479 34.16421508789062 4.996413230895996 28.67901420593262 C 7.237639904022217 23.38017463684082 10.44646644592285 18.62101554870605 14.53374671936035 14.53373527526855 C 18.62104034423828 10.44645500183105 23.38019943237305 7.23762845993042 28.67905426025391 4.996415138244629 C 34.16426849365234 2.676361799240112 39.99187850952148 1.500001788139343 46 1.500001788139343 C 52.00812149047852 1.500001788139343 57.83573150634766 2.676361799240112 63.32094573974609 4.996415138244629 C 68.61979675292969 7.23762845993042 73.37895965576172 10.44645500183105 77.46625518798828 14.53373527526855 C 81.55353546142578 18.62101554870605 84.76235961914062 23.38017463684082 87.00358581542969 28.67901420593262 C 89.32363891601562 34.16421508789062 90.5 39.99181365966797 90.5 45.99993515014648 C 90.5 52.008056640625 89.32363891601562 57.83565521240234 87.00358581542969 63.32085418701172 C 84.76235961914062 68.61969757080078 81.55353546142578 73.37885284423828 77.46625518798828 77.46613311767578 C 73.37895965576172 81.55341339111328 68.61979675292969 84.76224517822266 63.32094573974609 87.00345611572266 C 57.83573150634766 89.32350921630859 52.00812149047852 90.49987030029297 46 90.49987030029297 Z" stroke="none"/>
                                  <path d="M 46 2.999992370605469 C 40.1937141418457 2.999992370605469 34.56269836425781 4.136489868164062 29.26337051391602 6.377906799316406 C 24.14332580566406 8.543502807617188 19.54441070556641 11.64437866210938 15.59439849853516 15.59437561035156 C 11.64440155029297 19.54439544677734 8.54351806640625 24.14329528808594 6.377914428710938 29.26333618164062 C 4.136497497558594 34.56264877319336 3 40.19366455078125 3 45.99993515014648 C 3 51.80620574951172 4.136497497558594 57.43720626831055 6.377914428710938 62.73651885986328 C 8.54351806640625 67.8565673828125 11.64440155029297 72.45545959472656 15.59439849853516 76.40547943115234 C 19.54441070556641 80.35547637939453 24.14332580566406 83.45635223388672 29.26337051391602 85.6219482421875 C 34.56269836425781 87.86336517333984 40.1937141418457 88.99986267089844 46 88.99986267089844 C 51.8062858581543 88.99986267089844 57.43730163574219 87.86336517333984 62.73661422729492 85.6219482421875 C 67.85667419433594 83.45635223388672 72.45557403564453 80.35547637939453 76.40558624267578 76.40547943115234 C 80.35559844970703 72.45545959472656 83.45647430419922 67.8565673828125 85.6220703125 62.73651885986328 C 87.86350250244141 57.43720626831055 89 51.80620574951172 89 45.99993515014648 C 89 40.19366455078125 87.86350250244141 34.56264877319336 85.6220703125 29.26333618164062 C 83.45647430419922 24.14329528808594 80.35559844970703 19.54439544677734 76.40558624267578 15.59437561035156 C 72.45557403564453 11.64437866210938 67.85667419433594 8.543502807617188 62.73661422729492 6.377906799316406 C 57.43730163574219 4.136489868164062 51.8062858581543 2.999992370605469 46 2.999992370605469 M 46 -7.62939453125e-06 C 71.40509033203125 -7.62939453125e-06 92 20.59486389160156 92 45.99993515014648 C 92 71.40499114990234 71.40509033203125 91.99986267089844 46 91.99986267089844 C 20.59490203857422 91.99986267089844 0 71.40499114990234 0 45.99993515014648 C 0 20.59486389160156 20.59490203857422 -7.62939453125e-06 46 -7.62939453125e-06 Z" stroke="none" fill="#01899b"/>
                                </g>
                              </g>
                            </g>
                          </g>
                        </g>
                      </g>
                    </g>
                  </g>
                </g>
              </g>
            </g>
          </g>
        </g>
      </g>
      <g id="future" transform="translate(1443.48 6069.001)">
        <g id="Group_1173057" data-name="Group 1173057" transform="translate(4.448 10.091)">
          <g id="Group_1173053" data-name="Group 1173053" transform="translate(35.917 11.982)">
            <path id="Path_1038754" data-name="Path 1038754" d="M341.112,214.366l10.882,2.916a18.147,18.147,0,0,1-.275-2.378,6,6,0,0,1,.263-2.314,5.522,5.522,0,0,1,1.292-2.11l0,0,4.134-4.447a5.062,5.062,0,0,0,1.471-3.552V185.388a2.773,2.773,0,0,0-5.546,0v11.9l-.056-.058a3.079,3.079,0,0,0-4.338-.017l-7.6,7.542a4.853,4.853,0,0,0-1,3.713Z" transform="translate(-338.06 -182.615)" fill="#ffd6bd" fill-rule="evenodd"/>
            <path id="Path_1038755" data-name="Path 1038755" d="M408.21,308.515a3.081,3.081,0,0,0,.448-3.79,3.042,3.042,0,0,1,.563.447,3.076,3.076,0,0,1-.017,4.338c-1.481,1.467-2.947,2.947-4.421,4.421a.706.706,0,0,1-1-1C405.256,311.462,406.724,309.99,408.21,308.515Z" transform="translate(-394.002 -290.556)" fill="#f9c6aa" fill-rule="evenodd"/>
            <path id="Path_1038756" data-name="Path 1038756" d="M322.471,440.591l13.3,3.564a.612.612,0,0,1,.432.748l-.659,2.459a.612.612,0,0,1-.748.432l-13.3-3.564a.612.612,0,0,1-.432-.748l.659-2.459A.612.612,0,0,1,322.471,440.591Z" transform="translate(-321.043 -410.638)" fill="#64b5f6" fill-rule="evenodd"/>
          </g>
          <g id="Group_1173054" data-name="Group 1173054" transform="translate(0 11.982)">
            <path id="Path_1038757" data-name="Path 1038757" d="M29.288,214.366l-10.882,2.916a18.148,18.148,0,0,0,.275-2.378,6,6,0,0,0-.263-2.314,5.522,5.522,0,0,0-1.292-2.11l0,0-4.134-4.447a5.061,5.061,0,0,1-1.471-3.552V185.388a2.773,2.773,0,0,1,5.546,0v11.9l.056-.058a3.079,3.079,0,0,1,4.338-.017l7.6,7.542a4.853,4.853,0,0,1,1,3.713Z" transform="translate(-11.518 -182.615)" fill="#ffd6bd" fill-rule="evenodd"/>
            <path id="Path_1038758" data-name="Path 1038758" d="M54.058,308.515a3.081,3.081,0,0,1-.448-3.79,3.041,3.041,0,0,0-.563.447,3.076,3.076,0,0,0,.017,4.338c1.481,1.467,2.947,2.947,4.421,4.421a.706.706,0,0,0,1-1C57.011,311.462,55.543,309.99,54.058,308.515Z" transform="translate(-47.444 -290.556)" fill="#f9c6aa" fill-rule="evenodd"/>
            <path id="Path_1038759" data-name="Path 1038759" d="M73.87,440.592l-13.3,3.564a.612.612,0,0,0-.432.748l.659,2.459a.612.612,0,0,0,.748.432l13.3-3.564a.612.612,0,0,0,.432-.748l-.659-2.459A.612.612,0,0,0,73.87,440.592Z" transform="translate(-54.476 -410.638)" fill="#64b5f6" fill-rule="evenodd"/>
          </g>
          <g id="Group_1173055" data-name="Group 1173055" transform="translate(12.764)">
            <path id="Path_1038760" data-name="Path 1038760" d="M137.121,79.353a15.607,15.607,0,0,1,7.977,29.021,3.089,3.089,0,0,0-1.545,2.719V114.9a2.149,2.149,0,0,1-2.145,2.145h-8.574a2.149,2.149,0,0,1-2.145-2.145v-3.805a3.089,3.089,0,0,0-1.545-2.719,15.607,15.607,0,0,1,7.977-29.021Z" transform="translate(-121.516 -79.353)" fill="#ffda2d" fill-rule="evenodd"/>
            <path id="Path_1038761" data-name="Path 1038761" d="M227.629,376.234v4.086a3.172,3.172,0,0,1-3.165,3.165H222.22a3.172,3.172,0,0,1-3.165-3.165v-2.606Z" transform="translate(-207.737 -341.784)" fill="#7a8c98" fill-rule="evenodd"/>
            <path id="Path_1038762" data-name="Path 1038762" d="M200.569,373.728a2.149,2.149,0,0,0,2.145,2.145h8.574a2.149,2.149,0,0,0,2.145-2.145v-1.567H200.569Z" transform="translate(-191.396 -338.184)" fill="#8d9ca8" fill-rule="evenodd"/>
          </g>
          <g id="Group_1173056" data-name="Group 1173056" transform="translate(16.427 3.682)">
            <path id="Path_1038763" data-name="Path 1038763" d="M163.031,111.081h3.986v2a10.083,10.083,0,0,1,3.628,1.5l1.415-1.415,2.818,2.818-1.415,1.415a10.082,10.082,0,0,1,1.5,3.628h2v3.986h-2a10.082,10.082,0,0,1-1.5,3.628l1.415,1.415-2.818,2.818-1.415-1.415a10.083,10.083,0,0,1-3.628,1.5v2h-3.986v-2a10.082,10.082,0,0,1-3.628-1.5l-1.415,1.415-2.818-2.818,1.415-1.415a10.083,10.083,0,0,1-1.5-3.628h-2v-3.986h2a10.083,10.083,0,0,1,1.5-3.628l-1.415-1.415,2.818-2.818,1.415,1.415a10.083,10.083,0,0,1,3.628-1.5v-2Z" transform="translate(-153.082 -111.081)" fill="#8d9ca8" fill-rule="evenodd"/>
            <circle id="Ellipse_12058" data-name="Ellipse 12058" cx="6.189" cy="6.189" r="6.189" transform="translate(5.753 5.753)" fill="#eff4f7"/>
            <path id="Path_1038764" data-name="Path 1038764" d="M229.183,190.172h-1.448a.393.393,0,0,1-.312-.634l2.93-3.792a.393.393,0,0,1,.623,0l2.93,3.792a.393.393,0,0,1-.312.634h-1.448V194.9a6.222,6.222,0,0,1-2.964,0v-4.728Z" transform="translate(-218.722 -176.947)" fill="#72d561" fill-rule="evenodd"/>
          </g>
        </g>
        <path id="Path_1038765" data-name="Path 1038765" d="M32.817,20.455a5.259,5.259,0,0,1,2.41,9.935V27.927h.52A1.322,1.322,0,0,0,36.794,25.8L33.863,22a1.321,1.321,0,0,0-2.091,0L28.841,25.8a1.322,1.322,0,0,0,1.045,2.131h.521v2.462a5.259,5.259,0,0,1,2.41-9.935Zm-.553,10.493a5.438,5.438,0,0,0,.553.029,5.137,5.137,0,0,0,.553-.029V27a.928.928,0,0,1,.928-.928h.36l-1.842-2.383-1.842,2.383h.36a.928.928,0,0,1,.929.928Zm.553,1.886A7.118,7.118,0,1,0,25.7,25.715,7.125,7.125,0,0,0,32.817,32.833Zm-6.278.664a.93.93,0,0,1,1.172-.115,9.1,9.1,0,0,0,3.294,1.365.928.928,0,0,1,.746.911V36.73h2.129V35.659a.929.929,0,0,1,.748-.911,9.125,9.125,0,0,0,3.294-1.365.93.93,0,0,1,1.172.115l.758.759,1.506-1.506-.759-.758a.93.93,0,0,1-.116-1.172,9.117,9.117,0,0,0,1.366-3.294.927.927,0,0,1,.91-.746h1.072V24.652H42.759a.929.929,0,0,1-.91-.748,9.107,9.107,0,0,0-1.366-3.293.931.931,0,0,1,.116-1.172l.759-.759-1.506-1.506-.759.759a.926.926,0,0,1-1.171.117,9.109,9.109,0,0,0-3.294-1.366.928.928,0,0,1-.748-.91V14.7H31.752v1.073a.927.927,0,0,1-.746.91,9.1,9.1,0,0,0-3.294,1.366.928.928,0,0,1-1.172-.117l-.757-.759L24.275,18.68l.759.759a.927.927,0,0,1,.116,1.171A9.128,9.128,0,0,0,23.785,23.9a.93.93,0,0,1-.911.748H21.8V26.78h1.071a.929.929,0,0,1,.911.746,9.116,9.116,0,0,0,1.366,3.294.928.928,0,0,1-.116,1.172l-.759.758,1.507,1.506Zm3.356,2.9v1.265a.929.929,0,0,0,.928.928h3.986a.928.928,0,0,0,.929-.928V36.393A10.9,10.9,0,0,0,38.3,35.33l.895.9a.93.93,0,0,0,1.314,0l2.819-2.818a.929.929,0,0,0,0-1.312l-.9-.9a10.926,10.926,0,0,0,1.063-2.562H44.76a.929.929,0,0,0,.928-.929V23.724a.928.928,0,0,0-.928-.929H43.494a10.909,10.909,0,0,0-1.062-2.564l.9-.894a.928.928,0,0,0,0-1.312L40.509,15.2a.93.93,0,0,0-1.314,0l-.895.9a10.97,10.97,0,0,0-2.563-1.061V13.773a.928.928,0,0,0-.929-.928H30.823a.929.929,0,0,0-.928.928v1.266A10.857,10.857,0,0,0,27.333,16.1l-.9-.9a.928.928,0,0,0-1.312,0l-2.819,2.819a.93.93,0,0,0,0,1.313l.9.894a10.979,10.979,0,0,0-1.063,2.564H20.874a.928.928,0,0,0-.928.929v3.985a.929.929,0,0,0,.928.929h1.265A10.928,10.928,0,0,0,23.2,31.2l-.9.9a.929.929,0,0,0,0,1.312l2.819,2.818a.928.928,0,0,0,1.312,0l.9-.9A10.946,10.946,0,0,0,29.9,36.393ZM41.812,8.136l2.023-3.5a.928.928,0,1,1,1.607.928l-2.023,3.5a.929.929,0,0,1-.805.464.918.918,0,0,1-.463-.124.927.927,0,0,1-.34-1.268ZM11.536,13.287a.928.928,0,0,1,1.269-.34l3.5,2.023a.928.928,0,0,1-.928,1.607l-3.5-2.024a.927.927,0,0,1-.34-1.267ZM20.191,5.56A.928.928,0,1,1,21.8,4.631l2.024,3.5a.928.928,0,0,1-.34,1.268.916.916,0,0,1-.463.124.929.929,0,0,1-.805-.464Zm11.7.415V1.928a.928.928,0,1,1,1.857,0V5.975a.928.928,0,0,1-1.857,0Zm17.1,10.263a.928.928,0,0,1,.34-1.267l3.5-2.023a.928.928,0,1,1,.928,1.607l-3.5,2.024a.929.929,0,0,1-1.269-.34ZM37.1,46.853H28.53a1.218,1.218,0,0,1-1.217-1.217V45H38.321v.639A1.218,1.218,0,0,1,37.1,46.853Zm-3.164,4.011H31.695a2.237,2.237,0,0,1-2.232-2.154h6.71A2.237,2.237,0,0,1,33.939,50.863ZM25.315,38.315a4.006,4.006,0,0,1,2,3.516V43.14H38.321V41.831a4.007,4.007,0,0,1,2-3.516,14.676,14.676,0,1,0-15,0Zm14.863,7.32v-3.8a2.161,2.161,0,0,1,1.092-1.921,16.538,16.538,0,1,0-16.9,0,2.162,2.162,0,0,1,1.092,1.921v3.8a3.079,3.079,0,0,0,2.145,2.93v.061a4.1,4.1,0,0,0,4.093,4.093h2.244a4.1,4.1,0,0,0,4.093-4.093v-.061a3.079,3.079,0,0,0,2.146-2.93Zm-28.6,12.615-.494-1.845,12.689-3.4.494,1.844Zm-.847-8.946L6.6,44.857a4.159,4.159,0,0,1-1.223-2.92V24.846a1.844,1.844,0,0,1,3.689,0V36.409a4,4,0,0,0,.349,5.277l4.061,4.029A.929.929,0,0,0,14.783,44.4l-4.061-4.029a2.142,2.142,0,0,1-.011-3.025,2.12,2.12,0,0,1,1.509-.628h.009a2.124,2.124,0,0,1,1.506.616l7.555,7.5a3.906,3.906,0,0,1,.779,2.98l-.506,3.869-9.011,2.415a6.37,6.37,0,0,0-1.818-4.786Zm14.753,2.913.659,2.459a1.541,1.541,0,0,1-1.088,1.885l-13.3,3.565a1.562,1.562,0,0,1-.4.052A1.542,1.542,0,0,1,9.87,59.038l-.658-2.459A1.54,1.54,0,0,1,10.3,54.695l.359-.1a4.675,4.675,0,0,0-1.285-4.03L5.24,46.122a6.016,6.016,0,0,1-1.72-4.185V24.846a3.705,3.705,0,0,1,3.7-3.7h0a3.708,3.708,0,0,1,3.7,3.7v10.23a4.024,4.024,0,0,1,1.29-.217h.016a3.969,3.969,0,0,1,2.814,1.154l7.6,7.543a1.035,1.035,0,0,1,.082.093,5.76,5.76,0,0,1,1.183,4.4L23.5,51.157l.1-.027a1.54,1.54,0,0,1,1.885,1.088ZM60.258,41.938a4.159,4.159,0,0,1-1.223,2.92L54.9,49.305a6.372,6.372,0,0,0-1.817,4.787l-9.012-2.415-.506-3.869a3.905,3.905,0,0,1,.778-2.98l7.555-7.5a2.121,2.121,0,0,1,1.506-.616h.009a2.134,2.134,0,0,1,1.5,3.653L50.852,44.4a.928.928,0,0,0,1.307,1.318l4.061-4.029a4,4,0,0,0,.348-5.277V24.847a1.844,1.844,0,0,1,3.689,0V41.938Zm-6.2,16.313.494-1.845-12.689-3.4-.495,1.844Zm4.36-37.1a3.705,3.705,0,0,1,3.7,3.7V41.938a6.016,6.016,0,0,1-1.72,4.185L56.26,50.569a4.674,4.674,0,0,0-1.285,4.03l.359.1a1.54,1.54,0,0,1,1.089,1.884l-.658,2.459a1.543,1.543,0,0,1-1.485,1.141,1.565,1.565,0,0,1-.4-.052l-13.3-3.564a1.543,1.543,0,0,1-1.089-1.885l.659-2.459a1.541,1.541,0,0,1,1.886-1.088l.1.027-.406-3.109a5.759,5.759,0,0,1,1.182-4.4,1.039,1.039,0,0,1,.083-.093l7.6-7.543a3.966,3.966,0,0,1,2.814-1.154h.016a4.029,4.029,0,0,1,1.29.217V24.847a3.707,3.707,0,0,1,3.7-3.7h0Z" transform="translate(0 0)" fill-rule="evenodd"/>
      </g>
    </g>
  </g>
</svg>
