<svg xmlns="http://www.w3.org/2000/svg" xmlns:xlink="http://www.w3.org/1999/xlink" width="113" height="113" viewBox="0 0 113 113">
  <defs>
    <filter id="Path_982547" x="0" y="0" width="113" height="113" filterUnits="userSpaceOnUse">
      <feOffset dy="3" input="SourceAlpha"/>
      <feGaussianBlur stdDeviation="3" result="blur"/>
      <feFlood flood-opacity="0.161"/>
      <feComposite operator="in" in2="blur"/>
      <feComposite in="SourceGraphic"/>
    </filter>
    <clipPath id="clip-path">
      <path id="path4788" d="M0-682.665H56.856v56.856H0Z" transform="translate(0 682.665)"/>
    </clipPath>
  </defs>
  <g id="Group_1173559" data-name="Group 1173559" transform="translate(-190 -4204)">
    <g id="Group_1172175" data-name="Group 1172175" transform="translate(-0.514 180)">
      <g id="Group_1167986" data-name="Group 1167986" transform="translate(199.514 4030)">
        <g id="Group_1167464" data-name="Group 1167464">
          <g id="Group_1164308" data-name="Group 1164308" transform="translate(0)">
            <g id="Group_1163948" data-name="Group 1163948">
              <g id="Group_1158168" data-name="Group 1158168">
                <g id="Group_1152576" data-name="Group 1152576">
                  <g id="Group_1148633" data-name="Group 1148633">
                    <g id="Group_1148525" data-name="Group 1148525">
                      <g transform="matrix(1, 0, 0, 1, -9, -6)" filter="url(#Path_982547)">
                        <g id="Path_982547-2" data-name="Path 982547" transform="translate(9 6)" fill="#f2f7f5">
                          <path d="M 47.5 93.5 C 41.28937149047852 93.5 35.26533508300781 92.28397369384766 29.59518623352051 89.88570404052734 C 24.11771965026855 87.56893157958984 19.19813346862793 84.25196075439453 14.97309303283691 80.02691650390625 C 10.74804019927979 75.80186462402344 7.431066513061523 70.88229370117188 5.114293098449707 65.40481567382812 C 2.716026782989502 59.73468017578125 1.5 53.71062850952148 1.5 47.5 C 1.5 41.28937149047852 2.716026782989502 35.26533508300781 5.114293098449707 29.59518623352051 C 7.431066513061523 24.11771965026855 10.74804019927979 19.19813346862793 14.97309303283691 14.97309303283691 C 19.19813346862793 10.74804019927979 24.11771965026855 7.431066513061523 29.59518623352051 5.114293098449707 C 35.26533508300781 2.716026782989502 41.28937149047852 1.5 47.5 1.5 C 53.71062850952148 1.5 59.73468017578125 2.716026782989502 65.40481567382812 5.114293098449707 C 70.88229370117188 7.431066513061523 75.80186462402344 10.74804019927979 80.02691650390625 14.97309303283691 C 84.25196075439453 19.19813346862793 87.56893157958984 24.11771965026855 89.88570404052734 29.59518623352051 C 92.28397369384766 35.26533508300781 93.5 41.28937149047852 93.5 47.5 C 93.5 53.71062850952148 92.28397369384766 59.73468017578125 89.88570404052734 65.40481567382812 C 87.56893157958984 70.88229370117188 84.25196075439453 75.80186462402344 80.02691650390625 80.02691650390625 C 75.80186462402344 84.25196075439453 70.88229370117188 87.56893157958984 65.40481567382812 89.88570404052734 C 59.73468017578125 92.28397369384766 53.71062850952148 93.5 47.5 93.5 Z" stroke="none"/>
                          <path d="M 47.5 3 C 41.49121475219727 3 35.66376876831055 4.176155090332031 30.17950439453125 6.495796203613281 C 24.88084411621094 8.736953735351562 20.12152099609375 11.94598388671875 16.03375244140625 16.03375244140625 C 11.94598388671875 20.12152099609375 8.736953735351562 24.88084411621094 6.495796203613281 30.17950439453125 C 4.176155090332031 35.66376876831055 3 41.49121475219727 3 47.5 C 3 53.50878524780273 4.176155090332031 59.33623123168945 6.495796203613281 64.82049560546875 C 8.736953735351562 70.11915588378906 11.94598388671875 74.87847900390625 16.03375244140625 78.96624755859375 C 20.12152099609375 83.05401611328125 24.88084411621094 86.26304626464844 30.17950439453125 88.50419616699219 C 35.66376876831055 90.82384490966797 41.49121475219727 92 47.5 92 C 53.50878524780273 92 59.33623123168945 90.82384490966797 64.82049560546875 88.50419616699219 C 70.11915588378906 86.26304626464844 74.87847900390625 83.05401611328125 78.96624755859375 78.96624755859375 C 83.05401611328125 74.87847900390625 86.26304626464844 70.11915588378906 88.50419616699219 64.82049560546875 C 90.82384490966797 59.33623123168945 92 53.50878524780273 92 47.5 C 92 41.49121475219727 90.82384490966797 35.66376876831055 88.50419616699219 30.17950439453125 C 86.26304626464844 24.88084411621094 83.05401611328125 20.12152099609375 78.96624755859375 16.03375244140625 C 74.87847900390625 11.94598388671875 70.11915588378906 8.736953735351562 64.82049560546875 6.495796203613281 C 59.33623123168945 4.176155090332031 53.50878524780273 3 47.5 3 M 47.5 0 C 73.7335205078125 0 95 21.2664794921875 95 47.5 C 95 73.7335205078125 73.7335205078125 95 47.5 95 C 21.2664794921875 95 0 73.7335205078125 0 47.5 C 0 21.2664794921875 21.2664794921875 0 47.5 0 Z" stroke="none" fill="#4a665c"/>
                        </g>
                      </g>
                    </g>
                  </g>
                </g>
              </g>
            </g>
          </g>
        </g>
      </g>
    </g>
    <g id="g4782" transform="translate(218 4911.665)">
      <g id="g4784" transform="translate(0 -682.665)">
        <g id="g4786" transform="translate(0 0)" clip-path="url(#clip-path)">
          <g id="g4792" transform="translate(9.964 0.833)">
            <path id="path4794" d="M-29.618-156.422a16.236,16.236,0,0,1,1.613-3.891.8.8,0,0,0-.017-.818,2.746,2.746,0,0,1,.4-3.374l1.441-1.441a2.747,2.747,0,0,1,3.374-.4.8.8,0,0,0,.818.017,16.231,16.231,0,0,1,3.891-1.613.8.8,0,0,0,.565-.59,2.746,2.746,0,0,1,2.669-2.1h2.037a2.746,2.746,0,0,1,2.669,2.1.8.8,0,0,0,.565.59A16.231,16.231,0,0,1-5.7-166.329a.8.8,0,0,0,.818-.017,2.747,2.747,0,0,1,3.374.4L-.068-164.5a2.746,2.746,0,0,1,.4,3.374.8.8,0,0,0-.017.818,16.235,16.235,0,0,1,1.614,3.895.783.783,0,0,0,.588.558,2.661,2.661,0,0,1,2.1,2.6v2.189a2.661,2.661,0,0,1-2.1,2.6.783.783,0,0,0-.588.558,16.241,16.241,0,0,1-1.614,3.895.8.8,0,0,0,.017.818,2.747,2.747,0,0,1-.4,3.374l-1.441,1.441a2.746,2.746,0,0,1-3.374.4.8.8,0,0,0-.818-.017A16.231,16.231,0,0,1-9.592-136.4a.8.8,0,0,0-.565.59,2.746,2.746,0,0,1-2.669,2.1h-2.037a2.746,2.746,0,0,1-2.669-2.1.8.8,0,0,0-.565-.59,16.235,16.235,0,0,1-3.891-1.613.8.8,0,0,0-.818.017,2.746,2.746,0,0,1-3.374-.4l-1.441-1.441a2.747,2.747,0,0,1-.4-3.374.8.8,0,0,0,.017-.818,16.238,16.238,0,0,1-1.613-3.891.8.8,0,0,0-.59-.565,2.747,2.747,0,0,1-2.1-2.669v-2.037a2.746,2.746,0,0,1,2.1-2.669.8.8,0,0,0,.59-.565" transform="translate(32.309 170.633)" fill="#7aabdc"/>
          </g>
          <g id="g4796" transform="translate(25.926 0.833)">
            <path id="path4798" d="M-207.643-162.605a.783.783,0,0,1-.588-.558,16.236,16.236,0,0,0-1.614-3.9.8.8,0,0,1,.017-.818,2.747,2.747,0,0,0-.4-3.374l-1.441-1.441a2.746,2.746,0,0,0-3.374-.4.8.8,0,0,1-.818.017,16.231,16.231,0,0,0-3.891-1.613.8.8,0,0,1-.565-.59,2.746,2.746,0,0,0-2.669-2.1h-2.037a2.729,2.729,0,0,0-1.484.437,18.47,18.47,0,0,1,14.457,18.027,18.471,18.471,0,0,1-14.457,18.027,2.73,2.73,0,0,0,1.484.437h2.037a2.746,2.746,0,0,0,2.669-2.1.8.8,0,0,1,.565-.59,16.231,16.231,0,0,0,3.891-1.613.8.8,0,0,1,.818.017,2.747,2.747,0,0,0,3.374-.4l1.441-1.441a2.747,2.747,0,0,0,.4-3.374.8.8,0,0,1-.017-.818,16.23,16.23,0,0,0,1.614-3.895.784.784,0,0,1,.588-.558,2.661,2.661,0,0,0,2.1-2.6v-2.189a2.661,2.661,0,0,0-2.1-2.6" transform="translate(226.507 177.378)" fill="#5f98d5"/>
          </g>
          <g id="g4800" transform="translate(16.258 7.127)">
            <path id="path4802" d="M0-133.96a12.171,12.171,0,0,0,12.171,12.171,12.171,12.171,0,0,0,12.17-12.171,12.171,12.171,0,0,0-12.17-12.171A12.171,12.171,0,0,0,0-133.96" transform="translate(0 146.13)" fill="#f0f0f3"/>
          </g>
          <g id="g4804" transform="translate(25.367 10.162)">
            <path id="path4806" d="M0-33.691A3.061,3.061,0,0,0,3.061-30.63a3.061,3.061,0,0,0,3.061-3.061,3.061,3.061,0,0,0-3.061-3.061A3.061,3.061,0,0,0,0-33.691" transform="translate(0 36.752)" fill="#ffcbbe"/>
          </g>
          <g id="g4808" transform="translate(22.774 16.219)">
            <path id="path4810" d="M0-126.555H11.308v-7.267a4.231,4.231,0,0,0-4.231-4.231H4.231A4.231,4.231,0,0,0,0-133.822Z" transform="translate(0 138.053)" fill="#fbd307"/>
          </g>
          <g id="g4812" transform="translate(27.37 16.219)">
            <path id="path4814" d="M-73.883-46.569A4.231,4.231,0,0,0-78.114-50.8H-80.6a4.232,4.232,0,0,1,2.824,3.99V-39.3h3.889Z" transform="translate(80.596 50.8)" fill="#f9c301"/>
          </g>
          <g id="g4816" transform="translate(31.021 17.886)">
            <path id="path4818" d="M0-33.691A3.061,3.061,0,0,0,3.061-30.63a3.061,3.061,0,0,0,3.061-3.061,3.061,3.061,0,0,0-3.061-3.061A3.061,3.061,0,0,0,0-33.691" transform="translate(0 36.752)" fill="#efada0"/>
          </g>
          <g id="g4820" transform="translate(19.713 17.886)">
            <path id="path4822" d="M0-33.691A3.061,3.061,0,0,0,3.061-30.63a3.061,3.061,0,0,0,3.061-3.061,3.061,3.061,0,0,0-3.061-3.061A3.061,3.061,0,0,0,0-33.691" transform="translate(0 36.752)" fill="#efada0"/>
          </g>
          <g id="g4824" transform="translate(0.835 36.656)">
            <path id="path4826" d="M-49.582-49.171l8.341,5.762a4.272,4.272,0,0,0,2.428.757h2.945l.152-.464a4.954,4.954,0,0,1,4.235-4.415l7.091-1.2A18.616,18.616,0,0,0-17.6-51.091a18.619,18.619,0,0,1,9.4-2.548h7.49v13.864l-13.86,4.164c-3.872,1.077-5.271,1.225-10.269,1.332q-1.113.024-2.226-.034L-34.2-34.67a18.9,18.9,0,0,1-10.4-3.679L-52.921-44.5a2.872,2.872,0,0,1-.423-4.237,2.872,2.872,0,0,1,3.762-.436" transform="translate(54.086 53.639)" fill="#ffeae1"/>
          </g>
          <g id="g4828" transform="translate(0.836 36.656)">
            <path id="path4830" d="M-489.345-.631V8.514a6.5,6.5,0,0,1-4.564,6.2l-.375.117c-3.872,1.077-5.271,1.225-10.269,1.332q-1.113.024-2.226-.034l-7.138-.359a18.9,18.9,0,0,1-10.4-3.679l-8.323-6.148a2.857,2.857,0,0,1-.878-1.055,2.873,2.873,0,0,0,.878,3.564l8.323,6.148a18.9,18.9,0,0,0,10.4,3.679l7.138.359q1.112.057,2.226.034c5-.107,6.4-.255,10.269-1.332l13.86-4.164V-.688h-7.49c-.479,0-.956.021-1.431.057" transform="translate(533.803 0.688)" fill="#ffdbcc"/>
          </g>
          <g id="g4832" transform="translate(49.181 32.867)">
            <path id="path4834" d="M-20.549-241.332h3.107a1.867,1.867,0,0,0,1.867-1.867v-18.192a1.867,1.867,0,0,0-1.867-1.867h-3.107a1.867,1.867,0,0,0-1.867,1.867V-243.2a1.867,1.867,0,0,0,1.867,1.867" transform="translate(22.416 263.258)" fill="#fb636f"/>
          </g>
          <g id="g4836" transform="translate(28.428 23.943)">
            <path id="path4838" d="M-77.9,0h-2.847a4.231,4.231,0,0,0-4.231,4.231V7.525A12.164,12.164,0,0,0-74.556,1.643,4.221,4.221,0,0,0-77.9,0" transform="translate(84.977)" fill="#d5b0ec"/>
          </g>
          <g id="g4840" transform="translate(32.278 23.943)">
            <path id="path4842" d="M-35.522,0h-2.847c-.128,0-.255.007-.381.018a4.231,4.231,0,0,1,3.532,4.171V5.03a12.232,12.232,0,0,0,3.04-3.387A4.221,4.221,0,0,0-35.522,0" transform="translate(38.749)" fill="#c995e4"/>
          </g>
          <g id="g4844" transform="translate(18.007 23.943)">
            <path id="path4846" d="M-68.141,0h-2.847a4.221,4.221,0,0,0-3.344,1.643A12.164,12.164,0,0,0-63.91,7.525V4.231A4.231,4.231,0,0,0-68.141,0" transform="translate(74.332)" fill="#fc8086"/>
          </g>
          <g id="g4848" transform="translate(21.523 23.943)">
            <path id="path4850" d="M-29.437,0h-2.674a4.232,4.232,0,0,1,2.991,4.046V6.881a12.154,12.154,0,0,0,3.914.644V4.231A4.231,4.231,0,0,0-29.437,0" transform="translate(32.112)" fill="#fb636f"/>
          </g>
          <g id="g4852" transform="translate(19.054 45.191)">
            <path id="path4854" d="M0-26.978,16.812-27l.05,0a2.218,2.218,0,0,0,1.513-.794,2.217,2.217,0,0,0,.509-1.631" transform="translate(0 29.429)" fill="none" stroke="#000" stroke-linecap="round" stroke-linejoin="round" stroke-miterlimit="10" stroke-width="1.5"/>
          </g>
          <g id="g4856" transform="translate(9.964 0.833)">
            <path id="path4858" d="M-29.618-156.422a16.236,16.236,0,0,1,1.613-3.891.8.8,0,0,0-.017-.818,2.746,2.746,0,0,1,.4-3.374l1.441-1.441a2.747,2.747,0,0,1,3.374-.4.8.8,0,0,0,.818.017,16.231,16.231,0,0,1,3.891-1.613.8.8,0,0,0,.565-.59,2.746,2.746,0,0,1,2.669-2.1h2.037a2.746,2.746,0,0,1,2.669,2.1.8.8,0,0,0,.565.59A16.231,16.231,0,0,1-5.7-166.329a.8.8,0,0,0,.818-.017,2.747,2.747,0,0,1,3.374.4L-.068-164.5a2.746,2.746,0,0,1,.4,3.374.8.8,0,0,0-.017.818,16.235,16.235,0,0,1,1.614,3.895.783.783,0,0,0,.588.558,2.661,2.661,0,0,1,2.1,2.6v2.189a2.661,2.661,0,0,1-2.1,2.6.783.783,0,0,0-.588.558,16.241,16.241,0,0,1-1.614,3.895.8.8,0,0,0,.017.818,2.747,2.747,0,0,1-.4,3.374l-1.441,1.441a2.746,2.746,0,0,1-3.374.4.8.8,0,0,0-.818-.017A16.231,16.231,0,0,1-9.592-136.4a.8.8,0,0,0-.565.59,2.746,2.746,0,0,1-2.669,2.1h-2.037a2.746,2.746,0,0,1-2.669-2.1.8.8,0,0,0-.565-.59,16.236,16.236,0,0,1-3.891-1.613.8.8,0,0,0-.818.017,2.746,2.746,0,0,1-3.374-.4l-1.441-1.441a2.747,2.747,0,0,1-.4-3.374.8.8,0,0,0,.017-.818,16.238,16.238,0,0,1-1.613-3.891.8.8,0,0,0-.59-.565,2.747,2.747,0,0,1-2.1-2.669v-2.037a2.746,2.746,0,0,1,2.1-2.669A.8.8,0,0,0-29.618-156.422Z" transform="translate(32.309 170.633)" fill="none" stroke="#000" stroke-linecap="round" stroke-linejoin="round" stroke-miterlimit="10" stroke-width="1.5"/>
          </g>
          <g id="g4860" transform="translate(16.258 7.127)">
            <path id="path4862" d="M-26.075-54.533a12.116,12.116,0,0,0-2.369,7.216A12.171,12.171,0,0,0-16.273-35.147,12.171,12.171,0,0,0-4.1-47.317a12.171,12.171,0,0,0-12.17-12.171,12.116,12.116,0,0,0-6.983,2.2" transform="translate(28.444 59.488)" fill="none" stroke="#000" stroke-linecap="round" stroke-linejoin="round" stroke-miterlimit="10" stroke-width="1.5"/>
          </g>
          <g id="g4864" transform="translate(19.713 17.886)">
            <path id="path4866" d="M-40.605-66.669a3.062,3.062,0,0,0,2.433-3,3.061,3.061,0,0,0-3.061-3.061,3.061,3.061,0,0,0-3.061,3.061,3.062,3.062,0,0,0,2.433,3" transform="translate(44.295 72.726)" fill="none" stroke="#000" stroke-linecap="round" stroke-linejoin="round" stroke-miterlimit="10" stroke-width="1.5"/>
          </g>
          <g id="g4868" transform="translate(28.428 23.943)">
            <path id="path4870" d="M-77.9,0h-2.847a4.231,4.231,0,0,0-4.231,4.231V7.525A12.164,12.164,0,0,0-74.556,1.643,4.221,4.221,0,0,0-77.9,0Z" transform="translate(84.977)" fill="none" stroke="#000" stroke-linecap="round" stroke-linejoin="round" stroke-miterlimit="10" stroke-width="1.5"/>
          </g>
          <g id="g4872" transform="translate(18.007 23.943)">
            <path id="path4874" d="M-68.141,0h-2.847a4.221,4.221,0,0,0-3.344,1.643A12.164,12.164,0,0,0-63.91,7.525V4.231A4.231,4.231,0,0,0-68.141,0Z" transform="translate(74.332)" fill="none" stroke="#000" stroke-linecap="round" stroke-linejoin="round" stroke-miterlimit="10" stroke-width="1.5"/>
          </g>
          <g id="g4876" transform="translate(31.021 17.886)">
            <path id="path4878" d="M-40.6-66.669a3.062,3.062,0,0,0,2.433-3,3.061,3.061,0,0,0-3.061-3.061,3.061,3.061,0,0,0-3.061,3.061,3.062,3.062,0,0,0,2.433,3" transform="translate(44.293 72.726)" fill="none" stroke="#000" stroke-linecap="round" stroke-linejoin="round" stroke-miterlimit="10" stroke-width="1.5"/>
          </g>
          <g id="g4880" transform="translate(25.367 10.162)">
            <path id="path4882" d="M-40.605-66.669a3.062,3.062,0,0,0,2.433-3,3.061,3.061,0,0,0-3.061-3.061,3.061,3.061,0,0,0-3.061,3.061,3.062,3.062,0,0,0,2.433,3" transform="translate(44.295 72.726)" fill="none" stroke="#000" stroke-linecap="round" stroke-linejoin="round" stroke-miterlimit="10" stroke-width="1.5"/>
          </g>
          <g id="g4884" transform="translate(23.564 16.22)">
            <path id="path4886" d="M-107.069-19.481a4.225,4.225,0,0,0-3.44-1.77h-2.846a4.225,4.225,0,0,0-3.441,1.77" transform="translate(116.797 21.251)" fill="none" stroke="#000" stroke-linecap="round" stroke-linejoin="round" stroke-miterlimit="10" stroke-width="1.5"/>
          </g>
          <g id="g4888" transform="translate(49.181 32.867)">
            <path id="path4890" d="M0-114.175v9.686a1.867,1.867,0,0,0,1.867,1.867H4.973a1.867,1.867,0,0,0,1.867-1.867v-18.192a1.867,1.867,0,0,0-1.867-1.867H1.867A1.867,1.867,0,0,0,0-122.681v4.613" transform="translate(0 124.548)" fill="none" stroke="#000" stroke-linecap="round" stroke-linejoin="round" stroke-miterlimit="10" stroke-width="1.5"/>
          </g>
          <g id="g4892" transform="translate(0.835 36.656)">
            <path id="path4894" d="M-532.13,0h-2.455a18.619,18.619,0,0,0-9.4,2.548,18.615,18.615,0,0,1-6.792,2.364l-7.091,1.2a4.954,4.954,0,0,0-4.235,4.415l-.152.464H-565.2a4.272,4.272,0,0,1-2.428-.757l-8.341-5.762a2.872,2.872,0,0,0-3.762.436,2.872,2.872,0,0,0,.423,4.237l8.323,6.149a18.9,18.9,0,0,0,10.4,3.679l7.138.359q1.112.057,2.226.034c5-.107,6.4-.255,10.269-1.332l8.826-2.652" transform="translate(580.476)" fill="none" stroke="#000" stroke-linecap="round" stroke-linejoin="round" stroke-miterlimit="10" stroke-width="1.5"/>
          </g>
        </g>
      </g>
    </g>
  </g>
</svg>
