<svg xmlns="http://www.w3.org/2000/svg" xmlns:xlink="http://www.w3.org/1999/xlink" width="110" height="110" viewBox="0 0 110 110">
  <defs>
    <filter id="Path_982547" x="0" y="0" width="110" height="110" filterUnits="userSpaceOnUse">
      <feOffset dy="3" input="SourceAlpha"/>
      <feGaussianBlur stdDeviation="3" result="blur"/>
      <feFlood flood-opacity="0.161"/>
      <feComposite operator="in" in2="blur"/>
      <feComposite in="SourceGraphic"/>
    </filter>
    <clipPath id="clip-path">
      <path id="path1575" d="M0-682.665H56.2v56.2H0Z" transform="translate(0 682.665)"/>
    </clipPath>
  </defs>
  <g id="Group_1173564" data-name="Group 1173564" transform="translate(-813 -5939)">
    <g id="Group_1173080" data-name="Group 1173080" transform="translate(0 30)">
      <g id="Group_1172181" data-name="Group 1172181" transform="translate(13 5087)">
        <g id="Group_1171414" data-name="Group 1171414" transform="translate(-0.701 -6107)">
          <g id="Group_1163801" data-name="Group 1163801" transform="translate(-0.299 2285)">
            <g id="Group_1163014" data-name="Group 1163014" transform="translate(1 306)">
              <g id="Group_1157015" data-name="Group 1157015" transform="translate(0 3549)">
                <g id="Group_1155792" data-name="Group 1155792" transform="translate(-1 -3894.666)">
                  <g id="Group_1154703" data-name="Group 1154703" transform="translate(0 1465.666)">
                    <g id="Group_1150789" data-name="Group 1150789" transform="translate(3 2320)">
                      <g id="Group_1154212" data-name="Group 1154212" transform="translate(-236 -5809)">
                        <g id="Group_1152583" data-name="Group 1152583" transform="translate(1043 6713)">
                          <g id="Group_1146973" data-name="Group 1146973" transform="translate(0 0)">
                            <g id="Group_1146954" data-name="Group 1146954">
                              <g transform="matrix(1, 0, 0, 1, -9, -6)" filter="url(#Path_982547)">
                                <g id="Path_982547-2" data-name="Path 982547" transform="translate(9 6)" fill="#e4f2f4">
                                  <path d="M 46 90.49987030029297 C 39.99187850952148 90.49987030029297 34.16426849365234 89.32350921630859 28.67905426025391 87.00345611572266 C 23.38019943237305 84.76224517822266 18.62104034423828 81.55341339111328 14.53374671936035 77.46613311767578 C 10.44646644592285 73.37885284423828 7.237639904022217 68.61969757080078 4.996413230895996 63.32085418701172 C 2.676359891891479 57.83565521240234 1.5 52.008056640625 1.5 45.99993515014648 C 1.5 39.99181365966797 2.676359891891479 34.16421508789062 4.996413230895996 28.67901420593262 C 7.237639904022217 23.38017463684082 10.44646644592285 18.62101554870605 14.53374671936035 14.53373527526855 C 18.62104034423828 10.44645500183105 23.38019943237305 7.23762845993042 28.67905426025391 4.996415138244629 C 34.16426849365234 2.676361799240112 39.99187850952148 1.500001788139343 46 1.500001788139343 C 52.00812149047852 1.500001788139343 57.83573150634766 2.676361799240112 63.32094573974609 4.996415138244629 C 68.61979675292969 7.23762845993042 73.37895965576172 10.44645500183105 77.46625518798828 14.53373527526855 C 81.55353546142578 18.62101554870605 84.76235961914062 23.38017463684082 87.00358581542969 28.67901420593262 C 89.32363891601562 34.16421508789062 90.5 39.99181365966797 90.5 45.99993515014648 C 90.5 52.008056640625 89.32363891601562 57.83565521240234 87.00358581542969 63.32085418701172 C 84.76235961914062 68.61969757080078 81.55353546142578 73.37885284423828 77.46625518798828 77.46613311767578 C 73.37895965576172 81.55341339111328 68.61979675292969 84.76224517822266 63.32094573974609 87.00345611572266 C 57.83573150634766 89.32350921630859 52.00812149047852 90.49987030029297 46 90.49987030029297 Z" stroke="none"/>
                                  <path d="M 46 2.999992370605469 C 40.1937141418457 2.999992370605469 34.56269836425781 4.136489868164062 29.26337051391602 6.377906799316406 C 24.14332580566406 8.543502807617188 19.54441070556641 11.64437866210938 15.59439849853516 15.59437561035156 C 11.64440155029297 19.54439544677734 8.54351806640625 24.14329528808594 6.377914428710938 29.26333618164062 C 4.136497497558594 34.56264877319336 3 40.19366455078125 3 45.99993515014648 C 3 51.80620574951172 4.136497497558594 57.43720626831055 6.377914428710938 62.73651885986328 C 8.54351806640625 67.8565673828125 11.64440155029297 72.45545959472656 15.59439849853516 76.40547943115234 C 19.54441070556641 80.35547637939453 24.14332580566406 83.45635223388672 29.26337051391602 85.6219482421875 C 34.56269836425781 87.86336517333984 40.1937141418457 88.99986267089844 46 88.99986267089844 C 51.8062858581543 88.99986267089844 57.43730163574219 87.86336517333984 62.73661422729492 85.6219482421875 C 67.85667419433594 83.45635223388672 72.45557403564453 80.35547637939453 76.40558624267578 76.40547943115234 C 80.35559844970703 72.45545959472656 83.45647430419922 67.8565673828125 85.6220703125 62.73651885986328 C 87.86350250244141 57.43720626831055 89 51.80620574951172 89 45.99993515014648 C 89 40.19366455078125 87.86350250244141 34.56264877319336 85.6220703125 29.26333618164062 C 83.45647430419922 24.14329528808594 80.35559844970703 19.54439544677734 76.40558624267578 15.59437561035156 C 72.45557403564453 11.64437866210938 67.85667419433594 8.543502807617188 62.73661422729492 6.377906799316406 C 57.43730163574219 4.136489868164062 51.8062858581543 2.999992370605469 46 2.999992370605469 M 46 -7.62939453125e-06 C 71.40509033203125 -7.62939453125e-06 92 20.59486389160156 92 45.99993515014648 C 92 71.40499114990234 71.40509033203125 91.99986267089844 46 91.99986267089844 C 20.59490203857422 91.99986267089844 0 71.40499114990234 0 45.99993515014648 C 0 20.59486389160156 20.59490203857422 -7.62939453125e-06 46 -7.62939453125e-06 Z" stroke="none" fill="#01899b"/>
                                </g>
                              </g>
                            </g>
                          </g>
                        </g>
                      </g>
                    </g>
                  </g>
                </g>
              </g>
            </g>
          </g>
        </g>
      </g>
      <g id="g1569" transform="translate(840 6615.665)">
        <g id="g1571" transform="translate(0 -682.665)">
          <g id="g1573" clip-path="url(#clip-path)">
            <g id="g1579" transform="translate(7.689 10.626)">
              <path id="path1581" d="M-235.606-455.286c.656.537.982.829,1.312.841.326-.013.656-.3,1.312-.841l17.3-17.7a14.821,14.821,0,0,0,0-19.9c-4.649-4.972-12.282-3.867-17.125.895l-.91.895c-.527.518-.628.518-1.168-.013l-.895-.882c-4.834-4.765-12.476-5.867-17.125-.895a14.82,14.82,0,0,0,0,19.9l2.075,2.125Z" transform="translate(256.744 496.133)" fill="#fd8087" fill-rule="evenodd"/>
            </g>
            <g id="g1583" transform="translate(23.795 10.628)">
              <path id="path1585" d="M-111.007-26.673a21.916,21.916,0,0,1,3.933,12.5c0,.5-.019,1-.053,1.488a21.954,21.954,0,0,1-3.961,11.124,23.835,23.835,0,0,1-3.465,3.943,24.918,24.918,0,0,1-4.633,3.343q-.866.485-1.78.91l5.031,5.148c.656.537.982.829,1.312.841.326-.013.656-.3,1.312-.841l5.292-5.418L-96.014-5.925a14.868,14.868,0,0,0,2.545-16.059,14.039,14.039,0,0,0-2.545-3.842,10.334,10.334,0,0,0-2.3-1.852,11.024,11.024,0,0,0-8.886-.829,14.3,14.3,0,0,0-3.8,1.833" transform="translate(120.966 29.066)" fill="#fe636e" fill-rule="evenodd"/>
            </g>
            <g id="g1587" transform="translate(16.379 21.985)">
              <path id="path1589" d="M0-68.715H5.144l2.175-3.613L10-68.068l3.9-6.811,4.962,9.043,2.891-4.853h6.861" transform="translate(0 74.88)" fill="none" stroke="#000" stroke-linecap="round" stroke-linejoin="round" stroke-miterlimit="10" stroke-width="1.5"/>
            </g>
            <g id="g1591" transform="translate(37.505 1.262)">
              <path id="path1593" d="M-99.637-199.253a8.954,8.954,0,0,0,8.936-8.94,8.954,8.954,0,0,0-8.936-8.936,8.954,8.954,0,0,0-8.939,8.936,8.955,8.955,0,0,0,8.939,8.94" transform="translate(108.576 217.129)" fill="#f8f2f0" fill-rule="evenodd"/>
            </g>
            <g id="g1595" transform="translate(42.838 1.262)">
              <path id="path1597" d="M-4.478-6.578A8.938,8.938,0,0,1,.854,1.6c0,.057,0,.113,0,.166A8.845,8.845,0,0,1,.293,4.722,8.96,8.96,0,0,1-4.88,9.948a8.857,8.857,0,0,0,3.606.76A8.9,8.9,0,0,0,3.576,9.28,8.935,8.935,0,0,0,7.662,1.768,8.938,8.938,0,0,0-1.274-7.168a8.9,8.9,0,0,0-3.2.59" transform="translate(4.88 7.168)" fill="#e2e2e2" fill-rule="evenodd"/>
            </g>
            <g id="g1599" transform="translate(37.505 1.262)">
              <path id="path1601" d="M-37.434-21.8a8.894,8.894,0,0,1,5.581-1.955,8.938,8.938,0,0,1,8.936,8.936,8.938,8.938,0,0,1-8.936,8.94,8.939,8.939,0,0,1-8.939-8.94,8.868,8.868,0,0,1,.935-3.98" transform="translate(40.792 23.752)" fill="none" stroke="#000" stroke-linecap="round" stroke-linejoin="round" stroke-miterlimit="10" stroke-width="1.5"/>
            </g>
            <g id="g1603" transform="translate(7.689 10.626)">
              <path id="path1605" d="M-485.991-78.966a14.861,14.861,0,0,1-2.542,16.059l-12,12.287m-27.435-29.027a14.876,14.876,0,0,0,2.218,16.74l2.075,2.125.962.985m23-25.691a14.678,14.678,0,0,0-5.938,3.575l-.91.895c-.527.518-.628.518-1.168-.013l-.895-.882c-4.834-4.765-12.476-5.867-17.125-.895" transform="translate(529.592 86.05)" fill="none" stroke="#000" stroke-linecap="round" stroke-linejoin="round" stroke-miterlimit="10" stroke-width="1.5"/>
            </g>
            <g id="g1607" transform="translate(46.444 6.947)">
              <path id="path1609" d="M0-72.495V-79" transform="translate(0 78.998)" fill="none" stroke="#000" stroke-linecap="round" stroke-linejoin="round" stroke-miterlimit="10" stroke-width="1.5"/>
            </g>
            <g id="g1611" transform="translate(43.193 10.199)">
              <path id="path1613" d="M-72.488,0h-6.5" transform="translate(78.992)" fill="none" stroke="#000" stroke-linecap="round" stroke-linejoin="round" stroke-miterlimit="10" stroke-width="1.5"/>
            </g>
            <g id="g1615" transform="translate(6.614 35.378)">
              <path id="path1617" d="M-20.431-27.93l-1.833,5.945,1.833,6.3,8.443,2.3,6.849,1.861c4,1.243,5.759.534,9.435-.647l13.468-4.319c3.867-1.24,3.289-6.557-2.37-4.74l-7.53,1.472-1.23.242a8.146,8.146,0,0,1-3.92.217L-3.3-20.4-4.4-20.6a1.914,1.914,0,0,1,.647-3.764c1.456.185,3.409.449,5.078.622l.1.009c3.223.326,4.517-2.081,3.365-3.952a4.225,4.225,0,0,0-2.407-1.723l-4.535-.832c-2.941-.54-5.031.132-9.595.882l-2.571.424Z" transform="translate(22.264 30.435)" fill="#fed1a3" fill-rule="evenodd"/>
            </g>
            <g id="g1619" transform="translate(0.823 36.49)">
              <path id="path1621" d="M0-3.673V10.813a.387.387,0,0,0,.424.33H7.2a.388.388,0,0,0,.427-.33V-3.673A.388.388,0,0,0,7.2-4H.424A.387.387,0,0,0,0-3.673" transform="translate(0 4.003)" fill="#99e6fc" fill-rule="evenodd"/>
            </g>
            <g id="g1623" transform="translate(0.823 49.081)">
              <path id="path1625" d="M0,0V2.225a.387.387,0,0,0,.424.33H7.2a.388.388,0,0,0,.427-.33V0A.39.39,0,0,1,7.2.33H.424A.389.389,0,0,1,0,0" fill="#62dbfb" fill-rule="evenodd"/>
            </g>
            <g id="g1627" transform="translate(8.447 45.345)">
              <path id="path1629" d="M0-41.635v1.048l8.443,2.3,6.849,1.861c4,1.243,5.759.534,9.435-.647l13.468-4.319c2.181-.7,2.947-2.693,2.188-3.977a3.6,3.6,0,0,1-2.188,1.752L24.727-39.3c-3.676,1.177-5.439,1.89-9.435.647L8.443-40.515,0-42.816Z" transform="translate(0 45.371)" fill="#ffbc85" fill-rule="evenodd"/>
            </g>
            <g id="g1631" transform="translate(23.021 38.399)">
              <path id="path1633" d="M-23.5-9.2a1.9,1.9,0,0,0-1.761,3A1.752,1.752,0,0,1-23.5-6.977c1.456.185,3.409.449,5.078.622l.1.009c3.073.311,4.391-1.858,3.512-3.682A2.582,2.582,0,0,1-16.011-8.9a4.319,4.319,0,0,1-2.307.327l-.1-.009c-1.67-.173-3.622-.436-5.078-.622" transform="translate(25.605 10.028)" fill="#ffbc85" fill-rule="evenodd"/>
            </g>
            <g id="g1635" transform="translate(8.447 35.378)">
              <path id="path1637" d="M0-27.93v12.245l8.443,2.3,6.849,1.861c4,1.243,5.759.534,9.435-.647l13.468-4.319c3.867-1.24,3.289-6.557-2.37-4.74l-8.76,1.714a8.147,8.147,0,0,1-3.92.217l-7.109-1.3a1.914,1.914,0,0,1,.647-3.764c1.488.188,3.487.458,5.179.631,4.454.452,5.22-4.316.957-5.675l-4.535-.832c-2.941-.54-5.031.132-9.595.882Z" transform="translate(0 30.435)" fill="none" stroke="#000" stroke-linecap="round" stroke-linejoin="round" stroke-miterlimit="10" stroke-width="1.5"/>
            </g>
            <g id="g1639" transform="translate(0.823 36.49)">
              <path id="path1641" d="M-80.22,0h-6.773a.387.387,0,0,0-.424.33V14.816a.387.387,0,0,0,.424.33h6.773a.388.388,0,0,0,.427-.33V.33A.388.388,0,0,0-80.22,0Z" transform="translate(87.417)" fill="none" stroke="#000" stroke-linecap="round" stroke-linejoin="round" stroke-miterlimit="10" stroke-width="1.5"/>
            </g>
          </g>
        </g>
      </g>
    </g>
  </g>
</svg>
