<svg xmlns="http://www.w3.org/2000/svg" xmlns:xlink="http://www.w3.org/1999/xlink" width="113" height="113" viewBox="0 0 113 113">
  <defs>
    <filter id="Path_982547" x="0" y="0" width="113" height="113" filterUnits="userSpaceOnUse">
      <feOffset dy="3" input="SourceAlpha"/>
      <feGaussianBlur stdDeviation="3" result="blur"/>
      <feFlood flood-opacity="0.161"/>
      <feComposite operator="in" in2="blur"/>
      <feComposite in="SourceGraphic"/>
    </filter>
  </defs>
  <g id="Group_1173540" data-name="Group 1173540" transform="translate(-716.623 -4447.14)">
    <g id="Group_1172931" data-name="Group 1172931">
      <g id="Group_1172109" data-name="Group 1172109" transform="translate(524.623 3812.294)">
        <g id="Group_1171486" data-name="Group 1171486" transform="translate(160 -2557.154)">
          <g id="Group_1167519" data-name="Group 1167519" transform="translate(41 3198)">
            <g id="Group_1166845" data-name="Group 1166845" transform="translate(0)">
              <g id="Group_1166720" data-name="Group 1166720">
                <g id="Group_1164305" data-name="Group 1164305">
                  <g id="Group_1163948" data-name="Group 1163948">
                    <g id="Group_1158168" data-name="Group 1158168">
                      <g id="Group_1152576" data-name="Group 1152576">
                        <g id="Group_1148633" data-name="Group 1148633">
                          <g id="Group_1148525" data-name="Group 1148525">
                            <g transform="matrix(1, 0, 0, 1, -9, -6)" filter="url(#Path_982547)">
                              <g id="Path_982547-2" data-name="Path 982547" transform="translate(9 6)" fill="#f2f7f5">
                                <path d="M 47.5 93.5 C 41.28937149047852 93.5 35.26533508300781 92.28397369384766 29.59518623352051 89.88570404052734 C 24.11771965026855 87.56893157958984 19.19813346862793 84.25196075439453 14.97309303283691 80.02691650390625 C 10.74804019927979 75.80186462402344 7.431066513061523 70.88229370117188 5.114293098449707 65.40481567382812 C 2.716026782989502 59.73468017578125 1.5 53.71062850952148 1.5 47.5 C 1.5 41.28937149047852 2.716026782989502 35.26533508300781 5.114293098449707 29.59518623352051 C 7.431066513061523 24.11771965026855 10.74804019927979 19.19813346862793 14.97309303283691 14.97309303283691 C 19.19813346862793 10.74804019927979 24.11771965026855 7.431066513061523 29.59518623352051 5.114293098449707 C 35.26533508300781 2.716026782989502 41.28937149047852 1.5 47.5 1.5 C 53.71062850952148 1.5 59.73468017578125 2.716026782989502 65.40481567382812 5.114293098449707 C 70.88229370117188 7.431066513061523 75.80186462402344 10.74804019927979 80.02691650390625 14.97309303283691 C 84.25196075439453 19.19813346862793 87.56893157958984 24.11771965026855 89.88570404052734 29.59518623352051 C 92.28397369384766 35.26533508300781 93.5 41.28937149047852 93.5 47.5 C 93.5 53.71062850952148 92.28397369384766 59.73468017578125 89.88570404052734 65.40481567382812 C 87.56893157958984 70.88229370117188 84.25196075439453 75.80186462402344 80.02691650390625 80.02691650390625 C 75.80186462402344 84.25196075439453 70.88229370117188 87.56893157958984 65.40481567382812 89.88570404052734 C 59.73468017578125 92.28397369384766 53.71062850952148 93.5 47.5 93.5 Z" stroke="none"/>
                                <path d="M 47.5 3 C 41.49121475219727 3 35.66376876831055 4.176155090332031 30.17950439453125 6.495796203613281 C 24.88084411621094 8.736953735351562 20.12152099609375 11.94598388671875 16.03375244140625 16.03375244140625 C 11.94598388671875 20.12152099609375 8.736953735351562 24.88084411621094 6.495796203613281 30.17950439453125 C 4.176155090332031 35.66376876831055 3 41.49121475219727 3 47.5 C 3 53.50878524780273 4.176155090332031 59.33623123168945 6.495796203613281 64.82049560546875 C 8.736953735351562 70.11915588378906 11.94598388671875 74.87847900390625 16.03375244140625 78.96624755859375 C 20.12152099609375 83.05401611328125 24.88084411621094 86.26304626464844 30.17950439453125 88.50419616699219 C 35.66376876831055 90.82384490966797 41.49121475219727 92 47.5 92 C 53.50878524780273 92 59.33623123168945 90.82384490966797 64.82049560546875 88.50419616699219 C 70.11915588378906 86.26304626464844 74.87847900390625 83.05401611328125 78.96624755859375 78.96624755859375 C 83.05401611328125 74.87847900390625 86.26304626464844 70.11915588378906 88.50419616699219 64.82049560546875 C 90.82384490966797 59.33623123168945 92 53.50878524780273 92 47.5 C 92 41.49121475219727 90.82384490966797 35.66376876831055 88.50419616699219 30.17950439453125 C 86.26304626464844 24.88084411621094 83.05401611328125 20.12152099609375 78.96624755859375 16.03375244140625 C 74.87847900390625 11.94598388671875 70.11915588378906 8.736953735351562 64.82049560546875 6.495796203613281 C 59.33623123168945 4.176155090332031 53.50878524780273 3 47.5 3 M 47.5 0 C 73.7335205078125 0 95 21.2664794921875 95 47.5 C 95 73.7335205078125 73.7335205078125 95 47.5 95 C 21.2664794921875 95 0 73.7335205078125 0 47.5 C 0 21.2664794921875 21.2664794921875 0 47.5 0 Z" stroke="none" fill="#4a665c"/>
                              </g>
                            </g>
                          </g>
                        </g>
                      </g>
                    </g>
                  </g>
                </g>
              </g>
            </g>
          </g>
        </g>
      </g>
      <g id="compliance" transform="translate(724.19 4453.607)">
        <path id="Path_1038390" data-name="Path 1038390" d="M96.1,59.687c-.018-.017-.035-.032-.052-.05l-.537-.592H110.19a.354.354,0,1,0,0-.708H92.58l-5.794-5.8.1-.224a1.994,1.994,0,0,0-3.221-2.242L80.52,53.223V30.787A3.191,3.191,0,0,1,83.707,27.6h30.137a3.191,3.191,0,0,1,3.187,3.187V71.467a3.191,3.191,0,0,1-3.187,3.187h-6.968v-1.37a.353.353,0,0,0-.354-.354H103.85v-2.1h6.339a.354.354,0,1,0,0-.708h-6.642l-.105-.155A2.344,2.344,0,0,0,101.5,68.94H89.4a2.353,2.353,0,0,0-2.349,2.349V72.93H84.383a.353.353,0,0,0-.354.354v1.372l-.393-.044c-1.825-.2-3.113-1.181-3.113-3.145V68.729l6.24-6.242,1.9,1.895-.1.224a1.992,1.992,0,0,0,3.216,2.242l3.587-3.587H110.19a.354.354,0,1,0,0-.708H96.195l.269-.517a2.02,2.02,0,0,0,.225-.932,1.974,1.974,0,0,0-.58-1.41Z" transform="translate(-52.678 -7.938)" fill="#f1f1f2" fill-rule="evenodd"/>
        <path id="Path_1038391" data-name="Path 1038391" d="M211.517,88.21l6.914.923a3.192,3.192,0,0,1,2.737,3.579L215.8,133.036a3.2,3.2,0,0,1-3.582,2.737l-25.374-3.38.044-.661H200.3a.355.355,0,0,0,.354-.354v-2.557h6.968a3.9,3.9,0,0,0,3.895-3.895V88.21Z" transform="translate(-146.455 -61.397)" fill="#60b7ff" fill-rule="evenodd"/>
        <path id="Path_1038392" data-name="Path 1038392" d="M32.265,312.831a1.47,1.47,0,0,1-1.955.1l-.055-.045-.034-.064c-.024-.045-.058-.09-.086-.133-.458-.7-.584-1.282.061-1.928l9.22-9.221,2.072,2.068Z" transform="translate(-7.899 -249.559)" fill="#968996" fill-rule="evenodd"/>
        <path id="Path_1038393" data-name="Path 1038393" d="M168.277,54.393a32.85,32.85,0,0,1-.4,8.49,18.406,18.406,0,0,1-2.2,5.956,17.452,17.452,0,0,1-7.468,6.588l-.162.083-.162-.083a17.452,17.452,0,0,1-7.468-6.588,18.4,18.4,0,0,1-2.2-5.956,32.8,32.8,0,0,1-.4-8.49l.021-.31.31-.019a17.9,17.9,0,0,0,9.683-3.36l.209-.153.209.153a17.907,17.907,0,0,0,9.683,3.36l.31.019Z" transform="translate(-111.954 -28.181)" fill="#f1f1f2" fill-rule="evenodd"/>
        <path id="Path_1038394" data-name="Path 1038394" d="M163.649,47.715a.352.352,0,0,0-.342-.324,17.308,17.308,0,0,1-10.323-3.563.353.353,0,0,0-.435,0,17.287,17.287,0,0,1-10.323,3.563.353.353,0,0,0-.337.326c-.419,5.073-.113,10.579,2.446,15.106a18.377,18.377,0,0,0,8.275,7.4.344.344,0,0,0,.16.037.372.372,0,0,0,.156-.037,18.383,18.383,0,0,0,8.275-7.4c2.56-4.527,2.865-10.035,2.449-15.107Z" transform="translate(-106.669 -22.185)" fill="#60b7ff" fill-rule="evenodd"/>
        <path id="Path_1038395" data-name="Path 1038395" d="M105.825,249.464l.826.826-3.978,3.983-6.8-6.8,3.984-3.982,5.971,5.973Z" transform="translate(-66.217 -198.358)" fill="#968996" fill-rule="evenodd"/>
        <path id="Path_1038396" data-name="Path 1038396" d="M157.793,301.066a1.282,1.282,0,0,1,1.815,0,1.292,1.292,0,0,1,0,1.818l-4.332,4.336a1.286,1.286,0,0,1-1.818-1.82Z" transform="translate(-116.68 -248.809)" fill="#968996" fill-rule="evenodd"/>
        <path id="Path_1038397" data-name="Path 1038397" d="M80.54,286.307V281.54l.334-.019a1.976,1.976,0,0,0,.72-.178l.223-.1,1.9,1.894Z" transform="translate(-52.696 -231.654)" fill="#f1f1f2" fill-rule="evenodd"/>
        <path id="Path_1038398" data-name="Path 1038398" d="M73.738,225.705a1.286,1.286,0,1,1-1.82-1.817l4.336-4.335a1.282,1.282,0,0,1,2.19.91,1.259,1.259,0,0,1-.375.91Z" transform="translate(-44.76 -176.916)" fill="#968996" fill-rule="evenodd"/>
        <path id="Path_1038399" data-name="Path 1038399" d="M180.432,98.979a12.36,12.36,0,0,1-5.236-4.668,13.092,13.092,0,0,1-1.549-4.188,23.142,23.142,0,0,1-.3-5.926l.02-.309.308-.022a12.934,12.934,0,0,0,6.718-2.337l.206-.147.206.147a12.915,12.915,0,0,0,6.718,2.337l.308.022.02.309a23.139,23.139,0,0,1-.3,5.926A13.148,13.148,0,0,1,186,94.311a12.367,12.367,0,0,1-5.236,4.668l-.163.084Z" transform="translate(-134.496 -55.373)" fill="#f1f1f2" fill-rule="evenodd"/>
        <path id="Path_1038400" data-name="Path 1038400" d="M183.2,77.519a.355.355,0,0,0-.343-.324,12.182,12.182,0,0,1-7.355-2.537.353.353,0,0,0-.435,0,12.178,12.178,0,0,1-7.351,2.538.355.355,0,0,0-.343.324,24.546,24.546,0,0,0,.276,6.748,13.787,13.787,0,0,0,1.751,4.6,13.351,13.351,0,0,0,5.726,4.911.359.359,0,0,0,.16.037.377.377,0,0,0,.156-.037,13.375,13.375,0,0,0,5.728-4.913,13.782,13.782,0,0,0,1.753-4.6,24.5,24.5,0,0,0,.278-6.748Z" transform="translate(-129.191 -49.378)" fill="#ffd064" fill-rule="evenodd"/>
        <path id="Path_1038401" data-name="Path 1038401" d="M116.27,417.83H137.7v3.926H116.27Z" transform="translate(-84.21 -352.129)" fill="#87d4ed" fill-rule="evenodd"/>
        <path id="Path_1038402" data-name="Path 1038402" d="M141.91,387.292v-1.641a1.643,1.643,0,0,1,1.64-1.641h12.1a1.643,1.643,0,0,1,1.64,1.641v1.641Z" transform="translate(-106.825 -322.299)" fill="#87d4ed" fill-rule="evenodd"/>
        <path id="Path_1038403" data-name="Path 1038403" d="M48.8,59.187a.708.708,0,0,1,.708-.708h8.006a.708.708,0,1,1,0,1.416H49.505A.708.708,0,0,1,48.8,59.187Zm1.344-27.122a.7.7,0,0,1,0,1l-4.514,4.514a.7.7,0,0,1-1,0l-2.577-2.573a.708.708,0,1,1,1-1l2.076,2.073,4.012-4.012a.7.7,0,0,1,1,0ZM46.1,43.292c3.806-1.969,7.481-5.309,6.9-14.447a13.255,13.255,0,0,1-6.9-2.4,13.26,13.26,0,0,1-6.9,2.4c-.583,9.138,3.092,12.476,6.9,14.447Zm7.583-15.828A11.813,11.813,0,0,1,46.533,25a.707.707,0,0,0-.872,0,11.805,11.805,0,0,1-7.145,2.462.708.708,0,0,0-.684.649c-.886,10.77,3.781,14.532,7.948,16.607a.716.716,0,0,0,.317.074.689.689,0,0,0,.313-.074c4.167-2.075,8.84-5.838,7.953-16.607A.7.7,0,0,0,53.682,27.464ZM46.1,46.93c5.462-2.793,10.781-7.521,9.87-20.694a18.214,18.214,0,0,1-9.87-3.427,18.214,18.214,0,0,1-9.87,3.427C35.318,39.409,40.637,44.138,46.1,46.93Zm10.55-22.08a16.927,16.927,0,0,1-10.117-3.487.707.707,0,0,0-.872,0A16.9,16.9,0,0,1,35.543,24.85a.708.708,0,0,0-.68.65c-.53,6.405.289,11.412,2.491,15.31a18.622,18.622,0,0,0,8.425,7.546.716.716,0,0,0,.317.074.689.689,0,0,0,.313-.074,18.611,18.611,0,0,0,8.425-7.546c2.206-3.9,3.02-8.905,2.5-15.31a.7.7,0,0,0-.681-.65Zm17.713,6.417a2.835,2.835,0,0,0-2.433-3.182l-6.514-.868V63.53a4.255,4.255,0,0,1-4.248,4.248H54.554v2.2a.708.708,0,0,1-.708.708H40.762l25.045,3.336a2.839,2.839,0,0,0,3.184-2.433ZM32.413,66.055H53.138v3.218H32.413Zm17.7-2.7v1.287H35.438V63.351a1.289,1.289,0,0,1,1.286-1.287h12.1A1.289,1.289,0,0,1,50.112,63.351ZM31,65.347a.708.708,0,0,1,.708-.708h2.317V63.352a2.707,2.707,0,0,1,2.7-2.7h12.1a2.7,2.7,0,0,1,2.231,1.181h6.455a.708.708,0,0,1,0,1.416H51.529v1.393h2.317a.708.708,0,0,1,.708.708v1.016h6.614A2.837,2.837,0,0,0,64,63.53V22.848a2.837,2.837,0,0,0-2.833-2.833H31.031A2.837,2.837,0,0,0,28.2,22.848V44.429l2.544-2.542a2.349,2.349,0,0,1,3.792,2.642l5.516,5.517H57.511a.708.708,0,1,1,0,1.416H43.632c.014.017.034.029.048.046a2.324,2.324,0,0,1,.684,1.66,2.368,2.368,0,0,1-.265,1.1H57.511a.708.708,0,1,1,0,1.416H42.829l-3.483,3.483a2.344,2.344,0,0,1-3.787-2.64l-1.474-1.47L28.2,60.939V63.53c0,2.058,1.531,2.653,2.8,2.794Zm-6.878-2.328a1.109,1.109,0,0,1-.786.322,1.1,1.1,0,0,1-.7-.245c-.028-.054-.067-.106-.1-.159-.386-.591-.486-.983.014-1.484l8.97-8.971,1.57,1.568Zm4.08-12.8a2.337,2.337,0,0,0,.848-.21l1.474,1.47L28.2,53.8Zm4.861-6.016L28.728,48.54a.932.932,0,0,1-1.32-1.317l4.336-4.335a.934.934,0,0,1,1.314,0,.939.939,0,0,1,0,1.317Zm6.2,7.047h0l.68.68-3.478,3.482-6.3-6.3,3.483-3.482Zm3.425,2.573L38.348,58.16a.932.932,0,0,1-1.319-1.318l4.336-4.335a.929.929,0,0,1,1.314,0,.939.939,0,0,1,0,1.318ZM72.117,26.682l-6.7-.892V22.848A4.254,4.254,0,0,0,61.168,18.6H31.031a4.254,4.254,0,0,0-4.248,4.248v23l-.376.375a2.356,2.356,0,0,0,0,3.32,2.563,2.563,0,0,0,.376.3v5.37l-5.236,5.236a2.359,2.359,0,0,0-.2,3.257.416.416,0,0,0,.039.055.653.653,0,0,0,.164.256,2.526,2.526,0,0,0,3.565,0l1.667-1.666v1.175c0,2.41,1.6,3.979,4.215,4.217V69.98a.708.708,0,0,0,.708.708h2.134a4.221,4.221,0,0,0,1.912.76l29.868,3.981a4.424,4.424,0,0,0,.564.038A4.257,4.257,0,0,0,70.4,71.778l5.376-40.324a4.264,4.264,0,0,0-3.656-4.772Z" fill-rule="evenodd"/>
      </g>
    </g>
  </g>
</svg>
