<svg xmlns="http://www.w3.org/2000/svg" xmlns:xlink="http://www.w3.org/1999/xlink" width="110" height="110" viewBox="0 0 110 110">
  <defs>
    <filter id="Path_982547" x="0" y="0" width="110" height="110" filterUnits="userSpaceOnUse">
      <feOffset dy="3" input="SourceAlpha"/>
      <feGaussianBlur stdDeviation="3" result="blur"/>
      <feFlood flood-opacity="0.161"/>
      <feComposite operator="in" in2="blur"/>
      <feComposite in="SourceGraphic"/>
    </filter>
  </defs>
  <g id="Group_1173547" data-name="Group 1173547" transform="translate(-1106 -6396)">
    <g id="Group_1173069" data-name="Group 1173069">
      <g id="Group_1172123" data-name="Group 1172123" transform="translate(306 5574)">
        <g id="Group_1171414" data-name="Group 1171414" transform="translate(-0.701 -6107)">
          <g id="Group_1163801" data-name="Group 1163801" transform="translate(-0.299 2285)">
            <g id="Group_1163014" data-name="Group 1163014" transform="translate(1 306)">
              <g id="Group_1157015" data-name="Group 1157015" transform="translate(0 3549)">
                <g id="Group_1155792" data-name="Group 1155792" transform="translate(-1 -3894.666)">
                  <g id="Group_1154703" data-name="Group 1154703" transform="translate(0 1465.666)">
                    <g id="Group_1150789" data-name="Group 1150789" transform="translate(3 2320)">
                      <g id="Group_1154212" data-name="Group 1154212" transform="translate(-236 -5809)">
                        <g id="Group_1152583" data-name="Group 1152583" transform="translate(1043 6713)">
                          <g id="Group_1146973" data-name="Group 1146973" transform="translate(0 0)">
                            <g id="Group_1146954" data-name="Group 1146954">
                              <g transform="matrix(1, 0, 0, 1, -9, -6)" filter="url(#Path_982547)">
                                <g id="Path_982547-2" data-name="Path 982547" transform="translate(9 6)" fill="#e4f2f4">
                                  <path d="M 46 90.49987030029297 C 39.99187850952148 90.49987030029297 34.16426849365234 89.32350921630859 28.67905426025391 87.00345611572266 C 23.38019943237305 84.76224517822266 18.62104034423828 81.55341339111328 14.53374671936035 77.46613311767578 C 10.44646644592285 73.37885284423828 7.237639904022217 68.61969757080078 4.996413230895996 63.32085418701172 C 2.676359891891479 57.83565521240234 1.5 52.008056640625 1.5 45.99993515014648 C 1.5 39.99181365966797 2.676359891891479 34.16421508789062 4.996413230895996 28.67901420593262 C 7.237639904022217 23.38017463684082 10.44646644592285 18.62101554870605 14.53374671936035 14.53373527526855 C 18.62104034423828 10.44645500183105 23.38019943237305 7.23762845993042 28.67905426025391 4.996415138244629 C 34.16426849365234 2.676361799240112 39.99187850952148 1.500001788139343 46 1.500001788139343 C 52.00812149047852 1.500001788139343 57.83573150634766 2.676361799240112 63.32094573974609 4.996415138244629 C 68.61979675292969 7.23762845993042 73.37895965576172 10.44645500183105 77.46625518798828 14.53373527526855 C 81.55353546142578 18.62101554870605 84.76235961914062 23.38017463684082 87.00358581542969 28.67901420593262 C 89.32363891601562 34.16421508789062 90.5 39.99181365966797 90.5 45.99993515014648 C 90.5 52.008056640625 89.32363891601562 57.83565521240234 87.00358581542969 63.32085418701172 C 84.76235961914062 68.61969757080078 81.55353546142578 73.37885284423828 77.46625518798828 77.46613311767578 C 73.37895965576172 81.55341339111328 68.61979675292969 84.76224517822266 63.32094573974609 87.00345611572266 C 57.83573150634766 89.32350921630859 52.00812149047852 90.49987030029297 46 90.49987030029297 Z" stroke="none"/>
                                  <path d="M 46 2.999992370605469 C 40.1937141418457 2.999992370605469 34.56269836425781 4.136489868164062 29.26337051391602 6.377906799316406 C 24.14332580566406 8.543502807617188 19.54441070556641 11.64437866210938 15.59439849853516 15.59437561035156 C 11.64440155029297 19.54439544677734 8.54351806640625 24.14329528808594 6.377914428710938 29.26333618164062 C 4.136497497558594 34.56264877319336 3 40.19366455078125 3 45.99993515014648 C 3 51.80620574951172 4.136497497558594 57.43720626831055 6.377914428710938 62.73651885986328 C 8.54351806640625 67.8565673828125 11.64440155029297 72.45545959472656 15.59439849853516 76.40547943115234 C 19.54441070556641 80.35547637939453 24.14332580566406 83.45635223388672 29.26337051391602 85.6219482421875 C 34.56269836425781 87.86336517333984 40.1937141418457 88.99986267089844 46 88.99986267089844 C 51.8062858581543 88.99986267089844 57.43730163574219 87.86336517333984 62.73661422729492 85.6219482421875 C 67.85667419433594 83.45635223388672 72.45557403564453 80.35547637939453 76.40558624267578 76.40547943115234 C 80.35559844970703 72.45545959472656 83.45647430419922 67.8565673828125 85.6220703125 62.73651885986328 C 87.86350250244141 57.43720626831055 89 51.80620574951172 89 45.99993515014648 C 89 40.19366455078125 87.86350250244141 34.56264877319336 85.6220703125 29.26333618164062 C 83.45647430419922 24.14329528808594 80.35559844970703 19.54439544677734 76.40558624267578 15.59437561035156 C 72.45557403564453 11.64437866210938 67.85667419433594 8.543502807617188 62.73661422729492 6.377906799316406 C 57.43730163574219 4.136489868164062 51.8062858581543 2.999992370605469 46 2.999992370605469 M 46 -7.62939453125e-06 C 71.40509033203125 -7.62939453125e-06 92 20.59486389160156 92 45.99993515014648 C 92 71.40499114990234 71.40509033203125 91.99986267089844 46 91.99986267089844 C 20.59490203857422 91.99986267089844 0 71.40499114990234 0 45.99993515014648 C 0 20.59486389160156 20.59490203857422 -7.62939453125e-06 46 -7.62939453125e-06 Z" stroke="none" fill="#01899b"/>
                                </g>
                              </g>
                            </g>
                          </g>
                        </g>
                      </g>
                    </g>
                  </g>
                </g>
              </g>
            </g>
          </g>
        </g>
      </g>
      <g id="ethics" transform="translate(1113.936 6419)">
        <g id="Group_1173067" data-name="Group 1173067" transform="translate(20.901 0.852)">
          <g id="Group_1173066" data-name="Group 1173066" transform="translate(0)">
            <g id="Group_1173064" data-name="Group 1173064" transform="translate(0 11.659)">
              <g id="Group_1173062" data-name="Group 1173062" transform="translate(0.446 16.587)">
                <path id="Path_1038766" data-name="Path 1038766" d="M0,0H22.228V4.962H0Z" transform="translate(27.528 0) rotate(90)" fill="#d6694b"/>
                <path id="Path_1038767" data-name="Path 1038767" d="M164.754,431.69h-2.6a1.8,1.8,0,0,0-.355-3.56h-8.947a1.8,1.8,0,0,0-.355,3.56h-2.6a4.969,4.969,0,0,0-4.969,4.969v.006h24.8v-.006A4.969,4.969,0,0,0,164.754,431.69Z" transform="translate(-132.276 -409.462)" fill="#ffe177"/>
                <path id="Path_1038768" data-name="Path 1038768" d="M263.582,431.69h-2.6a1.8,1.8,0,0,0-.355-3.56h-4.463a1.8,1.8,0,0,1,.355,3.56h2.6a4.969,4.969,0,0,1,4.969,4.969v.006h4.463v-.006A4.968,4.968,0,0,0,263.582,431.69Z" transform="translate(-231.104 -409.462)" fill="#ffd15b"/>
                <g id="Group_1173061" data-name="Group 1173061" transform="translate(0 12.337)">
                  <g id="Group_1173059" data-name="Group 1173059">
                    <path id="Path_1038769" data-name="Path 1038769" d="M38.982,378.7a7.4,7.4,0,0,1-7.417-7.316H46.289a7.39,7.39,0,0,1-7.307,7.316Z" transform="translate(-31.565 -371.387)" fill="#ffc344"/>
                  </g>
                  <g id="Group_1173060" data-name="Group 1173060" transform="translate(35.37)">
                    <path id="Path_1038770" data-name="Path 1038770" d="M356.008,378.7a7.4,7.4,0,0,1-7.417-7.316h14.724A7.391,7.391,0,0,1,356.008,378.7Z" transform="translate(-348.591 -371.387)" fill="#ffc344"/>
                  </g>
                </g>
              </g>
              <path id="Path_1038771" data-name="Path 1038771" d="M73.589,123.741H67.14a4.751,4.751,0,0,1-4.117-2.455,5.123,5.123,0,0,0-4.674-2.52V117.42a5.291,5.291,0,1,0-10.581,0v1.347a5.118,5.118,0,0,0-4.674,2.52,4.751,4.751,0,0,1-4.117,2.455H32.527a4.969,4.969,0,0,0-4.962,4.975H78.551A4.969,4.969,0,0,0,73.589,123.741Z" transform="translate(-27.565 -112.129)" fill="#ffe177"/>
              <g id="Group_1173063" data-name="Group 1173063" transform="translate(23.262)">
                <path id="Path_1038772" data-name="Path 1038772" d="M239.124,117.42v1.347a5.123,5.123,0,0,1,4.674,2.52,4.751,4.751,0,0,0,4.117,2.455h4.463a4.751,4.751,0,0,1-4.117-2.455,5.123,5.123,0,0,0-4.674-2.52V117.42a5.291,5.291,0,0,0-7.522-4.8A5.29,5.29,0,0,1,239.124,117.42Z" transform="translate(-236.065 -112.129)" fill="#ffd15b"/>
                <path id="Path_1038773" data-name="Path 1038773" d="M404.55,216.214h-4.463a4.969,4.969,0,0,1,4.962,4.975h4.463A4.969,4.969,0,0,0,404.55,216.214Z" transform="translate(-381.788 -204.602)" fill="#ffd15b"/>
              </g>
            </g>
            <circle id="Ellipse_12059" data-name="Ellipse 12059" cx="7.32" cy="7.32" r="7.32" transform="translate(0.488)" fill="#80d261"/>
            <g id="Group_1173065" data-name="Group 1173065" transform="translate(35.858)">
              <circle id="Ellipse_12060" data-name="Ellipse 12060" cx="7.32" cy="7.32" r="7.32" fill="#fe5694"/>
            </g>
          </g>
          <circle id="Ellipse_12061" data-name="Ellipse 12061" cx="1.785" cy="1.785" r="1.785" transform="translate(23.708 15.266)" fill="#d6694b"/>
        </g>
        <g id="Group_1173068" data-name="Group 1173068" transform="translate(20.064 0)">
          <path id="Path_1038774" data-name="Path 1038774" d="M71.887,123.224a.837.837,0,0,0,.837-.837,5.812,5.812,0,0,0-5.8-5.812H60.476a3.934,3.934,0,0,1-3.389-2.031,5.89,5.89,0,0,0-4.565-2.914,6.146,6.146,0,1,0-12.255,0,5.9,5.9,0,0,0-4.565,2.912,3.934,3.934,0,0,1-3.389,2.031H25.863a5.812,5.812,0,0,0-5.8,5.812.837.837,0,0,0,.837.837h6.554L23.02,133.888H21.347a.837.837,0,0,0-.837.845,8.2,8.2,0,0,0,16.4,0,.837.837,0,0,0-.837-.845H34.4l-4.435-10.664H43.076v16.994H41.92a2.647,2.647,0,0,0-2.466,3.56,5.912,5.912,0,0,0-6.3,5.812.837.837,0,0,0,.837.837h24.8a.842.842,0,0,0,.837-.843,5.911,5.911,0,0,0-6.3-5.805,2.647,2.647,0,0,0-2.466-3.56H49.712V123.224H62.825L58.39,133.888H56.717a.837.837,0,0,0-.837.845,8.248,8.248,0,0,0,8.257,8.144.837.837,0,0,0,0-1.674,6.575,6.575,0,0,1-6.518-5.643H70.539a6.661,6.661,0,0,1-3.552,4.962.837.837,0,1,0,.755,1.494,8.337,8.337,0,0,0,4.536-7.284.837.837,0,0,0-.837-.845H69.767l-4.435-10.664ZM28.764,141.2h-.027a6.574,6.574,0,0,1-6.49-5.643H35.172A6.525,6.525,0,0,1,28.764,141.2Zm-3.932-7.316,3.877-9.321,3.876,9.321Zm27,8.965a.963.963,0,0,1-.77.942.839.839,0,0,0,.165,1.657h2.6a4.139,4.139,0,0,1,4.047,3.3H34.915a4.139,4.139,0,0,1,4.048-3.3h2.6a.839.839,0,0,0,.165-1.657.962.962,0,0,1,.191-1.9h8.947A.962.962,0,0,1,51.828,142.853Zm-7.079-2.634V123.224h3.289v16.994ZM60.2,133.888l3.876-9.321,3.877,9.321ZM25.863,118.25h6.449a5.609,5.609,0,0,0,4.845-2.879,4.3,4.3,0,0,1,3.921-2.1.837.837,0,0,0,.862-.836v-1.347a4.454,4.454,0,1,1,8.908,0v1.347a.837.837,0,0,0,.864.836,4.287,4.287,0,0,1,3.919,2.1,5.609,5.609,0,0,0,4.845,2.879h6.449a4.136,4.136,0,0,1,4.041,3.3H21.822a4.136,4.136,0,0,1,4.041-3.3Z" transform="translate(-20.064 -93.29)"/>
          <path id="Path_1038775" data-name="Path 1038775" d="M32.549,16.329A8.158,8.158,0,1,0,29,.826a.837.837,0,0,0,.729,1.506,6.515,6.515,0,0,1,9.3,5.839c-.326,8.589-12.642,8.587-12.967,0a6.447,6.447,0,0,1,1.127-3.655.837.837,0,0,0-1.381-.945A8.19,8.19,0,0,0,32.549,16.329Z" transform="translate(-23.904 0)"/>
          <path id="Path_1038776" data-name="Path 1038776" d="M65.466,51.755a.834.834,0,0,0,.592-.245l4.5-4.5a.837.837,0,0,0-1.183-1.183l-3.906,3.906-.921-.921A.837.837,0,0,0,63.361,50l1.513,1.513A.834.834,0,0,0,65.466,51.755Z" transform="translate(-58.313 -40.499)"/>
          <path id="Path_1038777" data-name="Path 1038777" d="M349.622,16.867a8.166,8.166,0,0,0,8.157-8.157c-.41-10.806-15.905-10.8-16.314,0A8.166,8.166,0,0,0,349.622,16.867Zm0-14.64a6.491,6.491,0,0,1,6.483,6.483c-.326,8.589-12.642,8.587-12.967,0A6.491,6.491,0,0,1,349.622,2.227Z" transform="translate(-305.607 -0.539)"/>
          <path id="Path_1038778" data-name="Path 1038778" d="M387.165,51.51a.837.837,0,0,0,1.183,0l1.657-1.657,1.657,1.657a.837.837,0,0,0,1.183-1.183l-1.657-1.657,1.657-1.657a.837.837,0,1,0-1.183-1.183l-1.657,1.657-1.657-1.657a.837.837,0,0,0-1.183,1.183l1.657,1.657-1.657,1.657A.837.837,0,0,0,387.165,51.51Z" transform="translate(-345.991 -40.499)"/>
          <path id="Path_1038779" data-name="Path 1038779" d="M235.187,142.343a2.622,2.622,0,1,0-2.622-2.622A2.625,2.625,0,0,0,235.187,142.343Zm0-3.57a.948.948,0,1,1-.948.948A.949.949,0,0,1,235.187,138.773Z" transform="translate(-208.857 -121.819)"/>
          <path id="Path_1038780" data-name="Path 1038780" d="M204.909,213.629H192.116a.837.837,0,0,0,0,1.673h12.793A.837.837,0,0,0,204.909,213.629Z" transform="translate(-172.183 -189.795)"/>
        </g>
      </g>
    </g>
  </g>
</svg>
