<svg xmlns="http://www.w3.org/2000/svg" xmlns:xlink="http://www.w3.org/1999/xlink" width="110" height="110" viewBox="0 0 110 110">
  <defs>
    <filter id="Path_982547" x="0" y="0" width="110" height="110" filterUnits="userSpaceOnUse">
      <feOffset dy="3" input="SourceAlpha"/>
      <feGaussianBlur stdDeviation="3" result="blur"/>
      <feFlood flood-opacity="0.161"/>
      <feComposite operator="in" in2="blur"/>
      <feComposite in="SourceGraphic"/>
    </filter>
  </defs>
  <g id="Group_1173548" data-name="Group 1173548" transform="translate(-1421 -6397)">
    <g id="Group_1173072" data-name="Group 1173072">
      <g id="Group_1172124" data-name="Group 1172124" transform="translate(306 5574)">
        <g id="Group_1171416" data-name="Group 1171416" transform="translate(-0.701 -6107)">
          <g id="Group_1163803" data-name="Group 1163803" transform="translate(-0.494 2285.316)">
            <g id="Group_1163015" data-name="Group 1163015" transform="translate(1.195 305.685)">
              <g id="Group_1157017" data-name="Group 1157017" transform="translate(0 3549)">
                <g id="Group_1155793" data-name="Group 1155793" transform="translate(-0.999 -3894)">
                  <g id="Group_1154704" data-name="Group 1154704" transform="translate(0 1466)">
                    <g id="Group_1150790" data-name="Group 1150790" transform="translate(3 2320)">
                      <g id="Group_1154214" data-name="Group 1154214" transform="translate(79 -5809)">
                        <g id="Group_1152583" data-name="Group 1152583" transform="translate(1043 6713)">
                          <g id="Group_1146973" data-name="Group 1146973" transform="translate(0 0)">
                            <g id="Group_1146954" data-name="Group 1146954">
                              <g transform="matrix(1, 0, 0, 1, -9, -6)" filter="url(#Path_982547)">
                                <g id="Path_982547-2" data-name="Path 982547" transform="translate(9 6)" fill="#e4f2f4">
                                  <path d="M 46 90.49987030029297 C 39.99187850952148 90.49987030029297 34.16426849365234 89.32350921630859 28.67905426025391 87.00345611572266 C 23.38019943237305 84.76224517822266 18.62104034423828 81.55341339111328 14.53374671936035 77.46613311767578 C 10.44646644592285 73.37885284423828 7.237639904022217 68.61969757080078 4.996413230895996 63.32085418701172 C 2.676359891891479 57.83565521240234 1.5 52.008056640625 1.5 45.99993515014648 C 1.5 39.99181365966797 2.676359891891479 34.16421508789062 4.996413230895996 28.67901420593262 C 7.237639904022217 23.38017463684082 10.44646644592285 18.62101554870605 14.53374671936035 14.53373527526855 C 18.62104034423828 10.44645500183105 23.38019943237305 7.23762845993042 28.67905426025391 4.996415138244629 C 34.16426849365234 2.676361799240112 39.99187850952148 1.500001788139343 46 1.500001788139343 C 52.00812149047852 1.500001788139343 57.83573150634766 2.676361799240112 63.32094573974609 4.996415138244629 C 68.61979675292969 7.23762845993042 73.37895965576172 10.44645500183105 77.46625518798828 14.53373527526855 C 81.55353546142578 18.62101554870605 84.76235961914062 23.38017463684082 87.00358581542969 28.67901420593262 C 89.32363891601562 34.16421508789062 90.5 39.99181365966797 90.5 45.99993515014648 C 90.5 52.008056640625 89.32363891601562 57.83565521240234 87.00358581542969 63.32085418701172 C 84.76235961914062 68.61969757080078 81.55353546142578 73.37885284423828 77.46625518798828 77.46613311767578 C 73.37895965576172 81.55341339111328 68.61979675292969 84.76224517822266 63.32094573974609 87.00345611572266 C 57.83573150634766 89.32350921630859 52.00812149047852 90.49987030029297 46 90.49987030029297 Z" stroke="none"/>
                                  <path d="M 46 2.999992370605469 C 40.1937141418457 2.999992370605469 34.56269836425781 4.136489868164062 29.26337051391602 6.377906799316406 C 24.14332580566406 8.543502807617188 19.54441070556641 11.64437866210938 15.59439849853516 15.59437561035156 C 11.64440155029297 19.54439544677734 8.54351806640625 24.14329528808594 6.377914428710938 29.26333618164062 C 4.136497497558594 34.56264877319336 3 40.19366455078125 3 45.99993515014648 C 3 51.80620574951172 4.136497497558594 57.43720626831055 6.377914428710938 62.73651885986328 C 8.54351806640625 67.8565673828125 11.64440155029297 72.45545959472656 15.59439849853516 76.40547943115234 C 19.54441070556641 80.35547637939453 24.14332580566406 83.45635223388672 29.26337051391602 85.6219482421875 C 34.56269836425781 87.86336517333984 40.1937141418457 88.99986267089844 46 88.99986267089844 C 51.8062858581543 88.99986267089844 57.43730163574219 87.86336517333984 62.73661422729492 85.6219482421875 C 67.85667419433594 83.45635223388672 72.45557403564453 80.35547637939453 76.40558624267578 76.40547943115234 C 80.35559844970703 72.45545959472656 83.45647430419922 67.8565673828125 85.6220703125 62.73651885986328 C 87.86350250244141 57.43720626831055 89 51.80620574951172 89 45.99993515014648 C 89 40.19366455078125 87.86350250244141 34.56264877319336 85.6220703125 29.26333618164062 C 83.45647430419922 24.14329528808594 80.35559844970703 19.54439544677734 76.40558624267578 15.59437561035156 C 72.45557403564453 11.64437866210938 67.85667419433594 8.543502807617188 62.73661422729492 6.377906799316406 C 57.43730163574219 4.136489868164062 51.8062858581543 2.999992370605469 46 2.999992370605469 M 46 -7.62939453125e-06 C 71.40509033203125 -7.62939453125e-06 92 20.59486389160156 92 45.99993515014648 C 92 71.40499114990234 71.40509033203125 91.99986267089844 46 91.99986267089844 C 20.59490203857422 91.99986267089844 0 71.40499114990234 0 45.99993515014648 C 0 20.59486389160156 20.59490203857422 -7.62939453125e-06 46 -7.62939453125e-06 Z" stroke="none" fill="#01899b"/>
                                </g>
                              </g>
                            </g>
                          </g>
                        </g>
                      </g>
                    </g>
                  </g>
                </g>
              </g>
            </g>
          </g>
        </g>
      </g>
      <g id="flags_9531199" transform="translate(1440.5 6413.5)">
        <g id="Group_1173070" data-name="Group 1173070" transform="translate(7.5 7.5)">
          <rect id="Rectangle_414529" data-name="Rectangle 414529" width="15.051" height="9.198" transform="translate(7.638 3.345)" fill="#fdef8e"/>
          <path id="Path_1038781" data-name="Path 1038781" d="M171.018,69.861v5.59H166v3.608h15.051V75.451h-5.017v-5.59Z" transform="translate(-148.329 -62.908)" fill="#5ceaee" fill-rule="evenodd"/>
          <rect id="Rectangle_414530" data-name="Rectangle 414530" width="15.051" height="9.198" transform="translate(27.706 3.345)" fill="#69a2ff"/>
          <path id="Path_1038782" data-name="Path 1038782" d="M346,73.353V76.7H361.05V67.5H351.016v5.853Z" transform="translate(-308.259 -60.81)" fill="#6bd24d" fill-rule="evenodd"/>
          <path id="Path_1038783" data-name="Path 1038783" d="M58.726,259.345a2.516,2.516,0,0,0-2.509,2.509v8.058a4.181,4.181,0,1,1-8.362,0v-4.838a2.516,2.516,0,0,0-2.509-2.509h-2.2a2.516,2.516,0,0,0-2.509,2.509v4.759A27.724,27.724,0,0,0,78.3,280.114a2.516,2.516,0,0,0-2.5-2.373,2.509,2.509,0,1,1,0-5.017h1.631a2.509,2.509,0,0,0,0-5.017H75.1a4.181,4.181,0,1,1,0-8.362h6.386a2.516,2.516,0,0,0,2.509-2.509V256H63.7c0,2.216-1.227,3.345-2.676,3.345h-2.3Z" transform="translate(-36.943 -228.294)" fill="#acf3f9" fill-rule="evenodd"/>
          <path id="Path_1038784" data-name="Path 1038784" d="M45.656,259.344a4.181,4.181,0,1,0,0,8.362h2.329a2.509,2.509,0,1,1,0,5.017H46.354a2.509,2.509,0,1,0,0,5.017,2.516,2.516,0,0,1,2.5,2.373A27.7,27.7,0,0,0,62.912,256H54.55v.836a2.516,2.516,0,0,1-2.509,2.509H45.656ZM7.5,256a27.578,27.578,0,0,0,3.695,13.832v-4.759a2.516,2.516,0,0,1,2.509-2.509h2.2a2.516,2.516,0,0,1,2.509,2.509v4.838a4.181,4.181,0,1,0,8.362,0v-8.058a2.516,2.516,0,0,1,2.509-2.509h2.3c1.449,0,2.676-1.129,2.676-3.345H7.5Z" transform="translate(-7.5 -228.293)" fill="#a9e899" fill-rule="evenodd"/>
          <path id="Path_1038785" data-name="Path 1038785" d="M62.674,10.845A1.672,1.672,0,1,0,61,9.172a1.672,1.672,0,0,0,1.672,1.672Zm18.4-1.672A1.672,1.672,0,1,0,82.743,7.5,1.672,1.672,0,0,0,81.071,9.172Z" transform="translate(-55.037 -7.5)" fill="#fdef8e" fill-rule="evenodd"/>
          <path id="Path_1038786" data-name="Path 1038786" d="M64.347,227.672a1.672,1.672,0,0,0-3.345,0v1.672h3.345v-1.672Zm26.758,0v1.672H94.45v-1.672a1.672,1.672,0,0,0-3.345,0Zm-10.034,0v1.672h3.345v-1.672a1.672,1.672,0,0,0-3.345,0Zm-10.034,0v1.672h3.345v-1.672a1.672,1.672,0,0,0-3.345,0Z" transform="translate(-55.037 -201.639)" fill="#fee026" fill-rule="evenodd"/>
          <path id="Path_1038787" data-name="Path 1038787" d="M7.5,256a27.578,27.578,0,0,0,3.695,13.832v-4.759a2.487,2.487,0,0,1,.1-.709A27.671,27.671,0,0,1,10.009,256Z" transform="translate(-7.5 -228.294)" fill="#6bd24d" fill-rule="evenodd"/>
          <path id="Path_1038788" data-name="Path 1038788" d="M40.741,331.025a2.487,2.487,0,0,0-.1.709v4.759a27.7,27.7,0,0,0,24.011,13.874q.639,0,1.271-.029A27.708,27.708,0,0,1,40.741,331.025Z" transform="translate(-36.943 -294.954)" fill="#5ceaee" fill-rule="evenodd"/>
          <rect id="Rectangle_414531" data-name="Rectangle 414531" width="2.509" height="9.198" transform="translate(7.638 3.345)" fill="#fee026"/>
          <rect id="Rectangle_414532" data-name="Rectangle 414532" width="2.509" height="9.198" transform="translate(27.706 3.345)" fill="#3469f5"/>
          <path id="Path_1038789" data-name="Path 1038789" d="M326.844,67.5h1.672m-5.017,0h1.672" transform="translate(-288.267 -60.81)" fill="none" stroke="#fff" stroke-miterlimit="22.926" stroke-width="1.5" fill-rule="evenodd"/>
        </g>
        <g id="Group_1173071" data-name="Group 1173071" transform="translate(7.5 7.5)">
          <path id="Path_1038790" data-name="Path 1038790" d="M55.4,274.97A27.607,27.607,0,0,0,62.912,256H7.5a27.7,27.7,0,0,0,46.676,20.191" transform="translate(-7.5 -228.294)" fill="none" stroke="#000" stroke-miterlimit="22.926" stroke-width="1.5" fill-rule="evenodd"/>
          <path id="Path_1038791" data-name="Path 1038791" d="M63.7,256c0,2.216-1.227,3.345-2.676,3.345h-2.3a2.516,2.516,0,0,0-2.509,2.509v8.058a4.181,4.181,0,1,1-8.362,0v-4.838a2.516,2.516,0,0,0-2.509-2.509h-2.2a2.516,2.516,0,0,0-2.509,2.509v4.759" transform="translate(-36.943 -228.294)" fill="none" stroke="#000" stroke-miterlimit="22.926" stroke-width="1.5" fill-rule="evenodd"/>
          <path id="Path_1038792" data-name="Path 1038792" d="M319.609,280.114a2.516,2.516,0,0,0-2.5-2.373,2.509,2.509,0,0,1,0-5.017h1.631a2.509,2.509,0,0,0,0-5.017H316.4a4.181,4.181,0,1,1,0-8.362h6.386a2.516,2.516,0,0,0,2.509-2.509V256" transform="translate(-278.249 -228.294)" fill="none" stroke="#000" stroke-miterlimit="22.926" stroke-width="1.5" fill-rule="evenodd"/>
          <path id="Path_1038793" data-name="Path 1038793" d="M241,229.345v-1.672a1.672,1.672,0,0,1,3.345,0v1.672" transform="translate(-214.966 -201.639)" fill="none" stroke="#000" stroke-miterlimit="22.926" stroke-width="1.5" fill-rule="evenodd"/>
          <line id="Line_1073" data-name="Line 1073" y1="21.016" transform="translate(27.706 3.345)" fill="none" stroke="#000" stroke-miterlimit="22.926" stroke-width="1.5"/>
          <circle id="Ellipse_12062" data-name="Ellipse 12062" cx="1.672" cy="1.672" r="1.672" transform="translate(26.034)" fill="none" stroke="#000" stroke-miterlimit="22.926" stroke-width="1.5"/>
          <path id="Path_1038794" data-name="Path 1038794" d="M256,37.5h15.051v9.2H256" transform="translate(-228.294 -34.155)" fill="none" stroke="#000" stroke-miterlimit="22.926" stroke-width="1.5" fill-rule="evenodd"/>
          <path id="Path_1038795" data-name="Path 1038795" d="M331,229.345v-1.672a1.672,1.672,0,1,1,3.345,0v1.672" transform="translate(-294.931 -201.639)" fill="none" stroke="#000" stroke-miterlimit="22.926" stroke-width="1.5" fill-rule="evenodd"/>
          <path id="Path_1038796" data-name="Path 1038796" d="M346,85.172V73.353m5.017-5.853H361.05v9.2H346" transform="translate(-308.259 -60.81)" fill="none" stroke="#000" stroke-miterlimit="22.926" stroke-width="1.5" fill-rule="evenodd"/>
          <path id="Path_1038797" data-name="Path 1038797" d="M151,229.345v-1.672a1.672,1.672,0,0,1,3.345,0v1.672" transform="translate(-135.002 -201.639)" fill="none" stroke="#000" stroke-miterlimit="22.926" stroke-width="1.5" fill-rule="evenodd"/>
          <path id="Path_1038798" data-name="Path 1038798" d="M241,229.345v-1.672a1.672,1.672,0,0,1,3.345,0v1.672" transform="translate(-214.966 -201.639)" fill="none" stroke="#000" stroke-miterlimit="22.926" stroke-width="1.5" fill-rule="evenodd"/>
          <path id="Path_1038799" data-name="Path 1038799" d="M166,87.533V75.451m5.017-5.59h5.017m5.017,5.59v3.608H166" transform="translate(-148.329 -62.908)" fill="none" stroke="#000" stroke-miterlimit="22.926" stroke-width="1.5" fill-rule="evenodd"/>
          <path id="Path_1038800" data-name="Path 1038800" d="M61,229.345v-1.672a1.672,1.672,0,0,1,3.345,0v1.672" transform="translate(-55.037 -201.639)" fill="none" stroke="#000" stroke-miterlimit="22.926" stroke-width="1.5" fill-rule="evenodd"/>
          <path id="Path_1038801" data-name="Path 1038801" d="M76,58.516V42.935m0-1.672V37.5" transform="translate(-68.364 -34.155)" fill="none" stroke="#000" stroke-miterlimit="22.926" stroke-width="1.5" fill-rule="evenodd"/>
          <circle id="Ellipse_12063" data-name="Ellipse 12063" cx="1.672" cy="1.672" r="1.672" transform="translate(5.965)" fill="none" stroke="#000" stroke-miterlimit="22.926" stroke-width="1.5"/>
          <path id="Path_1038802" data-name="Path 1038802" d="M76,37.5H91.053v9.2H76" transform="translate(-68.364 -34.155)" fill="none" stroke="#000" stroke-miterlimit="22.926" stroke-width="1.5" fill-rule="evenodd"/>
          <path id="Path_1038803" data-name="Path 1038803" d="M61,229.345v-1.672a1.672,1.672,0,0,1,3.345,0v1.672" transform="translate(-55.037 -201.639)" fill="none" stroke="#000" stroke-miterlimit="22.926" stroke-width="1.5" fill-rule="evenodd"/>
        </g>
      </g>
    </g>
  </g>
</svg>
