<svg xmlns="http://www.w3.org/2000/svg" xmlns:xlink="http://www.w3.org/1999/xlink" width="110" height="110" viewBox="0 0 110 110">
  <defs>
    <filter id="Path_982547" x="0" y="0" width="110" height="110" filterUnits="userSpaceOnUse">
      <feOffset dy="3" input="SourceAlpha"/>
      <feGaussianBlur stdDeviation="3" result="blur"/>
      <feFlood flood-opacity="0.161"/>
      <feComposite operator="in" in2="blur"/>
      <feComposite in="SourceGraphic"/>
    </filter>
  </defs>
  <g id="Group_1173566" data-name="Group 1173566" transform="translate(-4548 -5911)">
    <g id="Group_1173090" data-name="Group 1173090">
      <g id="Group_1172183" data-name="Group 1172183" transform="translate(3748 5089)">
        <g id="Group_1171414" data-name="Group 1171414" transform="translate(-0.701 -6107)">
          <g id="Group_1163801" data-name="Group 1163801" transform="translate(-0.299 2285)">
            <g id="Group_1163014" data-name="Group 1163014" transform="translate(1 306)">
              <g id="Group_1157015" data-name="Group 1157015" transform="translate(0 3549)">
                <g id="Group_1155792" data-name="Group 1155792" transform="translate(-1 -3894.666)">
                  <g id="Group_1154703" data-name="Group 1154703" transform="translate(0 1465.666)">
                    <g id="Group_1150789" data-name="Group 1150789" transform="translate(3 2320)">
                      <g id="Group_1154212" data-name="Group 1154212" transform="translate(-236 -5809)">
                        <g id="Group_1152583" data-name="Group 1152583" transform="translate(1043 6713)">
                          <g id="Group_1146973" data-name="Group 1146973" transform="translate(0 0)">
                            <g id="Group_1146954" data-name="Group 1146954">
                              <g transform="matrix(1, 0, 0, 1, -9, -6)" filter="url(#Path_982547)">
                                <g id="Path_982547-2" data-name="Path 982547" transform="translate(9 6)" fill="#e4f2f4">
                                  <path d="M 46 90.49987030029297 C 39.99187850952148 90.49987030029297 34.16426849365234 89.32350921630859 28.67905426025391 87.00345611572266 C 23.38019943237305 84.76224517822266 18.62104034423828 81.55341339111328 14.53374671936035 77.46613311767578 C 10.44646644592285 73.37885284423828 7.237639904022217 68.61969757080078 4.996413230895996 63.32085418701172 C 2.676359891891479 57.83565521240234 1.5 52.008056640625 1.5 45.99993515014648 C 1.5 39.99181365966797 2.676359891891479 34.16421508789062 4.996413230895996 28.67901420593262 C 7.237639904022217 23.38017463684082 10.44646644592285 18.62101554870605 14.53374671936035 14.53373527526855 C 18.62104034423828 10.44645500183105 23.38019943237305 7.23762845993042 28.67905426025391 4.996415138244629 C 34.16426849365234 2.676361799240112 39.99187850952148 1.500001788139343 46 1.500001788139343 C 52.00812149047852 1.500001788139343 57.83573150634766 2.676361799240112 63.32094573974609 4.996415138244629 C 68.61979675292969 7.23762845993042 73.37895965576172 10.44645500183105 77.46625518798828 14.53373527526855 C 81.55353546142578 18.62101554870605 84.76235961914062 23.38017463684082 87.00358581542969 28.67901420593262 C 89.32363891601562 34.16421508789062 90.5 39.99181365966797 90.5 45.99993515014648 C 90.5 52.008056640625 89.32363891601562 57.83565521240234 87.00358581542969 63.32085418701172 C 84.76235961914062 68.61969757080078 81.55353546142578 73.37885284423828 77.46625518798828 77.46613311767578 C 73.37895965576172 81.55341339111328 68.61979675292969 84.76224517822266 63.32094573974609 87.00345611572266 C 57.83573150634766 89.32350921630859 52.00812149047852 90.49987030029297 46 90.49987030029297 Z" stroke="none"/>
                                  <path d="M 46 2.999992370605469 C 40.1937141418457 2.999992370605469 34.56269836425781 4.136489868164062 29.26337051391602 6.377906799316406 C 24.14332580566406 8.543502807617188 19.54441070556641 11.64437866210938 15.59439849853516 15.59437561035156 C 11.64440155029297 19.54439544677734 8.54351806640625 24.14329528808594 6.377914428710938 29.26333618164062 C 4.136497497558594 34.56264877319336 3 40.19366455078125 3 45.99993515014648 C 3 51.80620574951172 4.136497497558594 57.43720626831055 6.377914428710938 62.73651885986328 C 8.54351806640625 67.8565673828125 11.64440155029297 72.45545959472656 15.59439849853516 76.40547943115234 C 19.54441070556641 80.35547637939453 24.14332580566406 83.45635223388672 29.26337051391602 85.6219482421875 C 34.56269836425781 87.86336517333984 40.1937141418457 88.99986267089844 46 88.99986267089844 C 51.8062858581543 88.99986267089844 57.43730163574219 87.86336517333984 62.73661422729492 85.6219482421875 C 67.85667419433594 83.45635223388672 72.45557403564453 80.35547637939453 76.40558624267578 76.40547943115234 C 80.35559844970703 72.45545959472656 83.45647430419922 67.8565673828125 85.6220703125 62.73651885986328 C 87.86350250244141 57.43720626831055 89 51.80620574951172 89 45.99993515014648 C 89 40.19366455078125 87.86350250244141 34.56264877319336 85.6220703125 29.26333618164062 C 83.45647430419922 24.14329528808594 80.35559844970703 19.54439544677734 76.40558624267578 15.59437561035156 C 72.45557403564453 11.64437866210938 67.85667419433594 8.543502807617188 62.73661422729492 6.377906799316406 C 57.43730163574219 4.136489868164062 51.8062858581543 2.999992370605469 46 2.999992370605469 M 46 -7.62939453125e-06 C 71.40509033203125 -7.62939453125e-06 92 20.59486389160156 92 45.99993515014648 C 92 71.40499114990234 71.40509033203125 91.99986267089844 46 91.99986267089844 C 20.59490203857422 91.99986267089844 0 71.40499114990234 0 45.99993515014648 C 0 20.59486389160156 20.59490203857422 -7.62939453125e-06 46 -7.62939453125e-06 Z" stroke="none" fill="#01899b"/>
                                </g>
                              </g>
                            </g>
                          </g>
                        </g>
                      </g>
                    </g>
                  </g>
                </g>
              </g>
            </g>
          </g>
        </g>
      </g>
      <g id="credit-union_18253518" transform="translate(4558.949 5935)">
        <g id="Group_1173088" data-name="Group 1173088" transform="translate(18.937 0.887)">
          <path id="Path_1038871" data-name="Path 1038871" d="M56.25,253l-.186-7.413a2.342,2.342,0,1,1,4.682-.115l.2,8.03Z" transform="translate(-52.734 -217.107)" fill="#fbc894" fill-rule="evenodd"/>
          <path id="Path_1038872" data-name="Path 1038872" d="M26.438,215.375l-.394-15.51a2.344,2.344,0,0,1,4.686-.115l.2,8.008a2.35,2.35,0,0,1,2.48.421q3.138,2.842,6.278,5.68a7.692,7.692,0,0,1,2.615,5.7l.235,9.406-9.934.247-.089-3.5a5.581,5.581,0,0,0-1.895-4.128L28.329,219.5A5.585,5.585,0,0,1,26.438,215.375Z" transform="translate(-26.044 -176.456)" fill="#fbbd80" fill-rule="evenodd"/>
          <path id="Path_1038873" data-name="Path 1038873" d="M76.583,465.921l-13.707.016a.614.614,0,0,1-.613-.61l0-3.511a.612.612,0,0,1,.61-.61l13.71-.016a.612.612,0,0,1,.61.61l0,3.512A.612.612,0,0,1,76.583,465.921Z" transform="translate(-58.244 -410.941)" fill="#0593fc" fill-rule="evenodd"/>
          <path id="Path_1038874" data-name="Path 1038874" d="M65.818,299.814l-2.493-2.254L58,292.737a2.342,2.342,0,0,1,3.142-3.473l4.872,4.409Z" transform="translate(-53.772 -257.543)" fill="#fbbd80" fill-rule="evenodd"/>
          <path id="Path_1038875" data-name="Path 1038875" d="M160.046,242.7a13.673,13.673,0,1,1-27.346,0Z" transform="translate(-120.874 -216.677)" fill="#0593fc" fill-rule="evenodd"/>
          <path id="Path_1038876" data-name="Path 1038876" d="M147.2,256.339c-.277.016-.555.024-.836.024A13.672,13.672,0,0,1,132.69,242.69h1.69a13.667,13.667,0,0,0,12.82,13.649Z" transform="translate(-120.865 -216.668)" fill="#0584e3" fill-rule="evenodd"/>
          <path id="Path_1038877" data-name="Path 1038877" d="M151.27,272.42a21.871,21.871,0,0,1,2.379-3.959c1.324-1.714,2.007,1.992,5.088,2.188,6.19.547,4.2,4.137.4,6.572a3.214,3.214,0,0,0-.982.817A13.723,13.723,0,0,1,151.27,272.42Z" transform="translate(-137.385 -239.18)" fill="#70da40" fill-rule="evenodd"/>
          <path id="Path_1038878" data-name="Path 1038878" d="M151.27,294.924q.389-.818.829-1.6a13.714,13.714,0,0,0,6.56,6.718,3.6,3.6,0,0,0-.5.5A13.721,13.721,0,0,1,151.27,294.924Z" transform="translate(-137.385 -261.684)" fill="#65c43a" fill-rule="evenodd"/>
          <path id="Path_1038879" data-name="Path 1038879" d="M271.945,242.7a13.637,13.637,0,0,1-4.536,10.171c-.7-2.062-1.117-1.562-1.394-3.834-.507-4.121-1.852-2.728-2.792-2.374-.986.366-4.875-2.2-4.661-3.963Z" transform="translate(-232.773 -216.677)" fill="#70da40" fill-rule="evenodd"/>
          <path id="Path_1038880" data-name="Path 1038880" d="M138.136,167.91h-1.757a3.691,3.691,0,0,0-3.679,3.679V173.2a.515.515,0,0,0,.512.512H141.3a.515.515,0,0,0,.512-.512v-1.61A3.691,3.691,0,0,0,138.136,167.91Z" transform="translate(-120.874 -150.18)" fill="#ff4646" fill-rule="evenodd"/>
          <path id="Path_1038881" data-name="Path 1038881" d="M218.589,167.91h1.757a3.691,3.691,0,0,1,3.679,3.679V173.2a.515.515,0,0,1-.512.512h-8.091a.515.515,0,0,1-.512-.512v-1.61A3.691,3.691,0,0,1,218.589,167.91Z" transform="translate(-193.969 -150.18)" fill="#ff4646" fill-rule="evenodd"/>
          <path id="Path_1038882" data-name="Path 1038882" d="M302.556,167.91H300.8a3.691,3.691,0,0,0-3.679,3.679V173.2a.515.515,0,0,0,.512.512h8.091a.515.515,0,0,0,.512-.512v-1.61A3.691,3.691,0,0,0,302.556,167.91Z" transform="translate(-267.064 -150.18)" fill="#ff4646" fill-rule="evenodd"/>
          <path id="Path_1038883" data-name="Path 1038883" d="M149.9,125.974a2.982,2.982,0,1,0-2.98-2.98A2.99,2.99,0,0,0,149.9,125.974Z" transform="translate(-133.518 -107.591)" fill="#fbbd80" fill-rule="evenodd"/>
          <path id="Path_1038884" data-name="Path 1038884" d="M232.084,125.974a2.982,2.982,0,1,0-2.984-2.98A2.987,2.987,0,0,0,232.084,125.974Z" transform="translate(-206.586 -107.591)" fill="#fbbd80" fill-rule="evenodd"/>
          <path id="Path_1038885" data-name="Path 1038885" d="M314.3,125.974a2.982,2.982,0,1,0-2.984-2.98A2.987,2.987,0,0,0,314.3,125.974Z" transform="translate(-279.689 -107.591)" fill="#fbbd80" fill-rule="evenodd"/>
          <path id="Path_1038886" data-name="Path 1038886" d="M151.2,18.2a5.1,5.1,0,1,0-5.1-5.1A5.108,5.108,0,0,0,151.2,18.2Z" transform="translate(-132.788 -8)" fill="#ffd400" fill-rule="evenodd"/>
          <path id="Path_1038887" data-name="Path 1038887" d="M279.03,18.2a5.1,5.1,0,1,0-5.1-5.1A5.106,5.106,0,0,0,279.03,18.2Z" transform="translate(-246.445 -8)" fill="#ffd400" fill-rule="evenodd"/>
          <path id="Path_1038888" data-name="Path 1038888" d="M416.59,253l.186-7.413a2.342,2.342,0,1,0-4.682-.115l-.2,8.03Z" transform="translate(-369.108 -217.107)" fill="#fbc894" fill-rule="evenodd"/>
          <path id="Path_1038889" data-name="Path 1038889" d="M353.285,215.375l.39-15.51a2.342,2.342,0,1,0-4.682-.115l-.2,8.008a2.35,2.35,0,0,0-2.48.421q-3.138,2.842-6.278,5.68a7.692,7.692,0,0,0-2.614,5.7l-.238,9.406,9.936.247.089-3.5a5.581,5.581,0,0,1,1.895-4.128l2.294-2.075A5.582,5.582,0,0,0,353.285,215.375Z" transform="translate(-302.682 -176.456)" fill="#fbbd80" fill-rule="evenodd"/>
          <path id="Path_1038890" data-name="Path 1038890" d="M315.673,465.921l13.707.016a.614.614,0,0,0,.613-.61l0-3.511a.612.612,0,0,0-.61-.61l-13.71-.016a.612.612,0,0,0-.61.61l-.007,3.512A.612.612,0,0,0,315.673,465.921Z" transform="translate(-283.014 -410.941)" fill="#0593fc" fill-rule="evenodd"/>
          <path id="Path_1038891" data-name="Path 1038891" d="M375.785,299.814l2.493-2.254,5.327-4.823a2.342,2.342,0,0,0-3.142-3.473l-4.872,4.409Z" transform="translate(-336.833 -257.543)" fill="#fbbd80" fill-rule="evenodd"/>
          <path id="Path_1038892" data-name="Path 1038892" d="M147.539,13.1a5.1,5.1,0,0,1,4.381-5.049A5.1,5.1,0,1,0,151.2,18.2a4.975,4.975,0,0,0,.72-.052A5.1,5.1,0,0,1,147.539,13.1Z" transform="translate(-132.788 -8)" fill="#e6bf00" fill-rule="evenodd"/>
          <path id="Path_1038893" data-name="Path 1038893" d="M273.92,13.1a5.1,5.1,0,0,0,5.1,5.1,4.975,4.975,0,0,0,.72-.052,5.1,5.1,0,0,1,0-10.1A5.282,5.282,0,0,0,279.021,8,5.1,5.1,0,0,0,273.92,13.1Z" transform="translate(-246.436 -8)" fill="#e6bf00" fill-rule="evenodd"/>
          <path id="Path_1038894" data-name="Path 1038894" d="M147.756,122.994a2.978,2.978,0,0,1,2.562-2.953,2.738,2.738,0,0,0-.418-.031,2.982,2.982,0,1,0,0,5.964,3.054,3.054,0,0,0,.418-.028,2.984,2.984,0,0,1-2.562-2.953Z" transform="translate(-133.518 -107.591)" fill="#e2aa73" fill-rule="evenodd"/>
          <path id="Path_1038895" data-name="Path 1038895" d="M232.084,120.01a2.982,2.982,0,1,0,0,5.964,3.076,3.076,0,0,0,.418-.028,2.982,2.982,0,0,1,0-5.905A2.6,2.6,0,0,0,232.084,120.01Z" transform="translate(-206.586 -107.591)" fill="#e2aa73" fill-rule="evenodd"/>
          <path id="Path_1038896" data-name="Path 1038896" d="M314.3,120.01a2.982,2.982,0,1,0,0,5.964,3.076,3.076,0,0,0,.418-.028,3.008,3.008,0,0,1-1.443-.622,2.983,2.983,0,0,1,1.443-5.283A2.632,2.632,0,0,0,314.3,120.01Z" transform="translate(-279.689 -107.591)" fill="#e2aa73" fill-rule="evenodd"/>
          <path id="Path_1038897" data-name="Path 1038897" d="M63.7,464.415l0-3.115-.824,0a.612.612,0,0,0-.61.61l0,3.512a.614.614,0,0,0,.613.61l13.707-.016a.612.612,0,0,0,.61-.61v-.4l-12.883.012A.613.613,0,0,1,63.7,464.415Z" transform="translate(-58.244 -411.039)" fill="#0584e3" fill-rule="evenodd"/>
          <path id="Path_1038898" data-name="Path 1038898" d="M315.057,461.809l-.007,3.512a.612.612,0,0,0,.613.61l13.708.016a.614.614,0,0,0,.613-.61v-.4l-12.886-.012a.615.615,0,0,1-.613-.613l0-3.111h-.82A.61.61,0,0,0,315.057,461.809Z" transform="translate(-283.006 -410.95)" fill="#0584e3" fill-rule="evenodd"/>
        </g>
        <g id="Group_1173089" data-name="Group 1173089" transform="translate(18.051)">
          <path id="Path_1038899" data-name="Path 1038899" d="M51.521,11.975a5.987,5.987,0,1,0-5.984-5.987A5.994,5.994,0,0,0,51.521,11.975Zm0-10.2A4.214,4.214,0,1,1,47.31,5.987,4.219,4.219,0,0,1,51.521,1.773ZM35.3,4.947a1.925,1.925,0,0,1,1.056-1.714V2.979a.886.886,0,0,1,1.772,0v.163a1.957,1.957,0,0,1,.624.375.886.886,0,1,1-1.185,1.318.145.145,0,0,0-.1-.04h-.238a.152.152,0,1,0,0,.3h.239a1.923,1.923,0,0,1,.868,3.641v.253a.886.886,0,1,1-1.772,0V8.83a1.959,1.959,0,0,1-.621-.374.886.886,0,0,1,1.184-1.319.145.145,0,0,0,.1.04h.238a.158.158,0,0,0,.154-.154.156.156,0,0,0-.154-.151h-.239A1.925,1.925,0,0,1,35.3,4.947Zm14.171,0a1.926,1.926,0,0,1,1.059-1.715V2.979a.886.886,0,0,1,1.772,0v.164a1.959,1.959,0,0,1,.621.374.886.886,0,0,1-1.184,1.319.147.147,0,0,0-.1-.04H51.4a.152.152,0,1,0,0,.3h.243a1.924,1.924,0,0,1,.868,3.641V9a.886.886,0,1,1-1.772,0V8.834a1.957,1.957,0,0,1-.624-.375A.886.886,0,1,1,51.3,7.141a.145.145,0,0,0,.1.04h.242a.152.152,0,0,0,0-.3H51.4A1.931,1.931,0,0,1,49.474,4.947ZM54.24,37.663a14.523,14.523,0,0,0,4.753-10.752.886.886,0,0,0-.886-.886H30.761a.886.886,0,0,0-.886.886,14.468,14.468,0,0,0,2.147,7.6.9.9,0,0,0,.1.164,14.64,14.64,0,0,0,7.194,5.865.856.856,0,0,0,.169.062,14.54,14.54,0,0,0,14.589-2.791.959.959,0,0,0,.165-.149ZM39.484,38.7a12.874,12.874,0,0,1-5.645-4.637,20.137,20.137,0,0,1,2.065-3.35l.032-.04c.15.12.368.343.538.516a5.679,5.679,0,0,0,3.749,2.051c1.811.162,2.982.623,3.131,1.234.177.726-.835,2.223-3.113,3.688a3.959,3.959,0,0,0-.756.538Zm4.952,1a12.791,12.791,0,0,1-2.828-.316c2.569-1.76,3.861-3.73,3.468-5.33-.359-1.467-1.944-2.335-4.708-2.579l-.022,0a4.017,4.017,0,0,1-2.607-1.523c-.584-.6-1.135-1.159-1.928-1.112a1.8,1.8,0,0,0-1.311.794,20.441,20.441,0,0,0-1.7,2.6A12.7,12.7,0,0,1,31.677,27.8H43.95a5.958,5.958,0,0,0,2.015,2.52c.4.315,2.466,1.859,3.732,1.384a5.267,5.267,0,0,0,.506-.231,2.7,2.7,0,0,1,.522-.222c.082.088.376.5.572,2.107a5.664,5.664,0,0,0,.783,2.563,6.937,6.937,0,0,1,.445.887A12.73,12.73,0,0,1,44.436,39.7Zm9.183-4.659a3.958,3.958,0,0,1-.561-1.9c-.242-1.969-.707-3.039-1.51-3.469a2.227,2.227,0,0,0-2.138.216c-.1.051-.2.1-.283.135A6.365,6.365,0,0,1,46.266,28.2a4.035,4.035,0,0,1-.33-.4H57.192a12.736,12.736,0,0,1-3.31,7.72c-.1-.186-.184-.339-.264-.48Zm-22.342-9.73h8.087a1.387,1.387,0,0,0,.513-.1,1.393,1.393,0,0,0,.514.1h8.087a1.393,1.393,0,0,0,.514-.1,1.387,1.387,0,0,0,.513.1H57.6a1.4,1.4,0,0,0,1.4-1.4V22.3a4.546,4.546,0,0,0-2.2-3.9,3.868,3.868,0,1,0-6.487,0,4.537,4.537,0,0,0-1.313,1.2,4.556,4.556,0,0,0-1.314-1.2,3.868,3.868,0,1,0-6.487,0,4.56,4.56,0,0,0-1.315,1.2,4.538,4.538,0,0,0-1.313-1.2,3.867,3.867,0,1,0-6.487,0,4.546,4.546,0,0,0-2.2,3.9v1.609A1.4,1.4,0,0,0,31.277,25.308ZM53.551,14.195a2.1,2.1,0,1,1-2.1,2.1A2.1,2.1,0,0,1,53.551,14.195ZM49.88,22.3A2.822,2.822,0,0,1,51.7,19.685a3.862,3.862,0,0,0,3.706,0A2.822,2.822,0,0,1,57.222,22.3v1.239H49.88Zm-5.444-8.1a2.1,2.1,0,1,1-2.1,2.1A2.1,2.1,0,0,1,44.436,14.195Zm-3.673,8.1a2.822,2.822,0,0,1,1.821-2.611,3.858,3.858,0,0,0,3.706,0,2.822,2.822,0,0,1,1.82,2.611v1.239H40.762Zm-5.444-8.1a2.1,2.1,0,1,1-2.093,2.1A2.1,2.1,0,0,1,35.318,14.195Zm-3.671,8.1a2.822,2.822,0,0,1,1.82-2.611,3.862,3.862,0,0,0,3.706,0A2.822,2.822,0,0,1,38.989,22.3v1.239H31.647Zm38.28-.282a3.228,3.228,0,0,0-5.564,2.142l-.049,1.925a3.231,3.231,0,0,0-3.279,3.146l-.091,3.653q-2.4,2.167-4.79,4.334l-.46.417a8.542,8.542,0,0,0-2.906,6.332l-.161,6.288H51.6a1.5,1.5,0,0,0-1.5,1.5l0,3.512a1.5,1.5,0,0,0,1.488,1.5h.008l13.71.012a1.5,1.5,0,0,0,1.5-1.5l0-3.512a1.5,1.5,0,0,0-1.5-1.5h-.962l0-.105a4.711,4.711,0,0,1,1.6-3.492l2.3-2.076a6.425,6.425,0,0,0,2.183-4.761l.393-15.512a3.2,3.2,0,0,0-.891-2.3Zm-7.119,7.256a1.457,1.457,0,0,1,1.461-1.417l-.083,3.266a3.283,3.283,0,0,0-1.433.31Zm2.225,22.764,0,2.96-13.16-.012,0-2.96,11.521.01h.042l.034,0Zm3.621-12.251a4.711,4.711,0,0,1-1.6,3.492l-2.3,2.076a6.425,6.425,0,0,0-2.183,4.761l0,.149L54.4,50.253l.16-6.245a6.83,6.83,0,0,1,2.324-5.064l.46-.416q2.906-2.631,5.818-5.264A1.458,1.458,0,0,1,64.7,33a1.539,1.539,0,0,1,.516.363,1.458,1.458,0,0,1-.1,2.058l-2.664,2.41q-1.332,1.206-2.663,2.41a.886.886,0,0,0,1.189,1.315l2.664-2.41q1.332-1.206,2.663-2.41a3.215,3.215,0,0,0-.358-5.064l.115-4.524v-.008l.075-2.943a1.456,1.456,0,0,1,2.911.072ZM37.27,50.251H36.243l-.161-6.287a8.547,8.547,0,0,0-2.906-6.333l-.614-.557q-2.317-2.1-4.636-4.195l-.091-3.653a3.231,3.231,0,0,0-3.279-3.147l-.049-1.924a3.229,3.229,0,0,0-6.455.16l.393,15.511a6.424,6.424,0,0,0,2.184,4.762l2.293,2.073a4.71,4.71,0,0,1,1.6,3.492l0,.106h-.961a1.5,1.5,0,0,0-1.5,1.5l0,3.518a1.505,1.505,0,0,0,1.5,1.488l13.71-.012h.008a1.505,1.505,0,0,0,1.488-1.5l0-3.51a1.5,1.5,0,0,0-1.5-1.495Zm-11.661-22a1.442,1.442,0,0,1,.453,1.017l.054,2.159a3.248,3.248,0,0,0-1.433-.309L24.6,27.854A1.451,1.451,0,0,1,25.608,28.254Zm-1.5,17.1-2.293-2.073a4.711,4.711,0,0,1-1.6-3.493l-.393-15.51a1.456,1.456,0,0,1,2.911-.072l.075,2.942v.007l.114,4.525a3.214,3.214,0,0,0-.358,5.064q1.332,1.2,2.663,2.41l2.664,2.41a.886.886,0,0,0,1.189-1.315q-1.332-1.2-2.663-2.41l-2.664-2.41a1.458,1.458,0,0,1-.1-2.055A1.532,1.532,0,0,1,24.168,33a1.459,1.459,0,0,1,1.54.263q2.832,2.56,5.661,5.123l.614.557a6.83,6.83,0,0,1,2.324,5.064l.16,6.244-8.171.008,0-.149a6.419,6.419,0,0,0-2.183-4.762ZM23.84,55l0-2.96H25.4l.034,0h.042L37,52.026l0,2.96ZM37.348,11.975a5.987,5.987,0,1,0-5.987-5.987A5.992,5.992,0,0,0,37.348,11.975Zm0-10.2a4.214,4.214,0,1,1-4.214,4.214A4.218,4.218,0,0,1,37.348,1.773Z" transform="translate(-18.051)"/>
        </g>
      </g>
    </g>
  </g>
</svg>
