<svg xmlns="http://www.w3.org/2000/svg" xmlns:xlink="http://www.w3.org/1999/xlink" width="110" height="110" viewBox="0 0 110 110">
  <defs>
    <filter id="Path_982547" x="0" y="0" width="110" height="110" filterUnits="userSpaceOnUse">
      <feOffset dy="3" input="SourceAlpha"/>
      <feGaussianBlur stdDeviation="3" result="blur"/>
      <feFlood flood-opacity="0.161"/>
      <feComposite operator="in" in2="blur"/>
      <feComposite in="SourceGraphic"/>
    </filter>
  </defs>
  <g id="Group_1173568" data-name="Group 1173568" transform="translate(-4548 -6259)">
    <g id="Group_1173095" data-name="Group 1173095">
      <g id="Group_1172185" data-name="Group 1172185" transform="translate(3748 5437)">
        <g id="Group_1171414" data-name="Group 1171414" transform="translate(-0.701 -6107)">
          <g id="Group_1163801" data-name="Group 1163801" transform="translate(-0.299 2285)">
            <g id="Group_1163014" data-name="Group 1163014" transform="translate(1 306)">
              <g id="Group_1157015" data-name="Group 1157015" transform="translate(0 3549)">
                <g id="Group_1155792" data-name="Group 1155792" transform="translate(-1 -3894.666)">
                  <g id="Group_1154703" data-name="Group 1154703" transform="translate(0 1465.666)">
                    <g id="Group_1150789" data-name="Group 1150789" transform="translate(3 2320)">
                      <g id="Group_1154212" data-name="Group 1154212" transform="translate(-236 -5809)">
                        <g id="Group_1152583" data-name="Group 1152583" transform="translate(1043 6713)">
                          <g id="Group_1146973" data-name="Group 1146973" transform="translate(0 0)">
                            <g id="Group_1146954" data-name="Group 1146954">
                              <g transform="matrix(1, 0, 0, 1, -9, -6)" filter="url(#Path_982547)">
                                <g id="Path_982547-2" data-name="Path 982547" transform="translate(9 6)" fill="#e4f2f4">
                                  <path d="M 46 90.49987030029297 C 39.99187850952148 90.49987030029297 34.16426849365234 89.32350921630859 28.67905426025391 87.00345611572266 C 23.38019943237305 84.76224517822266 18.62104034423828 81.55341339111328 14.53374671936035 77.46613311767578 C 10.44646644592285 73.37885284423828 7.237639904022217 68.61969757080078 4.996413230895996 63.32085418701172 C 2.676359891891479 57.83565521240234 1.5 52.008056640625 1.5 45.99993515014648 C 1.5 39.99181365966797 2.676359891891479 34.16421508789062 4.996413230895996 28.67901420593262 C 7.237639904022217 23.38017463684082 10.44646644592285 18.62101554870605 14.53374671936035 14.53373527526855 C 18.62104034423828 10.44645500183105 23.38019943237305 7.23762845993042 28.67905426025391 4.996415138244629 C 34.16426849365234 2.676361799240112 39.99187850952148 1.500001788139343 46 1.500001788139343 C 52.00812149047852 1.500001788139343 57.83573150634766 2.676361799240112 63.32094573974609 4.996415138244629 C 68.61979675292969 7.23762845993042 73.37895965576172 10.44645500183105 77.46625518798828 14.53373527526855 C 81.55353546142578 18.62101554870605 84.76235961914062 23.38017463684082 87.00358581542969 28.67901420593262 C 89.32363891601562 34.16421508789062 90.5 39.99181365966797 90.5 45.99993515014648 C 90.5 52.008056640625 89.32363891601562 57.83565521240234 87.00358581542969 63.32085418701172 C 84.76235961914062 68.61969757080078 81.55353546142578 73.37885284423828 77.46625518798828 77.46613311767578 C 73.37895965576172 81.55341339111328 68.61979675292969 84.76224517822266 63.32094573974609 87.00345611572266 C 57.83573150634766 89.32350921630859 52.00812149047852 90.49987030029297 46 90.49987030029297 Z" stroke="none"/>
                                  <path d="M 46 2.999992370605469 C 40.1937141418457 2.999992370605469 34.56269836425781 4.136489868164062 29.26337051391602 6.377906799316406 C 24.14332580566406 8.543502807617188 19.54441070556641 11.64437866210938 15.59439849853516 15.59437561035156 C 11.64440155029297 19.54439544677734 8.54351806640625 24.14329528808594 6.377914428710938 29.26333618164062 C 4.136497497558594 34.56264877319336 3 40.19366455078125 3 45.99993515014648 C 3 51.80620574951172 4.136497497558594 57.43720626831055 6.377914428710938 62.73651885986328 C 8.54351806640625 67.8565673828125 11.64440155029297 72.45545959472656 15.59439849853516 76.40547943115234 C 19.54441070556641 80.35547637939453 24.14332580566406 83.45635223388672 29.26337051391602 85.6219482421875 C 34.56269836425781 87.86336517333984 40.1937141418457 88.99986267089844 46 88.99986267089844 C 51.8062858581543 88.99986267089844 57.43730163574219 87.86336517333984 62.73661422729492 85.6219482421875 C 67.85667419433594 83.45635223388672 72.45557403564453 80.35547637939453 76.40558624267578 76.40547943115234 C 80.35559844970703 72.45545959472656 83.45647430419922 67.8565673828125 85.6220703125 62.73651885986328 C 87.86350250244141 57.43720626831055 89 51.80620574951172 89 45.99993515014648 C 89 40.19366455078125 87.86350250244141 34.56264877319336 85.6220703125 29.26333618164062 C 83.45647430419922 24.14329528808594 80.35559844970703 19.54439544677734 76.40558624267578 15.59437561035156 C 72.45557403564453 11.64437866210938 67.85667419433594 8.543502807617188 62.73661422729492 6.377906799316406 C 57.43730163574219 4.136489868164062 51.8062858581543 2.999992370605469 46 2.999992370605469 M 46 -7.62939453125e-06 C 71.40509033203125 -7.62939453125e-06 92 20.59486389160156 92 45.99993515014648 C 92 71.40499114990234 71.40509033203125 91.99986267089844 46 91.99986267089844 C 20.59490203857422 91.99986267089844 0 71.40499114990234 0 45.99993515014648 C 0 20.59486389160156 20.59490203857422 -7.62939453125e-06 46 -7.62939453125e-06 Z" stroke="none" fill="#01899b"/>
                                </g>
                              </g>
                            </g>
                          </g>
                        </g>
                      </g>
                    </g>
                  </g>
                </g>
              </g>
            </g>
          </g>
        </g>
      </g>
      <g id="international-relations_17977480" transform="translate(4571.997 6278.813)">
        <path id="Path_1038939" data-name="Path 1038939" d="M81.374,23.507,77.56,16.9c3.407-4.456,8.506-1.669,14.078-2.723-4.025,6.662-8.492,4.33-10.264,9.328Z" transform="translate(-66.267 -8.881)" fill="#85caff" fill-rule="evenodd"/>
        <path id="Path_1038940" data-name="Path 1038940" d="M363.173,18.79l3.813-6.605c5.562.723,5.7,6.532,9.4,10.83-7.782-.155-8-5.189-13.211-4.225Z" transform="translate(-320.122 -7.109)" fill="#ffeb87" fill-rule="evenodd"/>
        <circle id="Ellipse_12064" data-name="Ellipse 12064" cx="19.063" cy="19.063" r="19.063" transform="translate(4.175 32.204) rotate(-45)" fill="#4eb1fc"/>
        <g id="Group_1173094" data-name="Group 1173094" transform="translate(3.893 13.141)">
          <path id="Path_1038941" data-name="Path 1038941" d="M204.1,90.932c-2.231,1.692.59,4.649-3.172,5.86-1.628.524-2.406.346-2.232-1.383.426-4.248-4.73-1.1-4.207,1.7.355,1.9,2.306,7.607-2.462,5.969-1.221-.42-2.63,2.213-3.275,3.2-.924,1.408-2.448,2.021-3.684.5-1.011-1.247-1.692-1.635-2.246-1.671-3.213-.672,1.862-3.11,2.693-3.3,2.971-.67,1.252-3.063,2.2-4.208,2.512-3.029-.277-3.2.634-5.012.936-1.864-1.51-2.575-2.93-3.016-1.245-.387-2.119-1.726-2.706-3.391A19.078,19.078,0,0,1,204.1,90.932Z" transform="translate(-162.78 -84.722)" fill="#adffad" fill-rule="evenodd"/>
          <path id="Path_1038942" data-name="Path 1038942" d="M85.253,199.24c5.212-3,1.586-3.648,3.976-5.829,1.807-1.65,4.306-3.537,3.073-6.06-.846-1.4-2.176-1.073-3.1-.015a7.485,7.485,0,0,1-3.966,1.843,19.16,19.16,0,0,0,.021,10.061Z" transform="translate(-76.392 -175.109)" fill="#adffad" fill-rule="evenodd"/>
          <path id="Path_1038943" data-name="Path 1038943" d="M267.673,392.1v-5.2a5.831,5.831,0,1,0-11.661,0v7.373h11.662V392.1Z" transform="translate(-228.77 -348.117)" fill="#adffad" fill-rule="evenodd"/>
          <path id="Path_1038944" data-name="Path 1038944" d="M376.469,359.382v-7.333a7.79,7.79,0,1,0-15.581,0v9.506h15.581v-2.174Z" transform="translate(-321.984 -315.4)" fill="#ffcec0" fill-rule="evenodd"/>
          <path id="Path_1038945" data-name="Path 1038945" d="M26.592,359.382v-7.333a7.813,7.813,0,0,0-7.79-7.79h0a7.813,7.813,0,0,0-7.79,7.79v9.506H26.592v-2.174Z" transform="translate(-11.011 -315.4)" fill="#ffcec0" fill-rule="evenodd"/>
          <path id="Path_1038946" data-name="Path 1038946" d="M162.8,392.1v-5.2a5.831,5.831,0,1,0-11.661,0v7.373H162.8V392.1Z" transform="translate(-135.553 -348.117)" fill="#ffeb87" fill-rule="evenodd"/>
          <path id="Path_1038947" data-name="Path 1038947" d="M280.245,317.6a3.528,3.528,0,1,1-3.528,3.528A3.528,3.528,0,0,1,280.245,317.6Z" transform="translate(-247.172 -291.709)" fill="#f0e3df" fill-rule="evenodd"/>
        </g>
        <circle id="Ellipse_12065" data-name="Ellipse 12065" cx="4.708" cy="4.708" r="4.708" transform="translate(43.922 37.294) rotate(-45)" fill="#f0e3df"/>
        <circle id="Ellipse_12066" data-name="Ellipse 12066" cx="4.708" cy="4.708" r="4.708" transform="translate(5.022 37.29) rotate(-45)" fill="#f0e3df"/>
        <path id="Path_1038948" data-name="Path 1038948" d="M175.368,317.6a3.528,3.528,0,1,1-3.528,3.528A3.528,3.528,0,0,1,175.368,317.6Z" transform="translate(-150.064 -278.568)" fill="#f0e3df" fill-rule="evenodd"/>
        <path id="Path_1038949" data-name="Path 1038949" d="M19.683,6.355a33.933,33.933,0,0,0,3.833.058,11.73,11.73,0,0,1-4.688,3.456,8.1,8.1,0,0,0-3.788,2.863L12.373,8.114c1.877-2.053,4.3-1.922,7.31-1.758ZM44.15,19.132a4.2,4.2,0,0,0-.828,2.877c-.02,1.2-.031,1.865-1.554,2.355a3.032,3.032,0,0,1-1.064.215,1.982,1.982,0,0,1-.011-.663c.172-1.718-.454-2.466-1.01-2.79a2.765,2.765,0,0,0-2.953.443,4.385,4.385,0,0,0-2,4.123c.048.254.117.552.2.9.25,1.074.837,3.59.193,4.171-.239.216-.871.177-1.689-.1-1.73-.595-3.113,1.629-4.026,3.1-.106.17-.2.323-.283.448a1.907,1.907,0,0,1-1.3.984,1.208,1.208,0,0,1-.949-.56c-1.043-1.288-1.913-1.906-2.806-1.993L24,32.624a10.182,10.182,0,0,1,2.818-1.534c2.6-.585,2.576-2.4,2.564-3.491a2.026,2.026,0,0,1,.126-1.017c1.728-2.084,1.37-3.264.855-4.295-.228-.458-.271-.566-.11-.887a2.32,2.32,0,0,0,.132-2.013c-.559-1.311-2.261-1.839-3.5-2.224l-.09-.028a3.76,3.76,0,0,1-1.92-2.287A18.464,18.464,0,0,1,44.15,19.133ZM47.324,6.058c2.716.6,3.813,2.761,5.177,5.452a33.944,33.944,0,0,0,1.867,3.347,11.744,11.744,0,0,1-5.337-2.331,8.094,8.094,0,0,0-4.373-1.85l2.667-4.618Zm-31.032,12.4a20.115,20.115,0,0,0-5.238,11.306.89.89,0,0,0,1.767.212,18.361,18.361,0,0,1,.337-1.93,8.3,8.3,0,0,0,4.211-2.1,1.48,1.48,0,0,1,1.065-.614.847.847,0,0,1,.586.469c.737,1.563-.473,2.812-2.4,4.532-.168.15-.333.3-.493.444a.889.889,0,1,0,1.2,1.314c.156-.142.317-.286.48-.432,1.778-1.591,4.213-3.768,2.791-6.676-.011-.024-.023-.046-.036-.069a2.54,2.54,0,0,0-1.974-1.355,3.133,3.133,0,0,0-2.56,1.213,6.269,6.269,0,0,1-2.3,1.292,18.474,18.474,0,0,1,9.506-10.54,5.222,5.222,0,0,0,3.032,3.3l.092.028c.7.217,2.157.668,2.393,1.221.02.047.08.188-.085.518a2.493,2.493,0,0,0,.109,2.481c.3.6.5,1-.633,2.363a3.159,3.159,0,0,0-.536,2.173c.011,1.037.017,1.467-1.176,1.735a11.06,11.06,0,0,0-2.371,1.079c-1.419.836-2.077,1.591-2.07,2.379,0,.553.314,1.275,1.761,1.578a.922.922,0,0,0,.126.017c.206.013.69.206,1.612,1.343a2.9,2.9,0,0,0,2.292,1.22c.044,0,.086,0,.129,0a3.585,3.585,0,0,0,2.7-1.784c.089-.136.191-.3.306-.486a15.273,15.273,0,0,1,1.136-1.655c.5-.6.767-.687.814-.7,1.519.519,2.679.431,3.447-.263,1.421-1.284.774-4.059.346-5.9-.076-.324-.141-.6-.181-.82a2.681,2.681,0,0,1,1.279-2.341c.529-.373.933-.419,1.032-.361.049.028.215.295.137,1.076a2.532,2.532,0,0,0,.645,2.238,2.919,2.919,0,0,0,2.745.081c2.734-.88,2.765-2.694,2.786-4.019a3.106,3.106,0,0,1,.272-1.569,18.332,18.332,0,0,1,4.075,9.51.89.89,0,0,0,.883.783,1.008,1.008,0,0,0,.107-.006.89.89,0,0,0,.777-.99,20.182,20.182,0,0,0-9.157-14.587l1.551-2.688c1.9-.239,2.964.494,4.411,1.5A13.32,13.32,0,0,0,56.242,16.8h.018a.89.89,0,0,0,.675-1.47,22.251,22.251,0,0,1-2.848-4.62c-1.56-3.076-3.033-5.982-7.109-6.512a.89.89,0,0,0-.885.437l-5.574,9.655A20.23,20.23,0,0,0,17.6,17.172L16.089,14.55c.743-1.767,1.911-2.32,3.5-3.072A13.316,13.316,0,0,0,26.13,5.758.889.889,0,0,0,25.2,4.424a22.253,22.253,0,0,1-5.425.155c-3.444-.187-6.7-.364-9.194,2.9a.89.89,0,0,0-.064.985l5.771,10ZM57.487,58.407h-13.8V49.79a6.9,6.9,0,0,1,13.8,0ZM32.024,51.924a4.942,4.942,0,0,1,9.883,0v6.484H32.024Zm-11.662,0a4.942,4.942,0,0,1,9.883,0v6.484H20.362V51.924ZM4.782,49.79a6.9,6.9,0,0,1,13.8,0v8.617H4.782Zm6.9-16.316a3.818,3.818,0,1,1-3.819,3.818A3.822,3.822,0,0,1,11.682,33.474ZM25.3,39.926a2.639,2.639,0,1,1-2.638,2.639A2.641,2.641,0,0,1,25.3,39.926Zm11.662,0a2.639,2.639,0,1,1-2.639,2.639A2.641,2.641,0,0,1,36.966,39.926Zm13.621-6.452a3.818,3.818,0,1,1-3.818,3.818A3.823,3.823,0,0,1,50.586,33.474Zm3.342,8.306a5.6,5.6,0,1,0-6.683,0,8.715,8.715,0,0,0-5.077,5.895,6.771,6.771,0,0,0-2.28-1.8,4.418,4.418,0,1,0-5.846,0,6.763,6.763,0,0,0-2.908,2.716,6.763,6.763,0,0,0-2.908-2.716,4.418,4.418,0,1,0-5.846,0,6.771,6.771,0,0,0-2.28,1.8,8.715,8.715,0,0,0-5.077-5.895,5.6,5.6,0,1,0-6.683,0A8.692,8.692,0,0,0,3,49.791V59.3a.889.889,0,0,0,.889.889H58.377a.889.889,0,0,0,.889-.889V49.791a8.692,8.692,0,0,0-5.338-8.01Z" fill-rule="evenodd"/>
      </g>
    </g>
  </g>
</svg>
