<svg xmlns="http://www.w3.org/2000/svg" xmlns:xlink="http://www.w3.org/1999/xlink" width="110" height="110" viewBox="0 0 110 110">
  <defs>
    <filter id="Path_982547" x="0" y="0" width="110" height="110" filterUnits="userSpaceOnUse">
      <feOffset dy="3" input="SourceAlpha"/>
      <feGaussianBlur stdDeviation="3" result="blur"/>
      <feFlood flood-opacity="0.161"/>
      <feComposite operator="in" in2="blur"/>
      <feComposite in="SourceGraphic"/>
    </filter>
  </defs>
  <g id="Group_1173543" data-name="Group 1173543" transform="translate(-800 -6190)">
    <g id="Group_1173033" data-name="Group 1173033">
      <g id="Group_1172119" data-name="Group 1172119" transform="translate(0 5368)">
        <g id="Group_1171414" data-name="Group 1171414" transform="translate(-0.701 -6107)">
          <g id="Group_1163801" data-name="Group 1163801" transform="translate(-0.299 2285)">
            <g id="Group_1163014" data-name="Group 1163014" transform="translate(1 306)">
              <g id="Group_1157015" data-name="Group 1157015" transform="translate(0 3549)">
                <g id="Group_1155792" data-name="Group 1155792" transform="translate(-1 -3894.666)">
                  <g id="Group_1154703" data-name="Group 1154703" transform="translate(0 1465.666)">
                    <g id="Group_1150789" data-name="Group 1150789" transform="translate(3 2320)">
                      <g id="Group_1154212" data-name="Group 1154212" transform="translate(-236 -5809)">
                        <g id="Group_1152583" data-name="Group 1152583" transform="translate(1043 6713)">
                          <g id="Group_1146973" data-name="Group 1146973" transform="translate(0 0)">
                            <g id="Group_1146954" data-name="Group 1146954">
                              <g transform="matrix(1, 0, 0, 1, -9, -6)" filter="url(#Path_982547)">
                                <g id="Path_982547-2" data-name="Path 982547" transform="translate(9 6)" fill="#e4f2f4">
                                  <path d="M 46 90.49987030029297 C 39.99187850952148 90.49987030029297 34.16426849365234 89.32350921630859 28.67905426025391 87.00345611572266 C 23.38019943237305 84.76224517822266 18.62104034423828 81.55341339111328 14.53374671936035 77.46613311767578 C 10.44646644592285 73.37885284423828 7.237639904022217 68.61969757080078 4.996413230895996 63.32085418701172 C 2.676359891891479 57.83565521240234 1.5 52.008056640625 1.5 45.99993515014648 C 1.5 39.99181365966797 2.676359891891479 34.16421508789062 4.996413230895996 28.67901420593262 C 7.237639904022217 23.38017463684082 10.44646644592285 18.62101554870605 14.53374671936035 14.53373527526855 C 18.62104034423828 10.44645500183105 23.38019943237305 7.23762845993042 28.67905426025391 4.996415138244629 C 34.16426849365234 2.676361799240112 39.99187850952148 1.500001788139343 46 1.500001788139343 C 52.00812149047852 1.500001788139343 57.83573150634766 2.676361799240112 63.32094573974609 4.996415138244629 C 68.61979675292969 7.23762845993042 73.37895965576172 10.44645500183105 77.46625518798828 14.53373527526855 C 81.55353546142578 18.62101554870605 84.76235961914062 23.38017463684082 87.00358581542969 28.67901420593262 C 89.32363891601562 34.16421508789062 90.5 39.99181365966797 90.5 45.99993515014648 C 90.5 52.008056640625 89.32363891601562 57.83565521240234 87.00358581542969 63.32085418701172 C 84.76235961914062 68.61969757080078 81.55353546142578 73.37885284423828 77.46625518798828 77.46613311767578 C 73.37895965576172 81.55341339111328 68.61979675292969 84.76224517822266 63.32094573974609 87.00345611572266 C 57.83573150634766 89.32350921630859 52.00812149047852 90.49987030029297 46 90.49987030029297 Z" stroke="none"/>
                                  <path d="M 46 2.999992370605469 C 40.1937141418457 2.999992370605469 34.56269836425781 4.136489868164062 29.26337051391602 6.377906799316406 C 24.14332580566406 8.543502807617188 19.54441070556641 11.64437866210938 15.59439849853516 15.59437561035156 C 11.64440155029297 19.54439544677734 8.54351806640625 24.14329528808594 6.377914428710938 29.26333618164062 C 4.136497497558594 34.56264877319336 3 40.19366455078125 3 45.99993515014648 C 3 51.80620574951172 4.136497497558594 57.43720626831055 6.377914428710938 62.73651885986328 C 8.54351806640625 67.8565673828125 11.64440155029297 72.45545959472656 15.59439849853516 76.40547943115234 C 19.54441070556641 80.35547637939453 24.14332580566406 83.45635223388672 29.26337051391602 85.6219482421875 C 34.56269836425781 87.86336517333984 40.1937141418457 88.99986267089844 46 88.99986267089844 C 51.8062858581543 88.99986267089844 57.43730163574219 87.86336517333984 62.73661422729492 85.6219482421875 C 67.85667419433594 83.45635223388672 72.45557403564453 80.35547637939453 76.40558624267578 76.40547943115234 C 80.35559844970703 72.45545959472656 83.45647430419922 67.8565673828125 85.6220703125 62.73651885986328 C 87.86350250244141 57.43720626831055 89 51.80620574951172 89 45.99993515014648 C 89 40.19366455078125 87.86350250244141 34.56264877319336 85.6220703125 29.26333618164062 C 83.45647430419922 24.14329528808594 80.35559844970703 19.54439544677734 76.40558624267578 15.59437561035156 C 72.45557403564453 11.64437866210938 67.85667419433594 8.543502807617188 62.73661422729492 6.377906799316406 C 57.43730163574219 4.136489868164062 51.8062858581543 2.999992370605469 46 2.999992370605469 M 46 -7.62939453125e-06 C 71.40509033203125 -7.62939453125e-06 92 20.59486389160156 92 45.99993515014648 C 92 71.40499114990234 71.40509033203125 91.99986267089844 46 91.99986267089844 C 20.59490203857422 91.99986267089844 0 71.40499114990234 0 45.99993515014648 C 0 20.59486389160156 20.59490203857422 -7.62939453125e-06 46 -7.62939453125e-06 Z" stroke="none" fill="#01899b"/>
                                </g>
                              </g>
                            </g>
                          </g>
                        </g>
                      </g>
                    </g>
                  </g>
                </g>
              </g>
            </g>
          </g>
        </g>
      </g>
      <g id="leader" transform="translate(828 6207.794)">
        <g id="Group_1173031" data-name="Group 1173031" transform="translate(0.792 8.998)">
          <g id="Group_1173027" data-name="Group 1173027" transform="translate(0 10.977)">
            <g id="Group_1173021" data-name="Group 1173021" transform="translate(0 12.643)">
              <g id="Group_1173013" data-name="Group 1173013" transform="translate(35.271)">
                <g id="Group_1173012" data-name="Group 1173012">
                  <g id="Group_1173011" data-name="Group 1173011">
                    <g id="Group_1173010" data-name="Group 1173010">
                      <path id="Path_1038661" data-name="Path 1038661" d="M358.688,356.158H341.47v-6.849a5.979,5.979,0,0,1,5.979-5.979h5.26a5.979,5.979,0,0,1,5.979,5.979v6.849Z" transform="translate(-341.47 -332.35)" fill="#27d1b3"/>
                      <g id="Group_1173007" data-name="Group 1173007" transform="translate(5.922 10.98)">
                        <g id="Group_1173006" data-name="Group 1173006">
                          <path id="Path_1038662" data-name="Path 1038662" d="M402.707,351.352l-2.056,1.808a.63.63,0,0,1-.832,0l-2.056-1.808a.63.63,0,0,1-.194-.63l1.894-7.391h1.546l1.894,7.391A.631.631,0,0,1,402.707,351.352Z" transform="translate(-397.548 -343.331)" fill="#fb4a59"/>
                        </g>
                      </g>
                      <path id="Path_1038663" data-name="Path 1038663" d="M427.515,349.309v6.849H424.4v-6.849a5.98,5.98,0,0,0-5.979-5.979h3.112A5.98,5.98,0,0,1,427.515,349.309Z" transform="translate(-410.297 -332.35)" fill="#20b69f"/>
                      <g id="Group_1173009" data-name="Group 1173009" transform="translate(3.735)">
                        <g id="Group_1173008" data-name="Group 1173008">
                          <path id="Path_1038664" data-name="Path 1038664" d="M381.707,250.868a4.874,4.874,0,0,1-4.874-4.874v-1.759a4.874,4.874,0,0,1,9.748,0v1.759A4.874,4.874,0,0,1,381.707,250.868Z" transform="translate(-376.833 -239.36)" fill="#ffcec0"/>
                          <path id="Path_1038665" data-name="Path 1038665" d="M414.8,244.239V246a4.877,4.877,0,0,1-6.417,4.625A4.877,4.877,0,0,0,411.71,246v-1.759a4.878,4.878,0,0,0-3.33-4.625,4.875,4.875,0,0,1,6.417,4.625Z" transform="translate(-405.048 -239.364)" fill="#fdb0a0"/>
                        </g>
                      </g>
                    </g>
                  </g>
                </g>
              </g>
              <g id="Group_1173020" data-name="Group 1173020">
                <g id="Group_1173019" data-name="Group 1173019">
                  <g id="Group_1173018" data-name="Group 1173018">
                    <path id="Path_1038666" data-name="Path 1038666" d="M24.718,356.158H7.5v-6.849a5.979,5.979,0,0,1,5.979-5.979h5.26a5.979,5.979,0,0,1,5.979,5.979v6.849Z" transform="translate(-7.5 -332.35)" fill="#fb4a59"/>
                    <g id="Group_1173015" data-name="Group 1173015" transform="translate(5.922 10.98)">
                      <g id="Group_1173014" data-name="Group 1173014">
                        <path id="Path_1038667" data-name="Path 1038667" d="M68.737,351.352l-2.056,1.808a.63.63,0,0,1-.832,0l-2.056-1.808a.63.63,0,0,1-.194-.63l1.894-7.391h1.546l1.894,7.391A.631.631,0,0,1,68.737,351.352Z" transform="translate(-63.578 -343.331)" fill="#f8f3f1"/>
                      </g>
                    </g>
                    <path id="Path_1038668" data-name="Path 1038668" d="M93.545,349.309v6.849H90.433v-6.849a5.98,5.98,0,0,0-5.979-5.979h3.112A5.98,5.98,0,0,1,93.545,349.309Z" transform="translate(-76.327 -332.35)" fill="#f82f40"/>
                    <g id="Group_1173017" data-name="Group 1173017" transform="translate(3.735)">
                      <g id="Group_1173016" data-name="Group 1173016">
                        <path id="Path_1038669" data-name="Path 1038669" d="M47.737,250.868a4.874,4.874,0,0,1-4.874-4.874v-1.759a4.874,4.874,0,1,1,9.748,0v1.759A4.874,4.874,0,0,1,47.737,250.868Z" transform="translate(-42.863 -239.36)" fill="#ffcec0"/>
                        <path id="Path_1038670" data-name="Path 1038670" d="M80.827,244.239V246a4.877,4.877,0,0,1-6.417,4.625A4.877,4.877,0,0,0,77.74,246v-1.759a4.878,4.878,0,0,0-3.33-4.625,4.875,4.875,0,0,1,6.417,4.625Z" transform="translate(-71.078 -239.364)" fill="#fdb0a0"/>
                      </g>
                    </g>
                  </g>
                </g>
              </g>
            </g>
            <g id="Group_1173026" data-name="Group 1173026" transform="translate(14.147)">
              <path id="Path_1038671" data-name="Path 1038671" d="M165.652,336.028H141.458V325.505a8.4,8.4,0,0,1,8.4-8.4h7.391a8.4,8.4,0,0,1,8.4,8.4v10.523Z" transform="translate(-141.458 -296.25)" fill="#0d5f7f"/>
              <path id="Path_1038672" data-name="Path 1038672" d="M262.364,325.505v10.523h-4.373V325.505a8.4,8.4,0,0,0-8.4-8.4h4.373A8.4,8.4,0,0,1,262.364,325.505Z" transform="translate(-238.17 -296.25)" fill="#094c66"/>
              <path id="Path_1038673" data-name="Path 1038673" d="M207.818,317.573l-6.451,12.287-6.451-12.287a8.412,8.412,0,0,1,2.756-.462h7.39A8.412,8.412,0,0,1,207.818,317.573Z" transform="translate(-189.27 -296.257)" fill="#fff"/>
              <path id="Path_1038674" data-name="Path 1038674" d="M231.411,323.589l-3.292,6.272-3.292-6.272,2.371-6.478h1.842Z" transform="translate(-216.021 -296.257)" fill="#fb4a59"/>
              <g id="Group_1173025" data-name="Group 1173025" transform="translate(0.99)">
                <g id="Group_1173022" data-name="Group 1173022" transform="translate(0 10.203)">
                  <circle id="Ellipse_12055" data-name="Ellipse 12055" cx="2.594" cy="2.594" r="2.594" fill="#fdb0a0"/>
                </g>
                <g id="Group_1173023" data-name="Group 1173023" transform="translate(17.026 10.203)">
                  <circle id="Ellipse_12056" data-name="Ellipse 12056" cx="2.594" cy="2.594" r="2.594" fill="#f69583"/>
                </g>
                <g id="Group_1173024" data-name="Group 1173024" transform="translate(4.258 5.424)">
                  <path id="Path_1038675" data-name="Path 1038675" d="M198,187.178a6.849,6.849,0,0,1-6.849-6.849v-2.472a6.849,6.849,0,1,1,13.7,0v2.472A6.849,6.849,0,0,1,198,187.178Z" transform="translate(-191.149 -171.008)" fill="#ffcec0"/>
                  <path id="Path_1038676" data-name="Path 1038676" d="M248.917,177.855v2.472a6.848,6.848,0,0,1-6.849,6.849,6.78,6.78,0,0,1-1.645-.2,6.849,6.849,0,0,0,5.2-6.649v-2.472a6.853,6.853,0,0,0-5.2-6.649,6.848,6.848,0,0,1,8.494,6.649Z" transform="translate(-235.219 -171.006)" fill="#fdb0a0"/>
                </g>
                <path id="Path_1038677" data-name="Path 1038677" d="M263.634,141.435a19.206,19.206,0,0,1-6.452-.355,3.841,3.841,0,0,1-2.81-3.715v-2.614a2.4,2.4,0,0,1,2.4-2.4h1.805a5.937,5.937,0,0,1,5.937,5.937v2.176A.975.975,0,0,1,263.634,141.435Z" transform="translate(-243.437 -131.009)" fill="#7a7179"/>
                <path id="Path_1038678" data-name="Path 1038678" d="M278.252,138.285v2.176a.975.975,0,0,1-.881.97,22.433,22.433,0,0,1-4.206.035c.139-.012.267-.023.387-.035a.975.975,0,0,0,.879-.97v-2.176a5.936,5.936,0,0,0-4.7-5.808,2.363,2.363,0,0,1,.777-.13h1.805A5.937,5.937,0,0,1,278.252,138.285Z" transform="translate(-257.175 -131.006)" fill="#685e67"/>
                <path id="Path_1038679" data-name="Path 1038679" d="M162.468,130.343a22.861,22.861,0,0,0,7.771-.4,4.528,4.528,0,0,0,3.313-4.38v-3.081a2.829,2.829,0,0,0-2.829-2.829H168.6a7,7,0,0,0-7,7v2.723A.975.975,0,0,0,162.468,130.343Z" transform="translate(-160.46 -119.651)" fill="#9b8f99"/>
                <path id="Path_1038680" data-name="Path 1038680" d="M189.1,122.475v3.081a4.529,4.529,0,0,1-3.312,4.38,21.569,21.569,0,0,1-6.806.487,16.248,16.248,0,0,0,2.955-.487,4.528,4.528,0,0,0,3.313-4.38v-3.081a2.83,2.83,0,0,0-2.164-2.749,6.989,6.989,0,0,1,1.056-.079h2.129A2.829,2.829,0,0,1,189.1,122.475Z" transform="translate(-176.013 -119.647)" fill="#8b8088"/>
              </g>
            </g>
          </g>
          <g id="Group_1173030" data-name="Group 1173030" transform="translate(4.339 0)">
            <g id="Group_1173028" data-name="Group 1173028">
              <circle id="Ellipse_12057" data-name="Ellipse 12057" cx="9.658" cy="9.658" r="9.658" fill="#27d1b3"/>
              <path id="Path_1038681" data-name="Path 1038681" d="M127.978,25.367a9.665,9.665,0,0,1-12.22,9.314,9.314,9.314,0,0,0,0-18.627,9.667,9.667,0,0,1,12.222,9.313Z" transform="translate(-108.662 -15.71)" fill="#20b69f"/>
            </g>
            <g id="Group_1173029" data-name="Group 1173029" transform="translate(3.464 4.879)">
              <path id="Path_1038682" data-name="Path 1038682" d="M85,71.4l-3.466-3.466a.5.5,0,0,1,0-.7L82.962,65.8a.5.5,0,0,1,.7,0L85.7,67.839l5.794-5.794a.5.5,0,0,1,.7,0l1.431,1.431a.5.5,0,0,1,0,.7L86.4,71.4A.994.994,0,0,1,85,71.4Z" transform="translate(-81.385 -61.9)" fill="#bcea73"/>
            </g>
          </g>
        </g>
        <g id="Group_1173032" data-name="Group 1173032" transform="translate(0 8.206)">
          <path id="Path_1038683" data-name="Path 1038683" d="M48.914,43a5.642,5.642,0,0,0,1.424-3.75v-1.76a5.666,5.666,0,0,0-11.332,0v1.76A5.641,5.641,0,0,0,40.43,43a6.773,6.773,0,0,0-2.168.959,9.237,9.237,0,0,0-4.472-3.4.786.786,0,0,0-.086-.03,9.118,9.118,0,0,0-1.332-.347,7.63,7.63,0,0,0,2.194-4.172,3.385,3.385,0,0,0,3.091-5.889,1.77,1.77,0,0,0,.141-.693V27.254a6.736,6.736,0,0,0-6.729-6.729H29.264c-.084,0-.169,0-.253.011a3.615,3.615,0,0,0-2.819-1.352h-.968c.009-.175.015-.351.015-.528A10.448,10.448,0,1,0,16.274,29v.7a1.778,1.778,0,0,0,.067.486,3.385,3.385,0,0,0,3.165,5.829,7.63,7.63,0,0,0,2.2,4.173,9.105,9.105,0,0,0-1.311.34.793.793,0,0,0-.131.046,9.263,9.263,0,0,0-4.446,3.4A6.739,6.739,0,0,0,13.644,43a5.641,5.641,0,0,0,1.424-3.75v-1.76a5.666,5.666,0,1,0-11.332,0v1.76A5.642,5.642,0,0,0,5.159,43,6.782,6.782,0,0,0,0,49.577v6.849a.792.792,0,1,0,1.584,0V49.577a5.193,5.193,0,0,1,5.187-5.187h.247a5.651,5.651,0,0,0,.534.216L5.967,50.794a1.416,1.416,0,0,0,.439,1.421l2.056,1.808a1.426,1.426,0,0,0,1.878,0L12.4,52.215a1.416,1.416,0,0,0,.439-1.421L11.25,44.607a5.652,5.652,0,0,0,.534-.216h.247a5.157,5.157,0,0,1,2.986.949,9.115,9.115,0,0,0-.868,3.828.792.792,0,0,0,.787.8h.005a.792.792,0,0,0,.792-.787A7.628,7.628,0,0,1,20.218,42.3l6.026,11.477v5.973a.792.792,0,1,0,1.584,0V53.774l6.027-11.48a7.618,7.618,0,0,1,4.485,6.936V59.753a.792.792,0,1,0,1.584,0V49.23a9.139,9.139,0,0,0-.867-3.9,5.19,5.19,0,0,1,2.984-.944h.247a5.635,5.635,0,0,0,.534.216l-1.585,6.187a1.416,1.416,0,0,0,.439,1.421l2.056,1.808a1.426,1.426,0,0,0,1.878,0l2.056-1.808a1.416,1.416,0,0,0,.439-1.421l-.253-.988a.792.792,0,1,0-1.535.393l.229.892-1.875,1.648L42.8,51.091l1.583-6.18q.145.007.291.007t.291-.007l.4,1.571a.792.792,0,0,0,1.535-.393l-.38-1.482a5.611,5.611,0,0,0,.538-.218l.035,0H47.3a5.193,5.193,0,0,1,5.187,5.187v6.849a.792.792,0,1,0,1.584,0V49.577A6.782,6.782,0,0,0,48.914,43Zm-43.6-5.51a4.082,4.082,0,1,1,8.164,0v1.76a4.082,4.082,0,1,1-8.164,0v-1.76Zm5.957,13.6L9.4,52.739,7.526,51.091l1.583-6.18q.145.007.291.007t.291-.007ZM35.549,34.574a1.788,1.788,0,0,1-.872-.226v-2.1a7.664,7.664,0,0,0-.061-.953c.616-.022,1.161-.064,1.588-.106.055-.005.109-.014.162-.024a1.8,1.8,0,0,1-.817,3.408Zm-4.48-12.465a5.15,5.15,0,0,1,5.145,5.145V29.43a.183.183,0,0,1-.166.183,18.363,18.363,0,0,1-6.166-.331,2.983,2.983,0,0,1-.95-.453,5.357,5.357,0,0,0,.88-2.943V22.8a3.627,3.627,0,0,0-.068-.7h1.324ZM20.6,27.339a.792.792,0,0,0-.883-1.316,8.867,8.867,0,1,1,2.478-2.5.792.792,0,1,0,1.323.871,10.388,10.388,0,0,0,1.5-3.628h1.169A2.039,2.039,0,0,1,28.229,22.8v3.081A3.738,3.738,0,0,1,25.5,29.5a22.35,22.35,0,0,1-7.48.378.182.182,0,0,1-.162-.183v-1.05A10.391,10.391,0,0,0,20.6,27.339Zm-3.882,5.433a1.8,1.8,0,0,1,.7-1.422,1.771,1.771,0,0,0,.437.1c.434.046.969.092,1.572.123-.02.225-.031.449-.031.671v2.1a1.8,1.8,0,0,1-2.674-1.576Zm4.258,1.949V32.249a6.007,6.007,0,0,1,.035-.632,19.37,19.37,0,0,0,4.9-.587,5.22,5.22,0,0,0,1.957-1.016,4.576,4.576,0,0,0,1.594.8,15.733,15.733,0,0,0,3.55.489,6.108,6.108,0,0,1,.076.949v2.472a6.057,6.057,0,1,1-12.114,0Zm6.057,17.154-2.428-4.625,1.8-4.916c.207.017.417.028.628.028s.421-.011.628-.028l1.8,4.916Zm-3.7-10.254h.416a7.588,7.588,0,0,0,1.074.415l-1.216,3.321-1.872-3.565A7.568,7.568,0,0,1,23.341,41.621Zm7.118,3.736-1.216-3.321a7.589,7.589,0,0,0,1.075-.416h.415a7.611,7.611,0,0,1,1.6.17ZM40.59,39.252v-1.76a4.082,4.082,0,0,1,8.164,0v1.76a4.082,4.082,0,0,1-8.164,0Z" transform="translate(0 -8.206)"/>
          <path id="Path_1038684" data-name="Path 1038684" d="M134.75,424.906a.792.792,0,0,0-.792.792v6.747a.792.792,0,1,0,1.584,0V425.7A.792.792,0,0,0,134.75,424.906Z" transform="translate(-119.811 -380.898)"/>
          <path id="Path_1038685" data-name="Path 1038685" d="M277.346,445.24h-.02a.792.792,0,0,0,0,1.584h.02a.792.792,0,0,0,0-1.584Z" transform="translate(-247.328 -399.085)"/>
          <path id="Path_1038686" data-name="Path 1038686" d="M87.484,56.209l-1.431-1.431a1.289,1.289,0,0,0-1.823,0L79,60.011l-1.474-1.474a1.289,1.289,0,0,0-1.823,0l-1.431,1.431a1.29,1.29,0,0,0,0,1.823l3.466,3.466a1.788,1.788,0,0,0,2.526,0l7.225-7.225A1.29,1.29,0,0,0,87.484,56.209Zm-8.345,7.928a.2.2,0,0,1-.285,0L75.6,60.879l1.014-1.014,1.826,1.826a.792.792,0,0,0,1.12,0l5.585-5.585,1.014,1.014Z" transform="translate(-66.087 -49.521)"/>
        </g>
      </g>
    </g>
  </g>
</svg>
